%TF.GenerationSoftware,KiCad,Pcbnew,(6.0.6)*%
%TF.CreationDate,2022-08-14T20:34:24+01:00*%
%TF.ProjectId,FTDI MCU programmer,46544449-204d-4435-9520-70726f677261,REV1.0*%
%TF.SameCoordinates,Original*%
%TF.FileFunction,Copper,L1,Top*%
%TF.FilePolarity,Positive*%
%FSLAX46Y46*%
G04 Gerber Fmt 4.6, Leading zero omitted, Abs format (unit mm)*
G04 Created by KiCad (PCBNEW (6.0.6)) date 2022-08-14 20:34:24*
%MOMM*%
%LPD*%
G01*
G04 APERTURE LIST*
G04 Aperture macros list*
%AMRoundRect*
0 Rectangle with rounded corners*
0 $1 Rounding radius*
0 $2 $3 $4 $5 $6 $7 $8 $9 X,Y pos of 4 corners*
0 Add a 4 corners polygon primitive as box body*
4,1,4,$2,$3,$4,$5,$6,$7,$8,$9,$2,$3,0*
0 Add four circle primitives for the rounded corners*
1,1,$1+$1,$2,$3*
1,1,$1+$1,$4,$5*
1,1,$1+$1,$6,$7*
1,1,$1+$1,$8,$9*
0 Add four rect primitives between the rounded corners*
20,1,$1+$1,$2,$3,$4,$5,0*
20,1,$1+$1,$4,$5,$6,$7,0*
20,1,$1+$1,$6,$7,$8,$9,0*
20,1,$1+$1,$8,$9,$2,$3,0*%
G04 Aperture macros list end*
%TA.AperFunction,SMDPad,CuDef*%
%ADD10R,1.350000X0.400000*%
%TD*%
%TA.AperFunction,ComponentPad*%
%ADD11O,1.250000X1.050000*%
%TD*%
%TA.AperFunction,ComponentPad*%
%ADD12O,1.900000X1.000000*%
%TD*%
%TA.AperFunction,SMDPad,CuDef*%
%ADD13R,1.900000X2.900000*%
%TD*%
%TA.AperFunction,SMDPad,CuDef*%
%ADD14RoundRect,0.218750X0.218750X0.256250X-0.218750X0.256250X-0.218750X-0.256250X0.218750X-0.256250X0*%
%TD*%
%TA.AperFunction,SMDPad,CuDef*%
%ADD15RoundRect,0.200000X0.275000X-0.200000X0.275000X0.200000X-0.275000X0.200000X-0.275000X-0.200000X0*%
%TD*%
%TA.AperFunction,SMDPad,CuDef*%
%ADD16RoundRect,0.225000X-0.250000X0.225000X-0.250000X-0.225000X0.250000X-0.225000X0.250000X0.225000X0*%
%TD*%
%TA.AperFunction,SMDPad,CuDef*%
%ADD17RoundRect,0.218750X-0.218750X-0.381250X0.218750X-0.381250X0.218750X0.381250X-0.218750X0.381250X0*%
%TD*%
%TA.AperFunction,SMDPad,CuDef*%
%ADD18RoundRect,0.250000X-0.450000X-0.425000X0.450000X-0.425000X0.450000X0.425000X-0.450000X0.425000X0*%
%TD*%
%TA.AperFunction,SMDPad,CuDef*%
%ADD19RoundRect,0.075000X-0.530330X0.424264X0.424264X-0.530330X0.530330X-0.424264X-0.424264X0.530330X0*%
%TD*%
%TA.AperFunction,SMDPad,CuDef*%
%ADD20RoundRect,0.075000X-0.530330X-0.424264X-0.424264X-0.530330X0.530330X0.424264X0.424264X0.530330X0*%
%TD*%
%TA.AperFunction,ComponentPad*%
%ADD21R,1.700000X1.700000*%
%TD*%
%TA.AperFunction,ComponentPad*%
%ADD22O,1.700000X1.700000*%
%TD*%
%TA.AperFunction,SMDPad,CuDef*%
%ADD23RoundRect,0.225000X0.250000X-0.225000X0.250000X0.225000X-0.250000X0.225000X-0.250000X-0.225000X0*%
%TD*%
%TA.AperFunction,SMDPad,CuDef*%
%ADD24RoundRect,0.200000X0.200000X0.275000X-0.200000X0.275000X-0.200000X-0.275000X0.200000X-0.275000X0*%
%TD*%
%TA.AperFunction,SMDPad,CuDef*%
%ADD25RoundRect,0.200000X-0.275000X0.200000X-0.275000X-0.200000X0.275000X-0.200000X0.275000X0.200000X0*%
%TD*%
%TA.AperFunction,SMDPad,CuDef*%
%ADD26RoundRect,0.225000X-0.225000X-0.250000X0.225000X-0.250000X0.225000X0.250000X-0.225000X0.250000X0*%
%TD*%
%TA.AperFunction,ViaPad*%
%ADD27C,0.508000*%
%TD*%
%TA.AperFunction,Conductor*%
%ADD28C,0.254000*%
%TD*%
%TA.AperFunction,Conductor*%
%ADD29C,0.250000*%
%TD*%
G04 APERTURE END LIST*
D10*
%TO.P,J3,1,VBUS*%
%TO.N,VBUS*%
X129769000Y-60278800D03*
%TO.P,J3,2,D-*%
%TO.N,USBDM*%
X129769000Y-59628800D03*
%TO.P,J3,3,D+*%
%TO.N,USBDP*%
X129769000Y-58978800D03*
%TO.P,J3,4,ID*%
%TO.N,GND*%
X129769000Y-58328800D03*
%TO.P,J3,5,GND*%
X129769000Y-57678800D03*
D11*
%TO.P,J3,6,Shield*%
X130094000Y-61366400D03*
X130094000Y-56540400D03*
D12*
X127094000Y-55321200D03*
X127094000Y-62687200D03*
D13*
X127094000Y-58978800D03*
%TD*%
D14*
%TO.P,TX,1,K*%
%TO.N,Net-(D1-Pad1)*%
X138362500Y-57475000D03*
%TO.P,TX,2,A*%
%TO.N,/VCCIO*%
X136787500Y-57475000D03*
%TD*%
%TO.P,ON,1,K*%
%TO.N,GND*%
X138362500Y-59400000D03*
%TO.P,ON,2,A*%
%TO.N,Net-(D3-Pad2)*%
X136787500Y-59400000D03*
%TD*%
D15*
%TO.P,R3,1*%
%TO.N,Net-(D2-Pad1)*%
X141980000Y-58245000D03*
%TO.P,R3,2*%
%TO.N,/RXD*%
X141980000Y-56595000D03*
%TD*%
D16*
%TO.P,C3,1*%
%TO.N,GND*%
X134000000Y-60475000D03*
%TO.P,C3,2*%
%TO.N,/5V*%
X134000000Y-62025000D03*
%TD*%
D15*
%TO.P,R1,1*%
%TO.N,/PWREN*%
X156057600Y-52463200D03*
%TO.P,R1,2*%
%TO.N,/VCCIO*%
X156057600Y-50813200D03*
%TD*%
D17*
%TO.P,FB1,1*%
%TO.N,VBUS*%
X127512500Y-65350000D03*
%TO.P,FB1,2*%
%TO.N,/5V*%
X129637500Y-65350000D03*
%TD*%
D18*
%TO.P,C4,1*%
%TO.N,/5V*%
X136400000Y-62525000D03*
%TO.P,C4,2*%
%TO.N,GND*%
X139100000Y-62525000D03*
%TD*%
D14*
%TO.P,RX,1,K*%
%TO.N,Net-(D2-Pad1)*%
X138362500Y-55475000D03*
%TO.P,RX,2,A*%
%TO.N,/VCCIO*%
X136787500Y-55475000D03*
%TD*%
D19*
%TO.P,U1,1,VCCIO*%
%TO.N,/VCCIO*%
X146794973Y-54912099D03*
%TO.P,U1,2,RXD*%
%TO.N,/RXD*%
X146441419Y-55265652D03*
%TO.P,U1,3,R1#*%
%TO.N,/R1*%
X146087866Y-55619206D03*
%TO.P,U1,4,GND*%
%TO.N,GND*%
X145734313Y-55972759D03*
%TO.P,U1,5,NC*%
%TO.N,unconnected-(U1-Pad5)*%
X145380759Y-56326313D03*
%TO.P,U1,6,DSR#*%
%TO.N,/DSR*%
X145027206Y-56679866D03*
%TO.P,U1,7,DCD#*%
%TO.N,/DCD*%
X144673652Y-57033419D03*
%TO.P,U1,8,CTS#*%
%TO.N,/CTS*%
X144320099Y-57386973D03*
D20*
%TO.P,U1,9,CBUS4*%
%TO.N,unconnected-(U1-Pad9)*%
X144320099Y-59402227D03*
%TO.P,U1,10,CBUS2*%
%TO.N,/PWREN*%
X144673652Y-59755781D03*
%TO.P,U1,11,CBUS3*%
%TO.N,unconnected-(U1-Pad11)*%
X145027206Y-60109334D03*
%TO.P,U1,12,NC*%
%TO.N,unconnected-(U1-Pad12)*%
X145380759Y-60462887D03*
%TO.P,U1,13,NC*%
%TO.N,unconnected-(U1-Pad13)*%
X145734313Y-60816441D03*
%TO.P,U1,14,USBDP*%
%TO.N,USBDP*%
X146087866Y-61169994D03*
%TO.P,U1,15,USBDM*%
%TO.N,USBDM*%
X146441419Y-61523548D03*
%TO.P,U1,16,3V3OUT*%
%TO.N,/3V3*%
X146794973Y-61877101D03*
D19*
%TO.P,U1,17,GND*%
%TO.N,GND*%
X148810227Y-61877101D03*
%TO.P,U1,18,RESET#*%
%TO.N,unconnected-(U1-Pad18)*%
X149163781Y-61523548D03*
%TO.P,U1,19,VCC*%
%TO.N,/5V*%
X149517334Y-61169994D03*
%TO.P,U1,20,GND*%
%TO.N,GND*%
X149870887Y-60816441D03*
%TO.P,U1,21,CBUS1*%
%TO.N,/RXD*%
X150224441Y-60462887D03*
%TO.P,U1,22,CBUS0*%
%TO.N,/TXD*%
X150577994Y-60109334D03*
%TO.P,U1,23,NC*%
%TO.N,unconnected-(U1-Pad23)*%
X150931548Y-59755781D03*
%TO.P,U1,24,AGND*%
%TO.N,GND*%
X151285101Y-59402227D03*
D20*
%TO.P,U1,25,NC*%
%TO.N,unconnected-(U1-Pad25)*%
X151285101Y-57386973D03*
%TO.P,U1,26,TEST*%
%TO.N,GND*%
X150931548Y-57033419D03*
%TO.P,U1,27,OSCI*%
%TO.N,unconnected-(U1-Pad27)*%
X150577994Y-56679866D03*
%TO.P,U1,28,OSCO*%
%TO.N,unconnected-(U1-Pad28)*%
X150224441Y-56326313D03*
%TO.P,U1,29,NC*%
%TO.N,unconnected-(U1-Pad29)*%
X149870887Y-55972759D03*
%TO.P,U1,30,TXD*%
%TO.N,/TXD*%
X149517334Y-55619206D03*
%TO.P,U1,31,DTR#*%
%TO.N,/DTR*%
X149163781Y-55265652D03*
%TO.P,U1,32,RTS#*%
%TO.N,/RTS*%
X148810227Y-54912099D03*
%TD*%
D21*
%TO.P,J2,1,Pin_1*%
%TO.N,GND*%
X160210000Y-52400000D03*
D22*
%TO.P,J2,2,Pin_2*%
%TO.N,/CTS*%
X160210000Y-54940000D03*
%TO.P,J2,3,Pin_3*%
%TO.N,Net-(C1-Pad1)*%
X160210000Y-57480000D03*
%TO.P,J2,4,Pin_4*%
%TO.N,/TXD*%
X160210000Y-60020000D03*
%TO.P,J2,5,Pin_5*%
%TO.N,/RXD*%
X160210000Y-62560000D03*
%TO.P,J2,6,Pin_6*%
%TO.N,/DTR*%
X160210000Y-65100000D03*
%TD*%
D21*
%TO.P,J1,1,Pin_1*%
%TO.N,/3V3*%
X155194000Y-56057800D03*
D22*
%TO.P,J1,2,Pin_2*%
%TO.N,/VCCIO*%
X155194000Y-58597800D03*
%TO.P,J1,3,Pin_3*%
%TO.N,/5V*%
X155194000Y-61137800D03*
%TD*%
D23*
%TO.P,C5,1*%
%TO.N,/3V3*%
X132250000Y-62000000D03*
%TO.P,C5,2*%
%TO.N,GND*%
X132250000Y-60450000D03*
%TD*%
D16*
%TO.P,C1,1*%
%TO.N,Net-(C1-Pad1)*%
X156133800Y-65138000D03*
%TO.P,C1,2*%
%TO.N,/VCCIO*%
X156133800Y-66688000D03*
%TD*%
D24*
%TO.P,R4,1*%
%TO.N,Net-(D3-Pad2)*%
X129175000Y-52650000D03*
%TO.P,R4,2*%
%TO.N,VBUS*%
X127525000Y-52650000D03*
%TD*%
D25*
%TO.P,R2,1*%
%TO.N,Net-(D1-Pad1)*%
X141950000Y-59925000D03*
%TO.P,R2,2*%
%TO.N,/TXD*%
X141950000Y-61575000D03*
%TD*%
D26*
%TO.P,C2,1*%
%TO.N,GND*%
X132325000Y-56475000D03*
%TO.P,C2,2*%
%TO.N,VBUS*%
X133875000Y-56475000D03*
%TD*%
D21*
%TO.P,J5,1,Pin_1*%
%TO.N,GND*%
X152029400Y-66446400D03*
D22*
%TO.P,J5,2,Pin_2*%
%TO.N,/RTS*%
X149489400Y-66446400D03*
%TO.P,J5,3,Pin_3*%
%TO.N,/CTS*%
X146949400Y-66446400D03*
%TO.P,J5,4,Pin_4*%
%TO.N,/RXD*%
X144409400Y-66446400D03*
%TO.P,J5,5,Pin_5*%
%TO.N,/TXD*%
X141869400Y-66446400D03*
%TO.P,J5,6,Pin_6*%
%TO.N,/5V*%
X139329400Y-66446400D03*
%TO.P,J5,7,Pin_7*%
%TO.N,/3V3*%
X136789400Y-66446400D03*
%TO.P,J5,8,Pin_8*%
%TO.N,GND*%
X134249400Y-66446400D03*
%TD*%
D21*
%TO.P,J6,1,Pin_1*%
%TO.N,GND*%
X151866600Y-51308000D03*
D22*
%TO.P,J6,2,Pin_2*%
%TO.N,/PWREN*%
X149326600Y-51308000D03*
%TO.P,J6,3,Pin_3*%
%TO.N,/DTR*%
X146786600Y-51308000D03*
%TO.P,J6,4,Pin_4*%
%TO.N,VBUS*%
X144246600Y-51308000D03*
%TO.P,J6,5,Pin_5*%
%TO.N,/R1*%
X141706600Y-51308000D03*
%TO.P,J6,6,Pin_6*%
%TO.N,/DSR*%
X139166600Y-51308000D03*
%TO.P,J6,7,Pin_7*%
%TO.N,/DCD*%
X136626600Y-51308000D03*
%TO.P,J6,8,Pin_8*%
%TO.N,GND*%
X134086600Y-51308000D03*
%TD*%
D27*
%TO.N,Net-(C1-Pad1)*%
X158405116Y-61341807D03*
%TO.N,/VCCIO*%
X154275000Y-53775000D03*
X148125000Y-56075000D03*
%TO.N,GND*%
X148375000Y-62850000D03*
X152600000Y-54400000D03*
X149350000Y-57525000D03*
X151275000Y-55250000D03*
X144621271Y-55263500D03*
%TO.N,/5V*%
X153550000Y-64300000D03*
%TO.N,/3V3*%
X148175000Y-59475000D03*
X145750000Y-63200000D03*
%TO.N,/CTS*%
X145725000Y-58275000D03*
X157875000Y-52850000D03*
%TO.N,/RXD*%
X151800000Y-61775000D03*
X150500000Y-63625000D03*
%TO.N,USBDM*%
X144475000Y-62750000D03*
X130676332Y-59628800D03*
%TO.N,/RTS*%
X148150000Y-54000000D03*
%TO.N,/PWREN*%
X145875000Y-59175000D03*
%TO.N,/R1*%
X143075000Y-54875000D03*
%TO.N,/DSR*%
X142625000Y-55600000D03*
%TO.N,/DCD*%
X143350000Y-56625000D03*
%TD*%
D28*
%TO.N,/DSR*%
X145027206Y-56647340D02*
X143979866Y-55600000D01*
X145027206Y-56679866D02*
X145027206Y-56647340D01*
X143979866Y-55600000D02*
X142625000Y-55600000D01*
%TO.N,/RXD*%
X141925000Y-54525000D02*
X141925000Y-56462219D01*
X146441419Y-55265652D02*
X145404767Y-54229000D01*
X141980005Y-56594995D02*
G75*
G02*
X141925000Y-56462219I132795J132795D01*
G01*
X141924995Y-54525000D02*
G75*
G02*
X142010561Y-54318441I292105J0D01*
G01*
X145404767Y-54229000D02*
X142100000Y-54229000D01*
X142100000Y-54229000D02*
X142010560Y-54318440D01*
%TO.N,Net-(C1-Pad1)*%
X157575000Y-62171923D02*
X157575000Y-64446447D01*
X157112550Y-65138000D02*
X156133800Y-65138000D01*
X158405116Y-61341807D02*
X157575000Y-62171923D01*
X157112550Y-65137978D02*
G75*
G03*
X157324999Y-65049999I50J300378D01*
G01*
X157325016Y-65050016D02*
G75*
G03*
X157575000Y-64446447I-603516J603516D01*
G01*
%TO.N,/VCCIO*%
X154250000Y-51875000D02*
X154250000Y-53714645D01*
X136712500Y-55500000D02*
X136712500Y-57354290D01*
X154550000Y-65896447D02*
X154550000Y-64625000D01*
X145675000Y-53792126D02*
X145675000Y-53775000D01*
X156133800Y-66688000D02*
X155253872Y-66688000D01*
X154832843Y-63942158D02*
X154875000Y-63900000D01*
X156950000Y-63148224D02*
X156950000Y-59031066D01*
X156057600Y-50813200D02*
X155311800Y-50813200D01*
X147080275Y-55030275D02*
X148125000Y-56075000D01*
X155418198Y-63675000D02*
X156281802Y-63675000D01*
X145675000Y-53775000D02*
X137400000Y-53775000D01*
X146794973Y-54912099D02*
X145675000Y-53792126D01*
X136625000Y-54550000D02*
X136625000Y-55288757D01*
X156266136Y-58597800D02*
X155194000Y-58597800D01*
X156824999Y-63449999D02*
G75*
G02*
X156281802Y-63675000I-543199J543199D01*
G01*
X136625000Y-54550000D02*
G75*
G02*
X137400000Y-53775000I775000J0D01*
G01*
X155418198Y-63675000D02*
G75*
G03*
X154875001Y-63900001I2J-768200D01*
G01*
X147080293Y-55030257D02*
G75*
G03*
X146794973Y-54912099I-285293J-285343D01*
G01*
X136662503Y-57475003D02*
G75*
G03*
X136712500Y-57354290I-120703J120703D01*
G01*
X136712487Y-55500013D02*
G75*
G02*
X136625000Y-55288757I211213J211213D01*
G01*
X156266136Y-58597786D02*
G75*
G02*
X156875000Y-58850000I-36J-861114D01*
G01*
X154800008Y-66499992D02*
G75*
G03*
X155253872Y-66688000I453892J453892D01*
G01*
X156874990Y-58850010D02*
G75*
G02*
X156950000Y-59031066I-181090J-181090D01*
G01*
X154275013Y-53774987D02*
G75*
G02*
X154250000Y-53714645I60387J60387D01*
G01*
X154250000Y-51875000D02*
G75*
G02*
X155311800Y-50813200I1061800J0D01*
G01*
X156950009Y-63148224D02*
G75*
G02*
X156825000Y-63450000I-426809J24D01*
G01*
X154549981Y-65896447D02*
G75*
G03*
X154800000Y-66500000I853619J47D01*
G01*
X154832839Y-63942154D02*
G75*
G03*
X154550000Y-64625000I682861J-682846D01*
G01*
%TO.N,GND*%
X149419722Y-60365276D02*
X149870887Y-60816441D01*
X148375000Y-60450000D02*
X148515901Y-60309099D01*
X144904026Y-55175000D02*
X144575000Y-55175000D01*
X145734313Y-55972759D02*
X145701785Y-55972759D01*
X151775000Y-56189967D02*
X150931548Y-57033419D01*
X127094000Y-58978800D02*
X127094000Y-62687200D01*
X148150000Y-61225000D02*
X148150000Y-60993198D01*
X145701785Y-55972759D02*
X145202013Y-55472987D01*
X149500000Y-57525000D02*
X149350000Y-57525000D01*
X148796355Y-61871355D02*
X148150000Y-61225000D01*
X152600000Y-52041400D02*
X152600000Y-54400000D01*
X127094000Y-55321200D02*
X127094000Y-58978800D01*
X151275000Y-55250000D02*
X151775000Y-55750000D01*
X144575000Y-55175000D02*
X144575000Y-55217229D01*
X151775000Y-55750000D02*
X151775000Y-56189967D01*
X148796345Y-61871365D02*
G75*
G03*
X148810227Y-61877101I13855J13865D01*
G01*
X144621271Y-55263500D02*
G75*
G02*
X144575000Y-55217229I29J46300D01*
G01*
X152600000Y-52041400D02*
G75*
G03*
X151866600Y-51308000I-733400J0D01*
G01*
X144904026Y-55174987D02*
G75*
G02*
X145202013Y-55472987I-26J-298013D01*
G01*
X148900000Y-60150001D02*
G75*
G03*
X148515901Y-60309099I0J-543199D01*
G01*
X148375001Y-60450001D02*
G75*
G03*
X148150000Y-60993198I543199J-543199D01*
G01*
X149419722Y-60365276D02*
G75*
G03*
X148900000Y-60150000I-519722J-519724D01*
G01*
%TO.N,VBUS*%
X128525000Y-60925000D02*
X128525000Y-64337500D01*
D29*
X133423224Y-55100000D02*
X131810355Y-55100000D01*
X131750000Y-55075000D02*
X131356067Y-54681067D01*
D28*
X129769000Y-60157061D02*
X129767739Y-60155800D01*
X129300000Y-54425000D02*
X129950000Y-54425000D01*
X129767739Y-60155800D02*
X129294200Y-60155800D01*
X129950000Y-54425000D02*
X130737868Y-54425000D01*
X129100000Y-55100000D02*
X129651256Y-54548744D01*
X128500000Y-50125000D02*
X143063600Y-50125000D01*
X128525000Y-60925000D02*
X128525000Y-56488172D01*
D29*
X133875000Y-56475000D02*
X133875000Y-55587132D01*
D28*
X127525000Y-52650000D02*
X127525000Y-51100000D01*
X129100008Y-55100008D02*
G75*
G03*
X128525000Y-56488172I1388192J-1388192D01*
G01*
X128500000Y-50125000D02*
G75*
G03*
X127525000Y-51100000I0J-975000D01*
G01*
X144246600Y-51308000D02*
G75*
G03*
X143063600Y-50125000I-1183000J0D01*
G01*
D29*
X133725009Y-55224991D02*
G75*
G02*
X133875000Y-55587132I-362109J-362109D01*
G01*
D28*
X129300000Y-54425000D02*
G75*
G02*
X127525000Y-52650000I0J1775000D01*
G01*
X128525000Y-60925000D02*
G75*
G02*
X129294200Y-60155800I769200J0D01*
G01*
D29*
X131750013Y-55074987D02*
G75*
G03*
X131810355Y-55100000I60387J60387D01*
G01*
D28*
X129950000Y-54425004D02*
G75*
G03*
X129651256Y-54548744I0J-422496D01*
G01*
D29*
X130737868Y-54425034D02*
G75*
G02*
X131356066Y-54681068I32J-874266D01*
G01*
X133423224Y-55099991D02*
G75*
G02*
X133725000Y-55225000I-24J-426809D01*
G01*
D28*
X127512500Y-65350000D02*
G75*
G03*
X128525000Y-64337500I0J1012500D01*
G01*
%TO.N,/5V*%
X129637500Y-65350000D02*
X131175000Y-65350000D01*
X138925000Y-67400000D02*
X138941056Y-67383944D01*
X155175000Y-62850000D02*
X155199479Y-62825521D01*
X149564552Y-61189553D02*
X150100000Y-61725000D01*
X152075000Y-63175000D02*
X152975000Y-63175000D01*
X152975000Y-63725000D02*
X152975000Y-63175000D01*
X155500000Y-62100000D02*
X155500000Y-61876549D01*
X138250000Y-67650000D02*
X138321447Y-67650000D01*
X139329400Y-65859886D02*
X139329400Y-66446400D01*
X132269454Y-67344455D02*
X132425000Y-67500000D01*
X152975000Y-63175000D02*
X154390381Y-63175000D01*
X132787132Y-67650000D02*
X138250000Y-67650000D01*
X136400000Y-62525000D02*
X136400000Y-63911092D01*
X137218198Y-64800000D02*
X138240381Y-64800000D01*
X131729809Y-65579810D02*
X131850000Y-65700000D01*
X132075000Y-66243198D02*
X132075000Y-66875000D01*
X134000000Y-62025000D02*
X135192894Y-62025000D01*
X150100000Y-61725000D02*
X151178768Y-62803768D01*
X149564541Y-61189564D02*
G75*
G03*
X149517334Y-61169994I-47241J-47236D01*
G01*
X136400002Y-62524998D02*
G75*
G03*
X135192894Y-62025000I-1207102J-1207102D01*
G01*
X137218198Y-64800000D02*
G75*
G02*
X136675001Y-64574999I2J768200D01*
G01*
X138924986Y-67399986D02*
G75*
G02*
X138321447Y-67650000I-603586J603586D01*
G01*
X139025006Y-65124994D02*
G75*
G03*
X138240381Y-64800000I-784606J-784606D01*
G01*
X136674997Y-64575003D02*
G75*
G02*
X136400000Y-63911092I663903J663903D01*
G01*
X139329395Y-66446400D02*
G75*
G02*
X138941055Y-67383943I-1325895J0D01*
G01*
X155193985Y-61137815D02*
G75*
G02*
X155500000Y-61876549I-738785J-738785D01*
G01*
X132269456Y-67344453D02*
G75*
G02*
X132075000Y-66875000I469444J469453D01*
G01*
X132075000Y-66243198D02*
G75*
G03*
X131849999Y-65700001I-768200J-2D01*
G01*
X139329405Y-65859886D02*
G75*
G03*
X139025000Y-65125000I-1039305J-14D01*
G01*
X152975000Y-63725000D02*
G75*
G03*
X153550000Y-64300000I575000J0D01*
G01*
X155175006Y-62850006D02*
G75*
G02*
X154390381Y-63175000I-784606J784606D01*
G01*
X152075000Y-63174988D02*
G75*
G02*
X151178769Y-62803767I0J1267488D01*
G01*
X132787132Y-67649986D02*
G75*
G02*
X132425001Y-67499999I-32J512086D01*
G01*
X155500011Y-62100000D02*
G75*
G02*
X155199478Y-62825520I-1026011J0D01*
G01*
X131729805Y-65579814D02*
G75*
G03*
X131175000Y-65350000I-554805J-554786D01*
G01*
%TO.N,/3V3*%
X132250000Y-62000000D02*
X132250000Y-63637868D01*
X135900000Y-65875000D02*
X136246540Y-66221540D01*
X146950000Y-63000000D02*
X146950000Y-62032128D01*
X147625000Y-61877101D02*
X147625000Y-60175000D01*
X132762132Y-64150000D02*
X135183579Y-64150000D01*
X135425000Y-64250000D02*
X135633578Y-64458578D01*
X145750000Y-63200000D02*
X146750000Y-63200000D01*
X147731066Y-59918934D02*
X148175000Y-59475000D01*
X135775000Y-64800000D02*
X135775000Y-65573224D01*
X146794973Y-61877101D02*
X147625000Y-61877101D01*
X146794973Y-61877100D02*
G75*
G02*
X146950000Y-62032128I27J-155000D01*
G01*
X135900007Y-65874993D02*
G75*
G02*
X135775000Y-65573224I301793J301793D01*
G01*
X135774983Y-64800000D02*
G75*
G03*
X135633578Y-64458578I-482883J0D01*
G01*
X147731073Y-59918941D02*
G75*
G03*
X147625000Y-60175000I256027J-256059D01*
G01*
X135425006Y-64249994D02*
G75*
G03*
X135183579Y-64150000I-241406J-241406D01*
G01*
X146950000Y-63000000D02*
G75*
G02*
X146750000Y-63200000I-200000J0D01*
G01*
X136789400Y-66446405D02*
G75*
G02*
X136246541Y-66221539I0J767705D01*
G01*
X132762132Y-64149986D02*
G75*
G02*
X132400001Y-63999999I-32J512086D01*
G01*
X132399991Y-64000009D02*
G75*
G02*
X132250000Y-63637868I362109J362109D01*
G01*
%TO.N,Net-(D1-Pad1)*%
X139300000Y-57650000D02*
X138358210Y-57650000D01*
X139750000Y-58025000D02*
X139428033Y-57703033D01*
X141950000Y-59925000D02*
X140650000Y-59925000D01*
X139900000Y-59175000D02*
X139900000Y-58387132D01*
X139900000Y-59175000D02*
G75*
G03*
X140650000Y-59925000I750000J0D01*
G01*
X139750009Y-58024991D02*
G75*
G02*
X139900000Y-58387132I-362109J-362109D01*
G01*
X139300000Y-57650010D02*
G75*
G02*
X139428033Y-57703033I0J-181090D01*
G01*
%TO.N,Net-(D2-Pad1)*%
X140150000Y-57475000D02*
X140150000Y-56426776D01*
X139250000Y-55700000D02*
X138770342Y-55700000D01*
X140025000Y-56125000D02*
X139847488Y-55947488D01*
X141935000Y-58200000D02*
X140875000Y-58200000D01*
X139250000Y-55700008D02*
G75*
G02*
X139847488Y-55947488I0J-844992D01*
G01*
X141935000Y-58200000D02*
G75*
G02*
X141980000Y-58245000I0J-45000D01*
G01*
X140150000Y-57475000D02*
G75*
G03*
X140875000Y-58200000I725000J0D01*
G01*
X140024993Y-56125007D02*
G75*
G02*
X140150000Y-56426776I-301793J-301793D01*
G01*
X138287487Y-55500013D02*
G75*
G03*
X138770342Y-55700000I482813J482813D01*
G01*
%TO.N,Net-(D3-Pad2)*%
X135931066Y-59400000D02*
X136787500Y-59400000D01*
X129175000Y-52650000D02*
X131050000Y-52650000D01*
X131750000Y-53350000D02*
X131750000Y-54300000D01*
X135400000Y-55992462D02*
X135400000Y-58762868D01*
X132232842Y-54500000D02*
X134331802Y-54500000D01*
X135550000Y-59125000D02*
X135750000Y-59325000D01*
X135931066Y-59400014D02*
G75*
G02*
X135750000Y-59325000I34J256114D01*
G01*
X134874999Y-54725001D02*
G75*
G03*
X134331802Y-54500000I-543199J-543199D01*
G01*
X135400015Y-55992462D02*
G75*
G03*
X134875000Y-54725000I-1792515J-38D01*
G01*
X135549991Y-59125009D02*
G75*
G02*
X135400000Y-58762868I362109J362109D01*
G01*
X132232842Y-54499982D02*
G75*
G02*
X131750000Y-54300000I-42J682782D01*
G01*
X131750000Y-53350000D02*
G75*
G03*
X131050000Y-52650000I-700000J0D01*
G01*
%TO.N,/CTS*%
X145208126Y-58275000D02*
X144320099Y-57386973D01*
X160210000Y-54940000D02*
X159015000Y-54940000D01*
X145725000Y-58275000D02*
X145208126Y-58275000D01*
X157850000Y-53775000D02*
X157850000Y-52910355D01*
X157875013Y-52850013D02*
G75*
G03*
X157850000Y-52910355I60387J-60387D01*
G01*
X157850000Y-53775000D02*
G75*
G03*
X159015000Y-54940000I1165000J0D01*
G01*
%TO.N,/TXD*%
X158225000Y-60000000D02*
X158340900Y-60115900D01*
X159600000Y-60630000D02*
X159600000Y-61225000D01*
X145650000Y-65025000D02*
X145650000Y-67050000D01*
X141869400Y-66446400D02*
X141869400Y-61655600D01*
X154125000Y-67300000D02*
X154109619Y-67284620D01*
X148629000Y-58160340D02*
X148629000Y-56721000D01*
X150577994Y-60109334D02*
X148629000Y-58160340D01*
X145508579Y-67391422D02*
X145450000Y-67450000D01*
X152294670Y-64600000D02*
X146075000Y-64600000D01*
X150577994Y-60109334D02*
X150888136Y-60419476D01*
X143025000Y-67775000D02*
X142782842Y-67775000D01*
X141869400Y-66535440D02*
X141869400Y-66446400D01*
X152947488Y-60777512D02*
X152975000Y-60750000D01*
X148675000Y-56675000D02*
X148675000Y-56461540D01*
X153650000Y-66175000D02*
X153650000Y-66061396D01*
X148675000Y-56461540D02*
X149517334Y-55619206D01*
X152975000Y-60750000D02*
X152975000Y-58609619D01*
X154446751Y-57350000D02*
X156823960Y-57350000D01*
X158125000Y-58438908D02*
X158125000Y-59758579D01*
X157269670Y-67550000D02*
X154728553Y-67550000D01*
X158725000Y-60275000D02*
X159594376Y-60275000D01*
X158275000Y-62550000D02*
X158275000Y-66933579D01*
X144665381Y-67775000D02*
X143025000Y-67775000D01*
X153199999Y-64975001D02*
G75*
G02*
X153650000Y-66061396I-1086399J-1086399D01*
G01*
X154446751Y-57349980D02*
G75*
G03*
X153300000Y-57825000I49J-1621820D01*
G01*
X157850012Y-57774988D02*
G75*
G03*
X156823960Y-57350000I-1026012J-1026012D01*
G01*
X145650000Y-65025000D02*
G75*
G02*
X146075000Y-64600000I425000J0D01*
G01*
X158175006Y-67175006D02*
G75*
G03*
X158275000Y-66933579I-241406J241406D01*
G01*
X144665381Y-67774991D02*
G75*
G03*
X145449999Y-67449999I19J1109591D01*
G01*
X152947493Y-60777517D02*
G75*
G02*
X152350000Y-61025000I-597493J597517D01*
G01*
X142299987Y-67575013D02*
G75*
G03*
X142782842Y-67775000I482813J482813D01*
G01*
X158124996Y-58438908D02*
G75*
G03*
X157850000Y-57775000I-938896J8D01*
G01*
X158224994Y-60000006D02*
G75*
G02*
X158125000Y-59758579I241406J241406D01*
G01*
X153649988Y-66175000D02*
G75*
G03*
X154109619Y-67284620I1569212J0D01*
G01*
X148675000Y-56675000D02*
G75*
G03*
X148629000Y-56721000I0J-46000D01*
G01*
X141950000Y-61575000D02*
G75*
G03*
X141869400Y-61655600I0J-80600D01*
G01*
X152350000Y-61024996D02*
G75*
G02*
X150888136Y-60419476I0J2067396D01*
G01*
X157269670Y-67549987D02*
G75*
G03*
X158175000Y-67175000I30J1280287D01*
G01*
X154125014Y-67299986D02*
G75*
G03*
X154728553Y-67550000I603586J603586D01*
G01*
X152294670Y-64600013D02*
G75*
G02*
X153200000Y-64975000I30J-1280287D01*
G01*
X158725000Y-60274999D02*
G75*
G02*
X158340900Y-60115900I0J543199D01*
G01*
X153299994Y-57824994D02*
G75*
G03*
X152975000Y-58609619I784606J-784606D01*
G01*
X160210007Y-60020007D02*
G75*
G02*
X159594376Y-60275000I-615607J615607D01*
G01*
X159600000Y-60630000D02*
G75*
G02*
X160210000Y-60020000I610000J0D01*
G01*
X145508570Y-67391413D02*
G75*
G03*
X145650000Y-67050000I-341370J341413D01*
G01*
X158950000Y-61875000D02*
G75*
G03*
X159600000Y-61225000I0J650000D01*
G01*
X141869384Y-66535440D02*
G75*
G03*
X142300000Y-67575000I1470216J40D01*
G01*
X158275000Y-62550000D02*
G75*
G02*
X158950000Y-61875000I675000J0D01*
G01*
%TO.N,/RXD*%
X148175000Y-57031760D02*
X146959120Y-55815880D01*
X144475000Y-64525000D02*
X144475000Y-66380800D01*
X148175000Y-58413446D02*
X148175000Y-57031760D01*
X151800000Y-61775000D02*
X151425000Y-61400000D01*
X150224441Y-60462887D02*
X148175000Y-58413446D01*
X151161554Y-61400000D02*
X150224441Y-60462887D01*
X150325000Y-63800000D02*
X145200000Y-63800000D01*
X151425000Y-61400000D02*
X151161554Y-61400000D01*
X144409400Y-66446400D02*
G75*
G03*
X144475000Y-66380800I0J65600D01*
G01*
X150325000Y-63800000D02*
G75*
G03*
X150500000Y-63625000I0J175000D01*
G01*
X144475000Y-64525000D02*
G75*
G02*
X145200000Y-63800000I725000J0D01*
G01*
X141980000Y-56595000D02*
G75*
G02*
X141950000Y-56565000I0J30000D01*
G01*
%TO.N,/DTR*%
X150198951Y-54198951D02*
X150272902Y-54125000D01*
X146925000Y-52550000D02*
X146925000Y-51446400D01*
X149650000Y-53025000D02*
X147400000Y-53025000D01*
X154272487Y-54475000D02*
X156431802Y-54475000D01*
X152274875Y-55302322D02*
X153409039Y-55302322D01*
X150812538Y-53839985D02*
X152274875Y-55302322D01*
X150275000Y-54125000D02*
X150275000Y-53650000D01*
X161900000Y-57290685D02*
X161900000Y-63911092D01*
X157275000Y-55700000D02*
X157588388Y-56013388D01*
X149163781Y-55234121D02*
X150198951Y-54198951D01*
X150272902Y-54125000D02*
X150275000Y-54125000D01*
X157175000Y-55182842D02*
X157175000Y-55458579D01*
X149163781Y-55265652D02*
X149163781Y-55234121D01*
X160357538Y-65100000D02*
X160210000Y-65100000D01*
X157857842Y-56125000D02*
X161017158Y-56125000D01*
X153831066Y-54668934D02*
X153850000Y-54650000D01*
X153475000Y-55275000D02*
X153654289Y-55095711D01*
X161900006Y-57290685D02*
G75*
G03*
X161500000Y-56325000I-1365706J-15D01*
G01*
X157274994Y-55700006D02*
G75*
G02*
X157175000Y-55458579I241406J241406D01*
G01*
X156974999Y-54700001D02*
G75*
G03*
X156431802Y-54475000I-543199J-543199D01*
G01*
X157857842Y-56124959D02*
G75*
G02*
X157588389Y-56013387I-42J381059D01*
G01*
X153831073Y-54668941D02*
G75*
G03*
X153725000Y-54925000I256027J-256059D01*
G01*
X149650000Y-53025000D02*
G75*
G02*
X150275000Y-53650000I0J-625000D01*
G01*
X157174982Y-55182842D02*
G75*
G03*
X156975000Y-54700000I-682782J42D01*
G01*
X153474989Y-55274989D02*
G75*
G02*
X153409039Y-55302322I-65989J65989D01*
G01*
X153725006Y-54925000D02*
G75*
G02*
X153654289Y-55095711I-241406J0D01*
G01*
X150812520Y-53840007D02*
G75*
G03*
X150275000Y-53650000I-541120J-675493D01*
G01*
X146925000Y-52550000D02*
G75*
G03*
X147400000Y-53025000I475000J0D01*
G01*
X146786600Y-51308000D02*
G75*
G02*
X146925000Y-51446400I0J-138400D01*
G01*
X161625003Y-64575003D02*
G75*
G03*
X161900000Y-63911092I-663903J663903D01*
G01*
X154272487Y-54474995D02*
G75*
G03*
X153850000Y-54650000I13J-597505D01*
G01*
X161500013Y-56324987D02*
G75*
G03*
X161017158Y-56125000I-482813J-482813D01*
G01*
X160357538Y-65100015D02*
G75*
G03*
X161625000Y-64575000I-38J1792515D01*
G01*
%TO.N,USBDM*%
X129769000Y-59628800D02*
X130676332Y-59628800D01*
X145300000Y-62475000D02*
X144500000Y-62475000D01*
X145489967Y-62475000D02*
X145300000Y-62475000D01*
X146441419Y-61523548D02*
X145489967Y-62475000D01*
%TO.N,USBDP*%
X144225000Y-61700000D02*
X144223744Y-61698743D01*
X135183579Y-59408578D02*
X135168413Y-59393413D01*
X134608236Y-59026667D02*
X129816867Y-59026667D01*
X145537667Y-61687667D02*
X145400334Y-61825000D01*
X143447685Y-60848000D02*
X135996948Y-60848000D01*
X145400334Y-61825000D02*
X144526776Y-61825000D01*
X135168413Y-59393413D02*
X135100000Y-59325000D01*
X143993934Y-61143934D02*
X143875000Y-61025000D01*
X129816867Y-59026667D02*
X129769000Y-58978800D01*
X135325000Y-59819670D02*
X135325000Y-59750000D01*
X144100005Y-61400000D02*
G75*
G03*
X144223744Y-61698743I422495J0D01*
G01*
X143447685Y-60848007D02*
G75*
G02*
X143875000Y-61025000I15J-604293D01*
G01*
X143993927Y-61143941D02*
G75*
G02*
X144100000Y-61400000I-256027J-256059D01*
G01*
X134608229Y-59026688D02*
G75*
G02*
X135099999Y-59325001I-378229J-1178012D01*
G01*
X135699965Y-60725035D02*
G75*
G03*
X135996948Y-60848000I296935J297035D01*
G01*
X144225007Y-61699993D02*
G75*
G03*
X144526776Y-61825000I301793J301793D01*
G01*
X135325013Y-59819670D02*
G75*
G03*
X135700000Y-60725000I1280287J-30D01*
G01*
X135183570Y-59408587D02*
G75*
G02*
X135325000Y-59750000I-341370J-341413D01*
G01*
%TO.N,/RTS*%
X148810227Y-54912099D02*
X148810227Y-54660227D01*
X148150000Y-53999973D02*
G75*
G02*
X148810227Y-54660227I0J-660227D01*
G01*
%TO.N,/PWREN*%
X157375000Y-51700000D02*
X157375000Y-50375000D01*
X156825000Y-49825000D02*
X150675000Y-49825000D01*
X156057600Y-52463200D02*
X156611800Y-52463200D01*
X144673652Y-59755781D02*
X145254433Y-59175000D01*
X149326600Y-51173400D02*
X149326600Y-51308000D01*
X145254433Y-59175000D02*
X145875000Y-59175000D01*
X156825000Y-49825000D02*
G75*
G02*
X157375000Y-50375000I0J-550000D01*
G01*
X149326600Y-51173400D02*
G75*
G02*
X150675000Y-49825000I1348400J0D01*
G01*
X157375000Y-51700000D02*
G75*
G02*
X156611800Y-52463200I-763200J0D01*
G01*
%TO.N,/R1*%
X146087866Y-55619206D02*
X146087866Y-55586679D01*
X145525593Y-54991878D02*
X145216715Y-54683000D01*
X143267000Y-54683000D02*
X143075000Y-54875000D01*
X145216715Y-54683000D02*
X143267000Y-54683000D01*
X146087866Y-55586679D02*
X145525593Y-55024406D01*
X145525593Y-55024406D02*
X145525593Y-54991878D01*
%TO.N,/DCD*%
X144673652Y-57033419D02*
X143990233Y-56350000D01*
X143990233Y-56350000D02*
X143375000Y-56350000D01*
%TD*%
%TA.AperFunction,Conductor*%
%TO.N,GND*%
G36*
X152274447Y-64983051D02*
G01*
X152284885Y-64984704D01*
X152294679Y-64986255D01*
X152304471Y-64984704D01*
X152314391Y-64984704D01*
X152314391Y-64984853D01*
X152329546Y-64984257D01*
X152385294Y-64988643D01*
X152425403Y-64991799D01*
X152444925Y-64994890D01*
X152562790Y-65023185D01*
X152581588Y-65029293D01*
X152693571Y-65075676D01*
X152711189Y-65084653D01*
X152750867Y-65108968D01*
X152798499Y-65161615D01*
X152810105Y-65231657D01*
X152782001Y-65296854D01*
X152723111Y-65336508D01*
X152685032Y-65342400D01*
X152301515Y-65342400D01*
X152286276Y-65346875D01*
X152285071Y-65348265D01*
X152283400Y-65355948D01*
X152283400Y-67532284D01*
X152287875Y-67547523D01*
X152289265Y-67548728D01*
X152296948Y-67550399D01*
X152898228Y-67550399D01*
X152910488Y-67549191D01*
X152966331Y-67538085D01*
X152988827Y-67528767D01*
X153052208Y-67486417D01*
X153069417Y-67469208D01*
X153111768Y-67405825D01*
X153121084Y-67383334D01*
X153132193Y-67327485D01*
X153133400Y-67315230D01*
X153133400Y-66862279D01*
X153153402Y-66794158D01*
X153207058Y-66747665D01*
X153277332Y-66737561D01*
X153341912Y-66767055D01*
X153378713Y-66821776D01*
X153413116Y-66923123D01*
X153414940Y-66926822D01*
X153414941Y-66926824D01*
X153459424Y-67017024D01*
X153526220Y-67152469D01*
X153528508Y-67155893D01*
X153528512Y-67155900D01*
X153601429Y-67265024D01*
X153668293Y-67365089D01*
X153832851Y-67552726D01*
X153836500Y-67557748D01*
X153844524Y-67563577D01*
X153846046Y-67565099D01*
X153851876Y-67573124D01*
X153859899Y-67578952D01*
X153860547Y-67579601D01*
X153865468Y-67583480D01*
X153996599Y-67695478D01*
X153996604Y-67695482D01*
X154000371Y-67698699D01*
X154166118Y-67800273D01*
X154345714Y-67874669D01*
X154350528Y-67875825D01*
X154352504Y-67876467D01*
X154411109Y-67916540D01*
X154438747Y-67981936D01*
X154426640Y-68051893D01*
X154378635Y-68104200D01*
X154313568Y-68122300D01*
X145584254Y-68122300D01*
X145516133Y-68102298D01*
X145469640Y-68048642D01*
X145459536Y-67978368D01*
X145489030Y-67913788D01*
X145514253Y-67891534D01*
X145530383Y-67880757D01*
X145575063Y-67850903D01*
X145666680Y-67770557D01*
X145671670Y-67766790D01*
X145672395Y-67766442D01*
X145676689Y-67762832D01*
X145682320Y-67757201D01*
X145688339Y-67751563D01*
X145691797Y-67748531D01*
X145705047Y-67736911D01*
X145714060Y-67729710D01*
X145715102Y-67728953D01*
X145715104Y-67728951D01*
X145723124Y-67723124D01*
X145728950Y-67715105D01*
X145728952Y-67715103D01*
X145735164Y-67706553D01*
X145748005Y-67691519D01*
X145750087Y-67689437D01*
X145765127Y-67676592D01*
X145773659Y-67670394D01*
X145773661Y-67670392D01*
X145781685Y-67664563D01*
X145789128Y-67654320D01*
X145794421Y-67647036D01*
X145800544Y-67639270D01*
X145865354Y-67563395D01*
X145865359Y-67563388D01*
X145868570Y-67559629D01*
X145939664Y-67443627D01*
X145971254Y-67367369D01*
X145989840Y-67322503D01*
X145989841Y-67322499D01*
X145991734Y-67317930D01*
X145992889Y-67313121D01*
X145993570Y-67311024D01*
X146033646Y-67252420D01*
X146099044Y-67224787D01*
X146169000Y-67236896D01*
X146201322Y-67259712D01*
X146251338Y-67308435D01*
X146420120Y-67421212D01*
X146425423Y-67423490D01*
X146425426Y-67423492D01*
X146514107Y-67461592D01*
X146606628Y-67501342D01*
X146679644Y-67517864D01*
X146798979Y-67544867D01*
X146798984Y-67544868D01*
X146804616Y-67546142D01*
X146810387Y-67546369D01*
X146810389Y-67546369D01*
X146869615Y-67548696D01*
X147007453Y-67554112D01*
X147117996Y-67538084D01*
X147202631Y-67525813D01*
X147202636Y-67525812D01*
X147208345Y-67524984D01*
X147213809Y-67523129D01*
X147213814Y-67523128D01*
X147395093Y-67461592D01*
X147395098Y-67461590D01*
X147400565Y-67459734D01*
X147407669Y-67455756D01*
X147476986Y-67416936D01*
X147577676Y-67360547D01*
X147583983Y-67355302D01*
X147729313Y-67234431D01*
X147733745Y-67230745D01*
X147791362Y-67161469D01*
X147859853Y-67079118D01*
X147859855Y-67079115D01*
X147863547Y-67074676D01*
X147926122Y-66962941D01*
X147959910Y-66902608D01*
X147959911Y-66902606D01*
X147962734Y-66897565D01*
X147964590Y-66892098D01*
X147964592Y-66892093D01*
X148026128Y-66710814D01*
X148026129Y-66710809D01*
X148027984Y-66705345D01*
X148028812Y-66699636D01*
X148028813Y-66699631D01*
X148056579Y-66508127D01*
X148057112Y-66504453D01*
X148058632Y-66446400D01*
X148055964Y-66417364D01*
X148380548Y-66417364D01*
X148380926Y-66423130D01*
X148392509Y-66599851D01*
X148393824Y-66619922D01*
X148395245Y-66625518D01*
X148395246Y-66625523D01*
X148430519Y-66764408D01*
X148443792Y-66816669D01*
X148446209Y-66821912D01*
X148481761Y-66899030D01*
X148528777Y-67001016D01*
X148543899Y-67022413D01*
X148640729Y-67159425D01*
X148645933Y-67166789D01*
X148650073Y-67170822D01*
X148650075Y-67170824D01*
X148665279Y-67185635D01*
X148791338Y-67308435D01*
X148960120Y-67421212D01*
X148965423Y-67423490D01*
X148965426Y-67423492D01*
X149054107Y-67461592D01*
X149146628Y-67501342D01*
X149219644Y-67517864D01*
X149338979Y-67544867D01*
X149338984Y-67544868D01*
X149344616Y-67546142D01*
X149350387Y-67546369D01*
X149350389Y-67546369D01*
X149409615Y-67548696D01*
X149547453Y-67554112D01*
X149657996Y-67538084D01*
X149742631Y-67525813D01*
X149742636Y-67525812D01*
X149748345Y-67524984D01*
X149753809Y-67523129D01*
X149753814Y-67523128D01*
X149935093Y-67461592D01*
X149935098Y-67461590D01*
X149940565Y-67459734D01*
X149947669Y-67455756D01*
X150016986Y-67416936D01*
X150117676Y-67360547D01*
X150123983Y-67355302D01*
X150172166Y-67315228D01*
X150925401Y-67315228D01*
X150926609Y-67327488D01*
X150937715Y-67383331D01*
X150947033Y-67405827D01*
X150989383Y-67469208D01*
X151006592Y-67486417D01*
X151069975Y-67528768D01*
X151092466Y-67538084D01*
X151148315Y-67549193D01*
X151160570Y-67550400D01*
X151757285Y-67550400D01*
X151772524Y-67545925D01*
X151773729Y-67544535D01*
X151775400Y-67536852D01*
X151775400Y-66718515D01*
X151770925Y-66703276D01*
X151769535Y-66702071D01*
X151761852Y-66700400D01*
X150943516Y-66700400D01*
X150928277Y-66704875D01*
X150927072Y-66706265D01*
X150925401Y-66713948D01*
X150925401Y-67315228D01*
X150172166Y-67315228D01*
X150269313Y-67234431D01*
X150273745Y-67230745D01*
X150331362Y-67161469D01*
X150399853Y-67079118D01*
X150399855Y-67079115D01*
X150403547Y-67074676D01*
X150466122Y-66962941D01*
X150499910Y-66902608D01*
X150499911Y-66902606D01*
X150502734Y-66897565D01*
X150504590Y-66892098D01*
X150504592Y-66892093D01*
X150566128Y-66710814D01*
X150566129Y-66710809D01*
X150567984Y-66705345D01*
X150568812Y-66699636D01*
X150568813Y-66699631D01*
X150596579Y-66508127D01*
X150597112Y-66504453D01*
X150598632Y-66446400D01*
X150585748Y-66306181D01*
X150580587Y-66250013D01*
X150580586Y-66250010D01*
X150580058Y-66244259D01*
X150576891Y-66233031D01*
X150560323Y-66174285D01*
X150925400Y-66174285D01*
X150929875Y-66189524D01*
X150931265Y-66190729D01*
X150938948Y-66192400D01*
X151757285Y-66192400D01*
X151772524Y-66187925D01*
X151773729Y-66186535D01*
X151775400Y-66178852D01*
X151775400Y-65360516D01*
X151770925Y-65345277D01*
X151769535Y-65344072D01*
X151761852Y-65342401D01*
X151160572Y-65342401D01*
X151148312Y-65343609D01*
X151092469Y-65354715D01*
X151069973Y-65364033D01*
X151006592Y-65406383D01*
X150989383Y-65423592D01*
X150947032Y-65486975D01*
X150937716Y-65509466D01*
X150926607Y-65565315D01*
X150925400Y-65577570D01*
X150925400Y-66174285D01*
X150560323Y-66174285D01*
X150526525Y-66054446D01*
X150526524Y-66054444D01*
X150524957Y-66048887D01*
X150522284Y-66043465D01*
X150437731Y-65872009D01*
X150435176Y-65866828D01*
X150427459Y-65856493D01*
X150393131Y-65810523D01*
X150313720Y-65704179D01*
X150164658Y-65566387D01*
X150159775Y-65563306D01*
X150159771Y-65563303D01*
X150008286Y-65467724D01*
X149992981Y-65458067D01*
X149804439Y-65382846D01*
X149798779Y-65381720D01*
X149798775Y-65381719D01*
X149611013Y-65344371D01*
X149611010Y-65344371D01*
X149605346Y-65343244D01*
X149599571Y-65343168D01*
X149599567Y-65343168D01*
X149498193Y-65341841D01*
X149402371Y-65340587D01*
X149396674Y-65341566D01*
X149396673Y-65341566D01*
X149265924Y-65364033D01*
X149202310Y-65374964D01*
X149011863Y-65445224D01*
X148837410Y-65549012D01*
X148833070Y-65552818D01*
X148833066Y-65552821D01*
X148722973Y-65649371D01*
X148684792Y-65682855D01*
X148559120Y-65842269D01*
X148556431Y-65847380D01*
X148556429Y-65847383D01*
X148535905Y-65886393D01*
X148464603Y-66021915D01*
X148417687Y-66173009D01*
X148406912Y-66207712D01*
X148404407Y-66215778D01*
X148380548Y-66417364D01*
X148055964Y-66417364D01*
X148045748Y-66306181D01*
X148040587Y-66250013D01*
X148040586Y-66250010D01*
X148040058Y-66244259D01*
X148036891Y-66233031D01*
X147986525Y-66054446D01*
X147986524Y-66054444D01*
X147984957Y-66048887D01*
X147982284Y-66043465D01*
X147897731Y-65872009D01*
X147895176Y-65866828D01*
X147887459Y-65856493D01*
X147853131Y-65810523D01*
X147773720Y-65704179D01*
X147624658Y-65566387D01*
X147619775Y-65563306D01*
X147619771Y-65563303D01*
X147468286Y-65467724D01*
X147452981Y-65458067D01*
X147264439Y-65382846D01*
X147258779Y-65381720D01*
X147258775Y-65381719D01*
X147071013Y-65344371D01*
X147071010Y-65344371D01*
X147065346Y-65343244D01*
X147059571Y-65343168D01*
X147059567Y-65343168D01*
X146958193Y-65341841D01*
X146862371Y-65340587D01*
X146856674Y-65341566D01*
X146856673Y-65341566D01*
X146725924Y-65364033D01*
X146662310Y-65374964D01*
X146471863Y-65445224D01*
X146297410Y-65549012D01*
X146293067Y-65552821D01*
X146293060Y-65552826D01*
X146240578Y-65598852D01*
X146176174Y-65628729D01*
X146105841Y-65619044D01*
X146051910Y-65572872D01*
X146031500Y-65504121D01*
X146031500Y-65107500D01*
X146051502Y-65039379D01*
X146105158Y-64992886D01*
X146157500Y-64981500D01*
X152254739Y-64981500D01*
X152274447Y-64983051D01*
G37*
%TD.AperFunction*%
%TA.AperFunction,Conductor*%
G36*
X127933793Y-49652102D02*
G01*
X127980286Y-49705758D01*
X127990390Y-49776032D01*
X127960896Y-49840612D01*
X127913892Y-49874508D01*
X127882257Y-49887612D01*
X127700204Y-49999175D01*
X127537843Y-50137843D01*
X127399175Y-50300204D01*
X127287612Y-50482257D01*
X127285719Y-50486827D01*
X127285718Y-50486829D01*
X127219778Y-50646023D01*
X127205902Y-50679522D01*
X127195209Y-50724063D01*
X127157212Y-50882327D01*
X127157211Y-50882333D01*
X127156057Y-50887140D01*
X127150753Y-50954530D01*
X127144932Y-51028491D01*
X127144352Y-51032452D01*
X127143984Y-51033502D01*
X127143500Y-51039091D01*
X127143500Y-51041805D01*
X127143473Y-51042430D01*
X127143112Y-51051627D01*
X127140686Y-51082458D01*
X127139858Y-51092973D01*
X127138745Y-51100000D01*
X127140296Y-51109792D01*
X127140296Y-51109793D01*
X127141949Y-51120229D01*
X127143500Y-51139940D01*
X127143500Y-51880413D01*
X127123498Y-51948534D01*
X127092360Y-51981764D01*
X126999990Y-52049990D01*
X126918791Y-52159924D01*
X126873507Y-52288873D01*
X126870500Y-52320685D01*
X126870501Y-52979314D01*
X126870780Y-52982262D01*
X126870780Y-52982271D01*
X126872204Y-52997339D01*
X126873507Y-53011127D01*
X126918791Y-53140076D01*
X126999990Y-53250010D01*
X127109924Y-53331209D01*
X127149568Y-53345131D01*
X127215514Y-53368290D01*
X127273159Y-53409733D01*
X127288664Y-53435459D01*
X127387024Y-53654007D01*
X127402750Y-53680021D01*
X127516136Y-53867585D01*
X127521991Y-53877271D01*
X127590628Y-53964880D01*
X127679653Y-54078511D01*
X127682886Y-54082638D01*
X127867362Y-54267114D01*
X127870362Y-54269464D01*
X127870365Y-54269467D01*
X127948471Y-54330659D01*
X128072729Y-54428009D01*
X128075981Y-54429975D01*
X128075984Y-54429977D01*
X128190997Y-54499504D01*
X128295993Y-54562976D01*
X128375128Y-54598592D01*
X128530421Y-54668484D01*
X128530427Y-54668486D01*
X128533897Y-54670048D01*
X128624096Y-54698155D01*
X128686866Y-54717715D01*
X128745952Y-54757078D01*
X128774377Y-54822136D01*
X128763117Y-54892234D01*
X128743332Y-54921970D01*
X128729791Y-54937122D01*
X128652155Y-55023997D01*
X128518139Y-55212873D01*
X128510412Y-55223763D01*
X128454680Y-55267745D01*
X128384016Y-55274613D01*
X128320857Y-55242188D01*
X128285254Y-55180763D01*
X128283472Y-55172189D01*
X128273487Y-55114080D01*
X128269381Y-55100130D01*
X128206271Y-54951813D01*
X128199071Y-54939188D01*
X128103533Y-54809367D01*
X128093619Y-54798736D01*
X127970775Y-54694372D01*
X127958687Y-54686310D01*
X127815129Y-54613005D01*
X127801504Y-54607938D01*
X127643284Y-54569223D01*
X127632225Y-54567540D01*
X127628679Y-54567320D01*
X127624801Y-54567200D01*
X127366115Y-54567200D01*
X127350876Y-54571675D01*
X127349671Y-54573065D01*
X127348000Y-54580748D01*
X127348000Y-56057085D01*
X127352475Y-56072324D01*
X127353865Y-56073529D01*
X127361548Y-56075200D01*
X127584363Y-56075200D01*
X127591667Y-56074775D01*
X127711366Y-56060820D01*
X127725519Y-56057475D01*
X127877030Y-56002479D01*
X127890029Y-55995969D01*
X127989856Y-55930520D01*
X128057791Y-55909897D01*
X128126092Y-55929277D01*
X128173072Y-55982506D01*
X128183161Y-56056999D01*
X128176962Y-56093484D01*
X128154575Y-56225235D01*
X128141316Y-56461294D01*
X128140746Y-56471437D01*
X128140297Y-56475632D01*
X128140297Y-56478369D01*
X128138745Y-56488166D01*
X128141895Y-56508053D01*
X128141949Y-56508397D01*
X128143500Y-56528106D01*
X128143500Y-57148800D01*
X128123498Y-57216921D01*
X128069842Y-57263414D01*
X128017500Y-57274800D01*
X127366115Y-57274800D01*
X127350876Y-57279275D01*
X127349671Y-57280665D01*
X127348000Y-57288348D01*
X127348000Y-60664684D01*
X127352475Y-60679923D01*
X127353865Y-60681128D01*
X127361548Y-60682799D01*
X128017500Y-60682799D01*
X128085621Y-60702801D01*
X128132114Y-60756457D01*
X128143500Y-60808799D01*
X128143500Y-60869256D01*
X128143021Y-60880236D01*
X128139549Y-60919923D01*
X128138745Y-60925000D01*
X128140296Y-60934792D01*
X128140296Y-60934793D01*
X128141949Y-60945229D01*
X128143500Y-60964940D01*
X128143500Y-61940865D01*
X128123498Y-62008986D01*
X128069842Y-62055479D01*
X127999568Y-62065583D01*
X127960199Y-62053082D01*
X127815129Y-61979005D01*
X127801504Y-61973938D01*
X127643284Y-61935223D01*
X127632225Y-61933540D01*
X127628679Y-61933320D01*
X127624801Y-61933200D01*
X127366115Y-61933200D01*
X127350876Y-61937675D01*
X127349671Y-61939065D01*
X127348000Y-61946748D01*
X127348000Y-63423085D01*
X127352475Y-63438324D01*
X127353865Y-63439529D01*
X127361548Y-63441200D01*
X127584363Y-63441200D01*
X127591667Y-63440775D01*
X127711366Y-63426820D01*
X127725519Y-63423475D01*
X127877030Y-63368479D01*
X127890029Y-63361969D01*
X127948415Y-63323690D01*
X128016350Y-63303067D01*
X128084651Y-63322447D01*
X128131631Y-63375676D01*
X128143500Y-63429062D01*
X128143500Y-64297560D01*
X128141949Y-64317271D01*
X128140297Y-64327704D01*
X128138745Y-64337500D01*
X128140297Y-64347295D01*
X128140297Y-64357212D01*
X128139280Y-64357212D01*
X128139613Y-64372003D01*
X128132063Y-64439017D01*
X128131272Y-64446034D01*
X128103769Y-64511487D01*
X128045245Y-64551680D01*
X127974282Y-64553853D01*
X127961131Y-64548632D01*
X127960853Y-64549372D01*
X127833919Y-64501786D01*
X127826066Y-64500933D01*
X127826062Y-64500932D01*
X127779452Y-64495869D01*
X127779448Y-64495869D01*
X127776053Y-64495500D01*
X127512539Y-64495500D01*
X127248948Y-64495501D01*
X127191081Y-64501786D01*
X127165204Y-64511487D01*
X127072551Y-64546221D01*
X127072548Y-64546222D01*
X127064147Y-64549372D01*
X126955670Y-64630670D01*
X126874372Y-64739147D01*
X126871222Y-64747548D01*
X126871221Y-64747551D01*
X126857683Y-64783664D01*
X126826786Y-64866081D01*
X126825933Y-64873934D01*
X126825932Y-64873938D01*
X126823080Y-64900195D01*
X126820500Y-64923947D01*
X126820501Y-65776052D01*
X126826786Y-65833919D01*
X126842641Y-65876211D01*
X126859724Y-65921779D01*
X126874372Y-65960853D01*
X126955670Y-66069330D01*
X127064147Y-66150628D01*
X127072548Y-66153778D01*
X127072551Y-66153779D01*
X127140930Y-66179413D01*
X127191081Y-66198214D01*
X127198934Y-66199067D01*
X127198938Y-66199068D01*
X127245548Y-66204131D01*
X127245552Y-66204131D01*
X127248947Y-66204500D01*
X127512461Y-66204500D01*
X127776052Y-66204499D01*
X127833919Y-66198214D01*
X127897749Y-66174285D01*
X127952449Y-66153779D01*
X127952452Y-66153778D01*
X127960853Y-66150628D01*
X128069330Y-66069330D01*
X128150628Y-65960853D01*
X128165277Y-65921779D01*
X128182359Y-65876211D01*
X128198214Y-65833919D01*
X128199067Y-65826066D01*
X128199068Y-65826062D01*
X128204131Y-65779452D01*
X128204131Y-65779448D01*
X128204500Y-65776053D01*
X128204500Y-65618928D01*
X128224502Y-65550807D01*
X128264665Y-65511495D01*
X128306515Y-65485849D01*
X128334407Y-65468757D01*
X128494949Y-65331641D01*
X128497499Y-65329463D01*
X128501255Y-65326255D01*
X128643757Y-65159407D01*
X128712067Y-65047935D01*
X128764715Y-65000304D01*
X128834756Y-64988697D01*
X128899954Y-65016800D01*
X128939608Y-65075690D01*
X128945500Y-65113770D01*
X128945501Y-65443226D01*
X128945501Y-65776052D01*
X128951786Y-65833919D01*
X128967641Y-65876211D01*
X128984724Y-65921779D01*
X128999372Y-65960853D01*
X129080670Y-66069330D01*
X129189147Y-66150628D01*
X129197548Y-66153778D01*
X129197551Y-66153779D01*
X129265930Y-66179413D01*
X129316081Y-66198214D01*
X129323934Y-66199067D01*
X129323938Y-66199068D01*
X129370548Y-66204131D01*
X129370552Y-66204131D01*
X129373947Y-66204500D01*
X129637461Y-66204500D01*
X129901052Y-66204499D01*
X129958919Y-66198214D01*
X130022749Y-66174285D01*
X130077449Y-66153779D01*
X130077452Y-66153778D01*
X130085853Y-66150628D01*
X130194330Y-66069330D01*
X130275628Y-65960853D01*
X130290277Y-65921779D01*
X130318064Y-65847656D01*
X130323214Y-65833919D01*
X130323888Y-65827715D01*
X130358742Y-65766706D01*
X130421698Y-65733887D01*
X130446106Y-65731500D01*
X131135060Y-65731500D01*
X131154771Y-65733051D01*
X131165206Y-65734704D01*
X131165208Y-65734704D01*
X131175000Y-65736255D01*
X131184796Y-65734703D01*
X131191068Y-65734703D01*
X131207518Y-65735781D01*
X131227293Y-65738385D01*
X131262886Y-65743071D01*
X131294656Y-65751584D01*
X131361228Y-65779159D01*
X131389714Y-65795606D01*
X131430061Y-65826565D01*
X131434047Y-65829624D01*
X131446441Y-65840494D01*
X131450851Y-65844904D01*
X131456681Y-65852929D01*
X131464704Y-65858758D01*
X131473256Y-65864972D01*
X131488288Y-65877811D01*
X131551997Y-65941519D01*
X131564834Y-65956550D01*
X131576876Y-65973124D01*
X131584899Y-65978953D01*
X131589340Y-65983394D01*
X131600199Y-65995775D01*
X131624491Y-66027433D01*
X131631594Y-66036690D01*
X131648039Y-66065174D01*
X131673975Y-66127789D01*
X131682488Y-66159559D01*
X131689219Y-66210680D01*
X131690297Y-66227132D01*
X131690297Y-66233403D01*
X131688745Y-66243199D01*
X131690296Y-66252990D01*
X131690296Y-66252993D01*
X131691949Y-66263428D01*
X131693500Y-66283139D01*
X131693500Y-66835060D01*
X131691949Y-66854771D01*
X131688745Y-66875000D01*
X131690296Y-66884793D01*
X131690995Y-66889207D01*
X131692158Y-66899029D01*
X131703178Y-67039044D01*
X131704332Y-67043851D01*
X131704333Y-67043857D01*
X131723711Y-67124568D01*
X131741592Y-67199049D01*
X131743482Y-67203611D01*
X131743482Y-67203612D01*
X131794794Y-67327488D01*
X131804564Y-67351075D01*
X131807152Y-67355299D01*
X131807154Y-67355302D01*
X131837607Y-67404996D01*
X131890543Y-67491378D01*
X131893766Y-67495151D01*
X131893767Y-67495153D01*
X131946214Y-67556560D01*
X131951444Y-67563582D01*
X131953015Y-67566854D01*
X131956624Y-67571148D01*
X131967173Y-67581697D01*
X131973886Y-67588958D01*
X131981722Y-67598132D01*
X131987853Y-67605909D01*
X131996333Y-67617581D01*
X132004353Y-67623408D01*
X132012899Y-67629617D01*
X132027933Y-67642457D01*
X132126997Y-67741520D01*
X132139837Y-67756554D01*
X132151876Y-67773124D01*
X132168381Y-67785115D01*
X132176115Y-67791211D01*
X132260248Y-67863068D01*
X132264466Y-67865653D01*
X132264472Y-67865657D01*
X132302348Y-67888866D01*
X132349980Y-67941513D01*
X132361588Y-68011554D01*
X132333486Y-68076752D01*
X132274596Y-68116407D01*
X132236515Y-68122300D01*
X126834276Y-68122300D01*
X126809697Y-68119879D01*
X126796800Y-68117314D01*
X126784628Y-68119735D01*
X126772220Y-68119735D01*
X126772220Y-68119270D01*
X126761394Y-68119979D01*
X126569716Y-68107416D01*
X126553376Y-68105265D01*
X126338276Y-68062479D01*
X126322355Y-68058213D01*
X126114679Y-67987716D01*
X126099453Y-67981409D01*
X125902758Y-67884410D01*
X125888485Y-67876169D01*
X125706134Y-67754327D01*
X125693057Y-67744294D01*
X125684639Y-67736911D01*
X125530890Y-67602077D01*
X125528166Y-67599688D01*
X125516512Y-67588034D01*
X125464536Y-67528767D01*
X125371903Y-67423139D01*
X125361873Y-67410066D01*
X125240031Y-67227715D01*
X125231790Y-67213442D01*
X125134791Y-67016747D01*
X125128484Y-67001521D01*
X125057987Y-66793845D01*
X125053721Y-66777924D01*
X125010935Y-66562824D01*
X125008784Y-66546484D01*
X124996221Y-66354806D01*
X124996930Y-66343980D01*
X124996465Y-66343980D01*
X124996465Y-66331572D01*
X124998886Y-66319400D01*
X124996257Y-66306181D01*
X124993836Y-66281817D01*
X124993654Y-66175000D01*
X124988151Y-62950256D01*
X125936484Y-62950256D01*
X125981729Y-63056588D01*
X125988929Y-63069212D01*
X126084467Y-63199033D01*
X126094381Y-63209664D01*
X126217225Y-63314028D01*
X126229313Y-63322090D01*
X126372871Y-63395395D01*
X126386496Y-63400462D01*
X126544716Y-63439177D01*
X126555775Y-63440860D01*
X126559321Y-63441080D01*
X126563199Y-63441200D01*
X126821885Y-63441200D01*
X126837124Y-63436725D01*
X126838329Y-63435335D01*
X126840000Y-63427652D01*
X126840000Y-62959315D01*
X126835525Y-62944076D01*
X126834135Y-62942871D01*
X126826452Y-62941200D01*
X125950746Y-62941200D01*
X125937215Y-62945173D01*
X125936484Y-62950256D01*
X124988151Y-62950256D01*
X124987263Y-62429964D01*
X125938209Y-62429964D01*
X125945139Y-62433200D01*
X126821885Y-62433200D01*
X126837124Y-62428725D01*
X126838329Y-62427335D01*
X126840000Y-62419652D01*
X126840000Y-61951315D01*
X126835525Y-61936076D01*
X126834135Y-61934871D01*
X126826452Y-61933200D01*
X126603637Y-61933200D01*
X126596333Y-61933625D01*
X126476634Y-61947580D01*
X126462481Y-61950925D01*
X126310970Y-62005921D01*
X126297971Y-62012431D01*
X126163174Y-62100808D01*
X126152022Y-62110132D01*
X126041172Y-62227147D01*
X126032460Y-62238792D01*
X125951506Y-62378166D01*
X125945706Y-62391504D01*
X125938329Y-62415862D01*
X125938209Y-62429964D01*
X124987263Y-62429964D01*
X124983880Y-60447628D01*
X125890001Y-60447628D01*
X125891209Y-60459888D01*
X125902315Y-60515731D01*
X125911633Y-60538227D01*
X125953983Y-60601608D01*
X125971192Y-60618817D01*
X126034575Y-60661168D01*
X126057066Y-60670484D01*
X126112915Y-60681593D01*
X126125170Y-60682800D01*
X126821885Y-60682800D01*
X126837124Y-60678325D01*
X126838329Y-60676935D01*
X126840000Y-60669252D01*
X126840000Y-59250915D01*
X126835525Y-59235676D01*
X126834135Y-59234471D01*
X126826452Y-59232800D01*
X125908116Y-59232800D01*
X125892877Y-59237275D01*
X125891672Y-59238665D01*
X125890001Y-59246348D01*
X125890001Y-60447628D01*
X124983880Y-60447628D01*
X124980909Y-58706685D01*
X125890000Y-58706685D01*
X125894475Y-58721924D01*
X125895865Y-58723129D01*
X125903548Y-58724800D01*
X126821885Y-58724800D01*
X126837124Y-58720325D01*
X126838329Y-58718935D01*
X126840000Y-58711252D01*
X126840000Y-57292916D01*
X126835525Y-57277677D01*
X126834135Y-57276472D01*
X126826452Y-57274801D01*
X126125172Y-57274801D01*
X126112912Y-57276009D01*
X126057069Y-57287115D01*
X126034573Y-57296433D01*
X125971192Y-57338783D01*
X125953983Y-57355992D01*
X125911632Y-57419375D01*
X125902316Y-57441866D01*
X125891207Y-57497715D01*
X125890000Y-57509969D01*
X125890000Y-58706685D01*
X124980909Y-58706685D01*
X124975581Y-55584256D01*
X125936484Y-55584256D01*
X125981729Y-55690588D01*
X125988929Y-55703212D01*
X126084467Y-55833033D01*
X126094381Y-55843664D01*
X126217225Y-55948028D01*
X126229313Y-55956090D01*
X126372871Y-56029395D01*
X126386496Y-56034462D01*
X126544716Y-56073177D01*
X126555775Y-56074860D01*
X126559321Y-56075080D01*
X126563199Y-56075200D01*
X126821885Y-56075200D01*
X126837124Y-56070725D01*
X126838329Y-56069335D01*
X126840000Y-56061652D01*
X126840000Y-55593315D01*
X126835525Y-55578076D01*
X126834135Y-55576871D01*
X126826452Y-55575200D01*
X125950746Y-55575200D01*
X125937215Y-55579173D01*
X125936484Y-55584256D01*
X124975581Y-55584256D01*
X124974693Y-55063964D01*
X125938209Y-55063964D01*
X125945139Y-55067200D01*
X126821885Y-55067200D01*
X126837124Y-55062725D01*
X126838329Y-55061335D01*
X126840000Y-55053652D01*
X126840000Y-54585315D01*
X126835525Y-54570076D01*
X126834135Y-54568871D01*
X126826452Y-54567200D01*
X126603637Y-54567200D01*
X126596333Y-54567625D01*
X126476634Y-54581580D01*
X126462481Y-54584925D01*
X126310970Y-54639921D01*
X126297971Y-54646431D01*
X126163174Y-54734808D01*
X126152022Y-54744132D01*
X126041172Y-54861147D01*
X126032460Y-54872792D01*
X125951506Y-55012166D01*
X125945706Y-55025504D01*
X125938329Y-55049862D01*
X125938209Y-55063964D01*
X124974693Y-55063964D01*
X124968564Y-51472364D01*
X124970986Y-51447569D01*
X124971065Y-51447172D01*
X124973486Y-51435000D01*
X124971065Y-51422828D01*
X124971065Y-51410420D01*
X124971530Y-51410420D01*
X124970821Y-51399594D01*
X124983384Y-51207916D01*
X124985535Y-51191576D01*
X125028321Y-50976476D01*
X125032587Y-50960555D01*
X125103084Y-50752879D01*
X125109391Y-50737653D01*
X125206390Y-50540958D01*
X125214631Y-50526685D01*
X125336473Y-50344334D01*
X125346506Y-50331257D01*
X125353969Y-50322748D01*
X125459698Y-50202187D01*
X125491112Y-50166366D01*
X125502766Y-50154712D01*
X125616248Y-50055191D01*
X125667661Y-50010103D01*
X125680734Y-50000073D01*
X125863085Y-49878231D01*
X125877358Y-49869990D01*
X126074053Y-49772991D01*
X126089279Y-49766684D01*
X126296955Y-49696187D01*
X126312876Y-49691921D01*
X126527976Y-49649135D01*
X126544316Y-49646984D01*
X126735994Y-49634421D01*
X126746820Y-49635130D01*
X126746820Y-49634665D01*
X126759228Y-49634665D01*
X126771400Y-49637086D01*
X126784297Y-49634521D01*
X126808876Y-49632100D01*
X127865672Y-49632100D01*
X127933793Y-49652102D01*
G37*
%TD.AperFunction*%
%TA.AperFunction,Conductor*%
G36*
X134559087Y-59417575D02*
G01*
X134606185Y-59436873D01*
X134623758Y-59445735D01*
X134721189Y-59504838D01*
X134737166Y-59516328D01*
X134804977Y-59573637D01*
X134815375Y-59584763D01*
X134815469Y-59584668D01*
X134822524Y-59591645D01*
X134828395Y-59599633D01*
X134836448Y-59605416D01*
X134836450Y-59605418D01*
X134843871Y-59610747D01*
X134859467Y-59623992D01*
X134885588Y-59650111D01*
X134898428Y-59665143D01*
X134910472Y-59681718D01*
X134909026Y-59682768D01*
X134937414Y-59734746D01*
X134938930Y-59748835D01*
X134938745Y-59750000D01*
X134939711Y-59756098D01*
X134941140Y-59765123D01*
X134941140Y-59804542D01*
X134938745Y-59819661D01*
X134940295Y-59829451D01*
X134940295Y-59830519D01*
X134941173Y-59838379D01*
X134953648Y-60028761D01*
X134954190Y-60037040D01*
X134956420Y-60048249D01*
X134959927Y-60065882D01*
X134956419Y-60105071D01*
X134968100Y-60119533D01*
X134975325Y-60143303D01*
X134987553Y-60204779D01*
X134996686Y-60250700D01*
X134998012Y-60254607D01*
X134998013Y-60254610D01*
X135048446Y-60403186D01*
X135066707Y-60456985D01*
X135068526Y-60460674D01*
X135068527Y-60460676D01*
X135075901Y-60475630D01*
X135163055Y-60652365D01*
X135284083Y-60833498D01*
X135415450Y-60983294D01*
X135419890Y-60988852D01*
X135420766Y-60989715D01*
X135426876Y-60998124D01*
X135426903Y-60998143D01*
X135426922Y-60998170D01*
X135445838Y-61011909D01*
X135453565Y-61017997D01*
X135524436Y-61078506D01*
X135528656Y-61081091D01*
X135528660Y-61081094D01*
X135570543Y-61106751D01*
X135632007Y-61144403D01*
X135636574Y-61146294D01*
X135636578Y-61146296D01*
X135743993Y-61190771D01*
X135743997Y-61190772D01*
X135748561Y-61192662D01*
X135753372Y-61193816D01*
X135753374Y-61193817D01*
X135761860Y-61195853D01*
X135871229Y-61222095D01*
X135912895Y-61225369D01*
X135925183Y-61227166D01*
X135930450Y-61229016D01*
X135936039Y-61229500D01*
X135957039Y-61229500D01*
X135976736Y-61231049D01*
X135978737Y-61231366D01*
X135987198Y-61232705D01*
X135987199Y-61232705D01*
X135996992Y-61234255D01*
X136017187Y-61231054D01*
X136036912Y-61229500D01*
X141094500Y-61229500D01*
X141162621Y-61249502D01*
X141209114Y-61303158D01*
X141220500Y-61355500D01*
X141220501Y-61594008D01*
X141220501Y-61829314D01*
X141220780Y-61832262D01*
X141220780Y-61832271D01*
X141222613Y-61851665D01*
X141223507Y-61861127D01*
X141268791Y-61990076D01*
X141349990Y-62100010D01*
X141370203Y-62114940D01*
X141436760Y-62164100D01*
X141479671Y-62220661D01*
X141487900Y-62265451D01*
X141487900Y-65321977D01*
X141467898Y-65390098D01*
X141414242Y-65436591D01*
X141405512Y-65440189D01*
X141391863Y-65445224D01*
X141217410Y-65549012D01*
X141213070Y-65552818D01*
X141213066Y-65552821D01*
X141102973Y-65649371D01*
X141064792Y-65682855D01*
X140939120Y-65842269D01*
X140936431Y-65847380D01*
X140936429Y-65847383D01*
X140915905Y-65886393D01*
X140844603Y-66021915D01*
X140797687Y-66173009D01*
X140786912Y-66207712D01*
X140784407Y-66215778D01*
X140760548Y-66417364D01*
X140760926Y-66423130D01*
X140772509Y-66599851D01*
X140773824Y-66619922D01*
X140775245Y-66625518D01*
X140775246Y-66625523D01*
X140810519Y-66764408D01*
X140823792Y-66816669D01*
X140826209Y-66821912D01*
X140861761Y-66899030D01*
X140908777Y-67001016D01*
X140923899Y-67022413D01*
X141020729Y-67159425D01*
X141025933Y-67166789D01*
X141030073Y-67170822D01*
X141030075Y-67170824D01*
X141045279Y-67185635D01*
X141171338Y-67308435D01*
X141340120Y-67421212D01*
X141345423Y-67423490D01*
X141345426Y-67423492D01*
X141434107Y-67461592D01*
X141526628Y-67501342D01*
X141622909Y-67523128D01*
X141718980Y-67544867D01*
X141718983Y-67544867D01*
X141724616Y-67546142D01*
X141730388Y-67546369D01*
X141736117Y-67547123D01*
X141735786Y-67549638D01*
X141792800Y-67568868D01*
X141825291Y-67602077D01*
X141830292Y-67609561D01*
X141867388Y-67665079D01*
X141870111Y-67668184D01*
X141894047Y-67695478D01*
X141986841Y-67801287D01*
X142018042Y-67836865D01*
X142018960Y-67838014D01*
X142019687Y-67838741D01*
X142021855Y-67841213D01*
X142026876Y-67848124D01*
X142034902Y-67853955D01*
X142034903Y-67853956D01*
X142037734Y-67856013D01*
X142045504Y-67862137D01*
X142090408Y-67900488D01*
X142129217Y-67959938D01*
X142129725Y-68030933D01*
X142091769Y-68090932D01*
X142027401Y-68120886D01*
X142008578Y-68122300D01*
X138968328Y-68122300D01*
X138900207Y-68102298D01*
X138853714Y-68048642D01*
X138843610Y-67978368D01*
X138873104Y-67913788D01*
X138902491Y-67888869D01*
X139045406Y-67801287D01*
X139049629Y-67798699D01*
X139140706Y-67720911D01*
X139145461Y-67717370D01*
X139147398Y-67716440D01*
X139151692Y-67712830D01*
X139157109Y-67707413D01*
X139164372Y-67700698D01*
X139175119Y-67691519D01*
X139184534Y-67683477D01*
X139189461Y-67679594D01*
X139190105Y-67678950D01*
X139198124Y-67673124D01*
X139203950Y-67665105D01*
X139206166Y-67662889D01*
X139214181Y-67657066D01*
X139220007Y-67649047D01*
X139221112Y-67647942D01*
X139224984Y-67643096D01*
X139266206Y-67596091D01*
X139326159Y-67558063D01*
X139365882Y-67553265D01*
X139376672Y-67553688D01*
X139387453Y-67554112D01*
X139497996Y-67538084D01*
X139582631Y-67525813D01*
X139582636Y-67525812D01*
X139588345Y-67524984D01*
X139593809Y-67523129D01*
X139593814Y-67523128D01*
X139775093Y-67461592D01*
X139775098Y-67461590D01*
X139780565Y-67459734D01*
X139787669Y-67455756D01*
X139856986Y-67416936D01*
X139957676Y-67360547D01*
X139963983Y-67355302D01*
X140109313Y-67234431D01*
X140113745Y-67230745D01*
X140171362Y-67161469D01*
X140239853Y-67079118D01*
X140239855Y-67079115D01*
X140243547Y-67074676D01*
X140306122Y-66962941D01*
X140339910Y-66902608D01*
X140339911Y-66902606D01*
X140342734Y-66897565D01*
X140344590Y-66892098D01*
X140344592Y-66892093D01*
X140406128Y-66710814D01*
X140406129Y-66710809D01*
X140407984Y-66705345D01*
X140408812Y-66699636D01*
X140408813Y-66699631D01*
X140436579Y-66508127D01*
X140437112Y-66504453D01*
X140438632Y-66446400D01*
X140425748Y-66306181D01*
X140420587Y-66250013D01*
X140420586Y-66250010D01*
X140420058Y-66244259D01*
X140416891Y-66233031D01*
X140366525Y-66054446D01*
X140366524Y-66054444D01*
X140364957Y-66048887D01*
X140362284Y-66043465D01*
X140277731Y-65872009D01*
X140275176Y-65866828D01*
X140267459Y-65856493D01*
X140233131Y-65810523D01*
X140153720Y-65704179D01*
X140004658Y-65566387D01*
X139999775Y-65563306D01*
X139999771Y-65563303D01*
X139848286Y-65467724D01*
X139832981Y-65458067D01*
X139680064Y-65397059D01*
X139624205Y-65353238D01*
X139608548Y-65322690D01*
X139608471Y-65322722D01*
X139608077Y-65321772D01*
X139607443Y-65320534D01*
X139606890Y-65318906D01*
X139606890Y-65318905D01*
X139605566Y-65315006D01*
X139601466Y-65306691D01*
X139547261Y-65196776D01*
X139523191Y-65147967D01*
X139419717Y-64993110D01*
X139312874Y-64871278D01*
X139305670Y-64862263D01*
X139303952Y-64859898D01*
X139298124Y-64851876D01*
X139290101Y-64846047D01*
X139290100Y-64846046D01*
X139289137Y-64845347D01*
X139280121Y-64838143D01*
X139153171Y-64726811D01*
X139153169Y-64726809D01*
X139150068Y-64724090D01*
X138987542Y-64615495D01*
X138959537Y-64601685D01*
X138815932Y-64530867D01*
X138815924Y-64530864D01*
X138812232Y-64529043D01*
X138800322Y-64525000D01*
X138752021Y-64508605D01*
X138627137Y-64466214D01*
X138623095Y-64465410D01*
X138623091Y-64465409D01*
X138439468Y-64428886D01*
X138439463Y-64428885D01*
X138435424Y-64428082D01*
X138431312Y-64427813D01*
X138431308Y-64427812D01*
X138354489Y-64422778D01*
X138313830Y-64420114D01*
X138307632Y-64419248D01*
X138306879Y-64418984D01*
X138301290Y-64418500D01*
X138293316Y-64418500D01*
X138285105Y-64418232D01*
X138262872Y-64416775D01*
X138251447Y-64415498D01*
X138240374Y-64413745D01*
X138220152Y-64416948D01*
X138200441Y-64418500D01*
X137258139Y-64418500D01*
X137238428Y-64416949D01*
X137227993Y-64415296D01*
X137227991Y-64415296D01*
X137218199Y-64413745D01*
X137208403Y-64415297D01*
X137202132Y-64415297D01*
X137185680Y-64414219D01*
X137134559Y-64407488D01*
X137102789Y-64398975D01*
X137040174Y-64373039D01*
X137011688Y-64356592D01*
X136970775Y-64325198D01*
X136958429Y-64314377D01*
X136953970Y-64309923D01*
X136948124Y-64301876D01*
X136947924Y-64301731D01*
X136940024Y-64295991D01*
X136933032Y-64289006D01*
X136933497Y-64288540D01*
X136922693Y-64278353D01*
X136883310Y-64230365D01*
X136869587Y-64209827D01*
X136829781Y-64135355D01*
X136820329Y-64112535D01*
X136795812Y-64031714D01*
X136790993Y-64007486D01*
X136790612Y-64003610D01*
X136787569Y-63972714D01*
X136784908Y-63945695D01*
X136785346Y-63930805D01*
X136784703Y-63930805D01*
X136784703Y-63920891D01*
X136786255Y-63911095D01*
X136784030Y-63897043D01*
X136783051Y-63890865D01*
X136781500Y-63871155D01*
X136781500Y-63579972D01*
X136801502Y-63511851D01*
X136855158Y-63465358D01*
X136897796Y-63454869D01*
X136897756Y-63454500D01*
X136943596Y-63449520D01*
X136951597Y-63448651D01*
X136951598Y-63448651D01*
X136959448Y-63447798D01*
X136966841Y-63445026D01*
X136966843Y-63445026D01*
X137013188Y-63427652D01*
X137094764Y-63397071D01*
X137101943Y-63391691D01*
X137101946Y-63391689D01*
X137203224Y-63315785D01*
X137210404Y-63310404D01*
X137236436Y-63275669D01*
X137291689Y-63201946D01*
X137291691Y-63201943D01*
X137297071Y-63194764D01*
X137339445Y-63081729D01*
X137345026Y-63066843D01*
X137345026Y-63066841D01*
X137347798Y-63059448D01*
X137354500Y-62997756D01*
X137354500Y-62994292D01*
X138146001Y-62994292D01*
X138146370Y-63001110D01*
X138151841Y-63051482D01*
X138155470Y-63066741D01*
X138200222Y-63186118D01*
X138208754Y-63201704D01*
X138284572Y-63302867D01*
X138297133Y-63315428D01*
X138398296Y-63391246D01*
X138413882Y-63399778D01*
X138533265Y-63444533D01*
X138548510Y-63448158D01*
X138598892Y-63453631D01*
X138605706Y-63454000D01*
X138827885Y-63454000D01*
X138843124Y-63449525D01*
X138844329Y-63448135D01*
X138846000Y-63440452D01*
X138846000Y-63435884D01*
X139354000Y-63435884D01*
X139358475Y-63451123D01*
X139359865Y-63452328D01*
X139367548Y-63453999D01*
X139594292Y-63453999D01*
X139601110Y-63453630D01*
X139651482Y-63448159D01*
X139666741Y-63444530D01*
X139786118Y-63399778D01*
X139801704Y-63391246D01*
X139902867Y-63315428D01*
X139915428Y-63302867D01*
X139991246Y-63201704D01*
X139999778Y-63186118D01*
X140044533Y-63066735D01*
X140048158Y-63051490D01*
X140053631Y-63001108D01*
X140054000Y-62994294D01*
X140054000Y-62797115D01*
X140049525Y-62781876D01*
X140048135Y-62780671D01*
X140040452Y-62779000D01*
X139372115Y-62779000D01*
X139356876Y-62783475D01*
X139355671Y-62784865D01*
X139354000Y-62792548D01*
X139354000Y-63435884D01*
X138846000Y-63435884D01*
X138846000Y-62797115D01*
X138841525Y-62781876D01*
X138840135Y-62780671D01*
X138832452Y-62779000D01*
X138164116Y-62779000D01*
X138148877Y-62783475D01*
X138147672Y-62784865D01*
X138146001Y-62792548D01*
X138146001Y-62994292D01*
X137354500Y-62994292D01*
X137354500Y-62252885D01*
X138146000Y-62252885D01*
X138150475Y-62268124D01*
X138151865Y-62269329D01*
X138159548Y-62271000D01*
X138827885Y-62271000D01*
X138843124Y-62266525D01*
X138844329Y-62265135D01*
X138846000Y-62257452D01*
X138846000Y-62252885D01*
X139354000Y-62252885D01*
X139358475Y-62268124D01*
X139359865Y-62269329D01*
X139367548Y-62271000D01*
X140035884Y-62271000D01*
X140051123Y-62266525D01*
X140052328Y-62265135D01*
X140053999Y-62257452D01*
X140053999Y-62055708D01*
X140053630Y-62048890D01*
X140048159Y-61998518D01*
X140044530Y-61983259D01*
X139999778Y-61863882D01*
X139991246Y-61848296D01*
X139915428Y-61747133D01*
X139902867Y-61734572D01*
X139801704Y-61658754D01*
X139786118Y-61650222D01*
X139666735Y-61605467D01*
X139651490Y-61601842D01*
X139601108Y-61596369D01*
X139594294Y-61596000D01*
X139372115Y-61596000D01*
X139356876Y-61600475D01*
X139355671Y-61601865D01*
X139354000Y-61609548D01*
X139354000Y-62252885D01*
X138846000Y-62252885D01*
X138846000Y-61614116D01*
X138841525Y-61598877D01*
X138840135Y-61597672D01*
X138832452Y-61596001D01*
X138605708Y-61596001D01*
X138598890Y-61596370D01*
X138548518Y-61601841D01*
X138533259Y-61605470D01*
X138413882Y-61650222D01*
X138398296Y-61658754D01*
X138297133Y-61734572D01*
X138284572Y-61747133D01*
X138208754Y-61848296D01*
X138200222Y-61863882D01*
X138155467Y-61983265D01*
X138151842Y-61998510D01*
X138146369Y-62048892D01*
X138146000Y-62055706D01*
X138146000Y-62252885D01*
X137354500Y-62252885D01*
X137354500Y-62052244D01*
X137352422Y-62033114D01*
X137348651Y-61998403D01*
X137348651Y-61998402D01*
X137347798Y-61990552D01*
X137342987Y-61977717D01*
X137323538Y-61925838D01*
X137297071Y-61855236D01*
X137291691Y-61848057D01*
X137291689Y-61848054D01*
X137215785Y-61746776D01*
X137210404Y-61739596D01*
X137164491Y-61705186D01*
X137101946Y-61658311D01*
X137101943Y-61658309D01*
X137094764Y-61652929D01*
X136968166Y-61605470D01*
X136966843Y-61604974D01*
X136966841Y-61604974D01*
X136959448Y-61602202D01*
X136951598Y-61601349D01*
X136951597Y-61601349D01*
X136901153Y-61595869D01*
X136901152Y-61595869D01*
X136897756Y-61595500D01*
X135902244Y-61595500D01*
X135898848Y-61595869D01*
X135898847Y-61595869D01*
X135848403Y-61601349D01*
X135848402Y-61601349D01*
X135840552Y-61602202D01*
X135833159Y-61604974D01*
X135833157Y-61604974D01*
X135713643Y-61649777D01*
X135713641Y-61649778D01*
X135705236Y-61652929D01*
X135698055Y-61658311D01*
X135698046Y-61658316D01*
X135696673Y-61659345D01*
X135695078Y-61659941D01*
X135690177Y-61662624D01*
X135689790Y-61661917D01*
X135630166Y-61684191D01*
X135600006Y-61682737D01*
X135565668Y-61676903D01*
X135427111Y-61653362D01*
X135353177Y-61649210D01*
X135259947Y-61643974D01*
X135256737Y-61643745D01*
X135256527Y-61643736D01*
X135253803Y-61643500D01*
X135252865Y-61643500D01*
X135251527Y-61643043D01*
X135251501Y-61643500D01*
X135239256Y-61642812D01*
X135213567Y-61641370D01*
X135203530Y-61640296D01*
X135202687Y-61640296D01*
X135192893Y-61638745D01*
X135183101Y-61640296D01*
X135183100Y-61640296D01*
X135172664Y-61641949D01*
X135152953Y-61643500D01*
X134789813Y-61643500D01*
X134721692Y-61623498D01*
X134679291Y-61578005D01*
X134678069Y-61575772D01*
X134674917Y-61567365D01*
X134592544Y-61457456D01*
X134551040Y-61426350D01*
X134489817Y-61380465D01*
X134489814Y-61380463D01*
X134482635Y-61375083D01*
X134462980Y-61367715D01*
X134406216Y-61325073D01*
X134381516Y-61258512D01*
X134396724Y-61189163D01*
X134447010Y-61139045D01*
X134462982Y-61131751D01*
X134473986Y-61127626D01*
X134489575Y-61119092D01*
X134585010Y-61047566D01*
X134597566Y-61035010D01*
X134669092Y-60939575D01*
X134677625Y-60923988D01*
X134719865Y-60811311D01*
X134723490Y-60796066D01*
X134728631Y-60748741D01*
X134728763Y-60746307D01*
X134724525Y-60731876D01*
X134723135Y-60730671D01*
X134715452Y-60729000D01*
X133289115Y-60729000D01*
X133273876Y-60733475D01*
X133272671Y-60734865D01*
X133271027Y-60742424D01*
X133271369Y-60748741D01*
X133276510Y-60796066D01*
X133280135Y-60811311D01*
X133322375Y-60923988D01*
X133330908Y-60939575D01*
X133402434Y-61035010D01*
X133414990Y-61047566D01*
X133510425Y-61119092D01*
X133526014Y-61127626D01*
X133537018Y-61131751D01*
X133593783Y-61174391D01*
X133618484Y-61240953D01*
X133603277Y-61310302D01*
X133552992Y-61360421D01*
X133537022Y-61367714D01*
X133517365Y-61375083D01*
X133510186Y-61380463D01*
X133510183Y-61380465D01*
X133448960Y-61426350D01*
X133407456Y-61457456D01*
X133402077Y-61464633D01*
X133330465Y-61560183D01*
X133330463Y-61560186D01*
X133325083Y-61567365D01*
X133321933Y-61575769D01*
X133321932Y-61575770D01*
X133290243Y-61660304D01*
X133276870Y-61695976D01*
X133276017Y-61703826D01*
X133276017Y-61703827D01*
X133272716Y-61734215D01*
X133270500Y-61754611D01*
X133270501Y-62295388D01*
X133270870Y-62298782D01*
X133270870Y-62298788D01*
X133275742Y-62343635D01*
X133276870Y-62354024D01*
X133304874Y-62428725D01*
X133320964Y-62471646D01*
X133325083Y-62482635D01*
X133330463Y-62489814D01*
X133330465Y-62489817D01*
X133388719Y-62567544D01*
X133407456Y-62592544D01*
X133414633Y-62597923D01*
X133510183Y-62669535D01*
X133510186Y-62669537D01*
X133517365Y-62674917D01*
X133525769Y-62678067D01*
X133525770Y-62678068D01*
X133638581Y-62720358D01*
X133638582Y-62720358D01*
X133645976Y-62723130D01*
X133653826Y-62723983D01*
X133653827Y-62723983D01*
X133701205Y-62729130D01*
X133704611Y-62729500D01*
X133999956Y-62729500D01*
X134295388Y-62729499D01*
X134298782Y-62729130D01*
X134298788Y-62729130D01*
X134346166Y-62723984D01*
X134346170Y-62723983D01*
X134354024Y-62723130D01*
X134482635Y-62674917D01*
X134489814Y-62669537D01*
X134489817Y-62669535D01*
X134585367Y-62597923D01*
X134592544Y-62592544D01*
X134674917Y-62482635D01*
X134678069Y-62474228D01*
X134679291Y-62471995D01*
X134729548Y-62421847D01*
X134789813Y-62406500D01*
X135152955Y-62406500D01*
X135172666Y-62408051D01*
X135183102Y-62409704D01*
X135183103Y-62409704D01*
X135192895Y-62411255D01*
X135202688Y-62409704D01*
X135208725Y-62409704D01*
X135228177Y-62408813D01*
X135327740Y-62415338D01*
X135394407Y-62439752D01*
X135437291Y-62496333D01*
X135445500Y-62541068D01*
X135445500Y-62997756D01*
X135452202Y-63059448D01*
X135454974Y-63066841D01*
X135454974Y-63066843D01*
X135460555Y-63081729D01*
X135502929Y-63194764D01*
X135508309Y-63201943D01*
X135508311Y-63201946D01*
X135563564Y-63275669D01*
X135589596Y-63310404D01*
X135596776Y-63315785D01*
X135698054Y-63391689D01*
X135698057Y-63391691D01*
X135705236Y-63397071D01*
X135786812Y-63427652D01*
X135833157Y-63445026D01*
X135833159Y-63445026D01*
X135840552Y-63447798D01*
X135848402Y-63448651D01*
X135848403Y-63448651D01*
X135856404Y-63449520D01*
X135899405Y-63454192D01*
X135899406Y-63454192D01*
X135902244Y-63454500D01*
X135902171Y-63455169D01*
X135966246Y-63477808D01*
X136009773Y-63533896D01*
X136018500Y-63579972D01*
X136018500Y-63871149D01*
X136016949Y-63890861D01*
X136016812Y-63891729D01*
X136013745Y-63911089D01*
X136016122Y-63926094D01*
X136017401Y-63937548D01*
X136018500Y-63954313D01*
X136021130Y-63994448D01*
X136005625Y-64063731D01*
X135955124Y-64113633D01*
X135885661Y-64128310D01*
X135819290Y-64103103D01*
X135806305Y-64091782D01*
X135723006Y-64008483D01*
X135710164Y-63993448D01*
X135703950Y-63984895D01*
X135698124Y-63976876D01*
X135690104Y-63971049D01*
X135684048Y-63966649D01*
X135678179Y-63962114D01*
X135591946Y-63891346D01*
X135591940Y-63891342D01*
X135587156Y-63887416D01*
X135556733Y-63871155D01*
X135467023Y-63823207D01*
X135467024Y-63823207D01*
X135461560Y-63820287D01*
X135455636Y-63818490D01*
X135455633Y-63818489D01*
X135331202Y-63780749D01*
X135331201Y-63780749D01*
X135325280Y-63778953D01*
X135270490Y-63773560D01*
X135257184Y-63771480D01*
X135250077Y-63768984D01*
X135244488Y-63768500D01*
X135225278Y-63768500D01*
X135212947Y-63767895D01*
X135208226Y-63767431D01*
X135200896Y-63766491D01*
X135183555Y-63763745D01*
X135173766Y-63765296D01*
X135173763Y-63765296D01*
X135163340Y-63766948D01*
X135143622Y-63768500D01*
X132802055Y-63768500D01*
X132782351Y-63766950D01*
X132778467Y-63766335D01*
X132762108Y-63763745D01*
X132758314Y-63764346D01*
X132693431Y-63745302D01*
X132676725Y-63731833D01*
X132673124Y-63726876D01*
X132669961Y-63724578D01*
X132637568Y-63665169D01*
X132635294Y-63643958D01*
X132636255Y-63637892D01*
X132634698Y-63628052D01*
X132633050Y-63617649D01*
X132631500Y-63597945D01*
X132631500Y-62775158D01*
X132651502Y-62707037D01*
X132705158Y-62660544D01*
X132713272Y-62657176D01*
X132724228Y-62653069D01*
X132724230Y-62653068D01*
X132732635Y-62649917D01*
X132739814Y-62644537D01*
X132739817Y-62644535D01*
X132835367Y-62572923D01*
X132842544Y-62567544D01*
X132850635Y-62556748D01*
X132919535Y-62464817D01*
X132919537Y-62464814D01*
X132924917Y-62457635D01*
X132943505Y-62408051D01*
X132970358Y-62336419D01*
X132970358Y-62336418D01*
X132973130Y-62329024D01*
X132975062Y-62311245D01*
X132979131Y-62273786D01*
X132979131Y-62273785D01*
X132979500Y-62270389D01*
X132979499Y-61729612D01*
X132976846Y-61705186D01*
X132973984Y-61678834D01*
X132973983Y-61678830D01*
X132973130Y-61670976D01*
X132924917Y-61542365D01*
X132919537Y-61535186D01*
X132919535Y-61535183D01*
X132847923Y-61439633D01*
X132842544Y-61432456D01*
X132817293Y-61413531D01*
X132739817Y-61355465D01*
X132739814Y-61355463D01*
X132732635Y-61350083D01*
X132712980Y-61342715D01*
X132656216Y-61300073D01*
X132631516Y-61233512D01*
X132646724Y-61164163D01*
X132697010Y-61114045D01*
X132712982Y-61106751D01*
X132723986Y-61102626D01*
X132739575Y-61094092D01*
X132835010Y-61022566D01*
X132847566Y-61010010D01*
X132919092Y-60914575D01*
X132927625Y-60898988D01*
X132969865Y-60786311D01*
X132973490Y-60771066D01*
X132978631Y-60723741D01*
X132978763Y-60721307D01*
X132974525Y-60706876D01*
X132973135Y-60705671D01*
X132965452Y-60704000D01*
X131539115Y-60704000D01*
X131523876Y-60708475D01*
X131522671Y-60709865D01*
X131521027Y-60717424D01*
X131521369Y-60723741D01*
X131526510Y-60771066D01*
X131530135Y-60786311D01*
X131572375Y-60898988D01*
X131580908Y-60914575D01*
X131652434Y-61010010D01*
X131664990Y-61022566D01*
X131760425Y-61094092D01*
X131776014Y-61102626D01*
X131787018Y-61106751D01*
X131843783Y-61149391D01*
X131868484Y-61215953D01*
X131853277Y-61285302D01*
X131802992Y-61335421D01*
X131787022Y-61342714D01*
X131767365Y-61350083D01*
X131760186Y-61355463D01*
X131760183Y-61355465D01*
X131682707Y-61413531D01*
X131657456Y-61432456D01*
X131652077Y-61439633D01*
X131580465Y-61535183D01*
X131580463Y-61535186D01*
X131575083Y-61542365D01*
X131571933Y-61550769D01*
X131571932Y-61550770D01*
X131530871Y-61660304D01*
X131526870Y-61670976D01*
X131526017Y-61678826D01*
X131526017Y-61678827D01*
X131523301Y-61703827D01*
X131520500Y-61729611D01*
X131520501Y-62270388D01*
X131520870Y-62273782D01*
X131520870Y-62273788D01*
X131525530Y-62316686D01*
X131526870Y-62329024D01*
X131575083Y-62457635D01*
X131580463Y-62464814D01*
X131580465Y-62464817D01*
X131649365Y-62556748D01*
X131657456Y-62567544D01*
X131664633Y-62572923D01*
X131760183Y-62644535D01*
X131760186Y-62644537D01*
X131767365Y-62649917D01*
X131775770Y-62653068D01*
X131775772Y-62653069D01*
X131786728Y-62657176D01*
X131843493Y-62699816D01*
X131868194Y-62766378D01*
X131868500Y-62775158D01*
X131868500Y-63597911D01*
X131866948Y-63617629D01*
X131865296Y-63628052D01*
X131865296Y-63628055D01*
X131863745Y-63637844D01*
X131865296Y-63647640D01*
X131866929Y-63657959D01*
X131868091Y-63667780D01*
X131871821Y-63715206D01*
X131876766Y-63778078D01*
X131877920Y-63782886D01*
X131877921Y-63782892D01*
X131906342Y-63901295D01*
X131909598Y-63914859D01*
X131925670Y-63953663D01*
X131959957Y-64036446D01*
X131963425Y-64044820D01*
X131966011Y-64049041D01*
X131966012Y-64049042D01*
X132033819Y-64159697D01*
X132036921Y-64164760D01*
X132100163Y-64238808D01*
X132108879Y-64249013D01*
X132114997Y-64256774D01*
X132126876Y-64273124D01*
X132140737Y-64283194D01*
X132143364Y-64285103D01*
X132151115Y-64291211D01*
X132235248Y-64363068D01*
X132284041Y-64392967D01*
X132350790Y-64433869D01*
X132355186Y-64436563D01*
X132359760Y-64438457D01*
X132359761Y-64438458D01*
X132480564Y-64488492D01*
X132480568Y-64488493D01*
X132485145Y-64490389D01*
X132489960Y-64491545D01*
X132489964Y-64491546D01*
X132617107Y-64522064D01*
X132617110Y-64522064D01*
X132621924Y-64523220D01*
X132657881Y-64526048D01*
X132680043Y-64527791D01*
X132691026Y-64529398D01*
X132695634Y-64531016D01*
X132701223Y-64531500D01*
X132722209Y-64531500D01*
X132741913Y-64533050D01*
X132762156Y-64536255D01*
X132771945Y-64534704D01*
X132771948Y-64534704D01*
X132782371Y-64533052D01*
X132802089Y-64531500D01*
X135114788Y-64531500D01*
X135182909Y-64551502D01*
X135203883Y-64568405D01*
X135335560Y-64700082D01*
X135348401Y-64715117D01*
X135360432Y-64731679D01*
X135359004Y-64732717D01*
X135387419Y-64784765D01*
X135388931Y-64798829D01*
X135388745Y-64800000D01*
X135389713Y-64806109D01*
X135391949Y-64820229D01*
X135393500Y-64839940D01*
X135393500Y-65533299D01*
X135391950Y-65553003D01*
X135388745Y-65573246D01*
X135390296Y-65583035D01*
X135390296Y-65583037D01*
X135392456Y-65596667D01*
X135393619Y-65606489D01*
X135400989Y-65700073D01*
X135414839Y-65757752D01*
X135411294Y-65828658D01*
X135369977Y-65886393D01*
X135304004Y-65912625D01*
X135234322Y-65899026D01*
X135191363Y-65862557D01*
X135076800Y-65709139D01*
X135069110Y-65700599D01*
X134928592Y-65570704D01*
X134919467Y-65563703D01*
X134757636Y-65461595D01*
X134747389Y-65456374D01*
X134569660Y-65385468D01*
X134558632Y-65382201D01*
X134521169Y-65374750D01*
X134508294Y-65375902D01*
X134503400Y-65391058D01*
X134503400Y-66174285D01*
X134507875Y-66189524D01*
X134509265Y-66190729D01*
X134516948Y-66192400D01*
X135306798Y-66192400D01*
X135320329Y-66188427D01*
X135321498Y-66180292D01*
X135309281Y-66136973D01*
X135310041Y-66065981D01*
X135349062Y-66006669D01*
X135413955Y-65977870D01*
X135484117Y-65988726D01*
X135537981Y-66036935D01*
X135541983Y-66043465D01*
X135545855Y-66049783D01*
X135573763Y-66082458D01*
X135581148Y-66092374D01*
X135583560Y-66097398D01*
X135587170Y-66101692D01*
X135601991Y-66116513D01*
X135614833Y-66131548D01*
X135626876Y-66148124D01*
X135634895Y-66153950D01*
X135643452Y-66160167D01*
X135658487Y-66173009D01*
X135660859Y-66175381D01*
X135694885Y-66237693D01*
X135696891Y-66279285D01*
X135680548Y-66417364D01*
X135680926Y-66423130D01*
X135692509Y-66599851D01*
X135693824Y-66619922D01*
X135695245Y-66625518D01*
X135695246Y-66625523D01*
X135730519Y-66764408D01*
X135743792Y-66816669D01*
X135746209Y-66821912D01*
X135781761Y-66899030D01*
X135828777Y-67001016D01*
X135832107Y-67005728D01*
X135832110Y-67005733D01*
X135877374Y-67069780D01*
X135900355Y-67136955D01*
X135883370Y-67205890D01*
X135831813Y-67254699D01*
X135774477Y-67268500D01*
X135268572Y-67268500D01*
X135200451Y-67248498D01*
X135153958Y-67194842D01*
X135143854Y-67124568D01*
X135163400Y-67074542D01*
X135163133Y-67074392D01*
X135164209Y-67072470D01*
X135164731Y-67071135D01*
X135165952Y-67069359D01*
X135259456Y-66902394D01*
X135264130Y-66891897D01*
X135324843Y-66713044D01*
X135323610Y-66704393D01*
X135310042Y-66700400D01*
X133192894Y-66700400D01*
X133179363Y-66704373D01*
X133178071Y-66713362D01*
X133202843Y-66810902D01*
X133206684Y-66821748D01*
X133286794Y-66995520D01*
X133292545Y-67005481D01*
X133337987Y-67069780D01*
X133360968Y-67136954D01*
X133343984Y-67205889D01*
X133292426Y-67254699D01*
X133235090Y-67268500D01*
X132827055Y-67268500D01*
X132807351Y-67266950D01*
X132803467Y-67266335D01*
X132787108Y-67263745D01*
X132783314Y-67264346D01*
X132718432Y-67245302D01*
X132701737Y-67231849D01*
X132698124Y-67226876D01*
X132681555Y-67214838D01*
X132666521Y-67201998D01*
X132567452Y-67102930D01*
X132554611Y-67087895D01*
X132548402Y-67079349D01*
X132542575Y-67071329D01*
X132534556Y-67065503D01*
X132530123Y-67061070D01*
X132519264Y-67048689D01*
X132504431Y-67029360D01*
X132487987Y-67000877D01*
X132484217Y-66991775D01*
X132472470Y-66963414D01*
X132463958Y-66931648D01*
X132460781Y-66907518D01*
X132459703Y-66891067D01*
X132459703Y-66884796D01*
X132461255Y-66875000D01*
X132458051Y-66854771D01*
X132456500Y-66835060D01*
X132456500Y-66283137D01*
X132458051Y-66263426D01*
X132459704Y-66252990D01*
X132459704Y-66252989D01*
X132461255Y-66243197D01*
X132459645Y-66233030D01*
X132458482Y-66223208D01*
X132458119Y-66218596D01*
X132455805Y-66189199D01*
X133177343Y-66189199D01*
X133184075Y-66192400D01*
X133977285Y-66192400D01*
X133992524Y-66187925D01*
X133993729Y-66186535D01*
X133995400Y-66178852D01*
X133995400Y-65387900D01*
X133991594Y-65374938D01*
X133976679Y-65373002D01*
X133968132Y-65374471D01*
X133957020Y-65377448D01*
X133777495Y-65443679D01*
X133767117Y-65448629D01*
X133602673Y-65546463D01*
X133593361Y-65553229D01*
X133449497Y-65679394D01*
X133441580Y-65687737D01*
X133323118Y-65838005D01*
X133316850Y-65847656D01*
X133227758Y-66016992D01*
X133223353Y-66027627D01*
X133177562Y-66175098D01*
X133177343Y-66189199D01*
X132455805Y-66189199D01*
X132445856Y-66062789D01*
X132444702Y-66057982D01*
X132444701Y-66057976D01*
X132416741Y-65941519D01*
X132403610Y-65886823D01*
X132399877Y-65877811D01*
X132336252Y-65724206D01*
X132336250Y-65724202D01*
X132334357Y-65719632D01*
X132239803Y-65565333D01*
X132171916Y-65485848D01*
X132167646Y-65480115D01*
X132166439Y-65477601D01*
X132162829Y-65473307D01*
X132155206Y-65465684D01*
X132148490Y-65458419D01*
X132135315Y-65442993D01*
X132129192Y-65435227D01*
X132128953Y-65434899D01*
X132123124Y-65426876D01*
X132115105Y-65421050D01*
X132115102Y-65421047D01*
X132106551Y-65414835D01*
X132091517Y-65401995D01*
X132027813Y-65338292D01*
X132014970Y-65323254D01*
X132014876Y-65323124D01*
X132002937Y-65306691D01*
X131994911Y-65300860D01*
X131994867Y-65300816D01*
X131987315Y-65294861D01*
X131875187Y-65199091D01*
X131866310Y-65191509D01*
X131866307Y-65191507D01*
X131862549Y-65188297D01*
X131706046Y-65092390D01*
X131536467Y-65022146D01*
X131531663Y-65020993D01*
X131531661Y-65020992D01*
X131362799Y-64980451D01*
X131362793Y-64980450D01*
X131357986Y-64979296D01*
X131250823Y-64970861D01*
X131244001Y-64969863D01*
X131241498Y-64968984D01*
X131235909Y-64968500D01*
X131225772Y-64968500D01*
X131215889Y-64968112D01*
X131206312Y-64967358D01*
X131194352Y-64966417D01*
X131184879Y-64965296D01*
X131184792Y-64965296D01*
X131175000Y-64963745D01*
X131165208Y-64965296D01*
X131165207Y-64965296D01*
X131154771Y-64966949D01*
X131135060Y-64968500D01*
X130446105Y-64968500D01*
X130377984Y-64948498D01*
X130331491Y-64894842D01*
X130323955Y-64872906D01*
X130323214Y-64866081D01*
X130320440Y-64858682D01*
X130320440Y-64858680D01*
X130278779Y-64747551D01*
X130278778Y-64747548D01*
X130275628Y-64739147D01*
X130194330Y-64630670D01*
X130085853Y-64549372D01*
X130077452Y-64546222D01*
X130077449Y-64546221D01*
X129983577Y-64511030D01*
X129958919Y-64501786D01*
X129951066Y-64500933D01*
X129951062Y-64500932D01*
X129904452Y-64495869D01*
X129904448Y-64495869D01*
X129901053Y-64495500D01*
X129637539Y-64495500D01*
X129373948Y-64495501D01*
X129316081Y-64501786D01*
X129290204Y-64511487D01*
X129197551Y-64546221D01*
X129197548Y-64546222D01*
X129189147Y-64549372D01*
X129098689Y-64617166D01*
X129032184Y-64642012D01*
X128962802Y-64626959D01*
X128912572Y-64576784D01*
X128897514Y-64506453D01*
X128905249Y-64408165D01*
X128905747Y-64404765D01*
X128906016Y-64403998D01*
X128906500Y-64398409D01*
X128906500Y-64395698D01*
X128906618Y-64392967D01*
X128906667Y-64392969D01*
X128906889Y-64387339D01*
X128909702Y-64351599D01*
X128909702Y-64351585D01*
X128910372Y-64343072D01*
X128911255Y-64337500D01*
X128908051Y-64317271D01*
X128906500Y-64297560D01*
X128906500Y-61631047D01*
X129261145Y-61631047D01*
X129282411Y-61693516D01*
X129288371Y-61706181D01*
X129372560Y-61843028D01*
X129381189Y-61854073D01*
X129493606Y-61968869D01*
X129504456Y-61977717D01*
X129639512Y-62064755D01*
X129652061Y-62070985D01*
X129803042Y-62125937D01*
X129816656Y-62129231D01*
X129822028Y-62129910D01*
X129836306Y-62127606D01*
X129839907Y-62114940D01*
X130348000Y-62114940D01*
X130352156Y-62129094D01*
X130363724Y-62130941D01*
X130374325Y-62128533D01*
X130526078Y-62075688D01*
X130538696Y-62069642D01*
X130674962Y-61984493D01*
X130685935Y-61975796D01*
X130799949Y-61862575D01*
X130808721Y-61851665D01*
X130894814Y-61716003D01*
X130900956Y-61703409D01*
X130924438Y-61637467D01*
X130925234Y-61623387D01*
X130919565Y-61620400D01*
X130366115Y-61620400D01*
X130350876Y-61624875D01*
X130349671Y-61626265D01*
X130348000Y-61633948D01*
X130348000Y-62114940D01*
X129839907Y-62114940D01*
X129840000Y-62114614D01*
X129840000Y-61638515D01*
X129835525Y-61623276D01*
X129834135Y-61622071D01*
X129826452Y-61620400D01*
X129275635Y-61620400D01*
X129262104Y-61624373D01*
X129261145Y-61631047D01*
X128906500Y-61631047D01*
X128906500Y-60964940D01*
X128908051Y-60945229D01*
X128909704Y-60934794D01*
X128909704Y-60934792D01*
X128911255Y-60925000D01*
X128909703Y-60915204D01*
X128909703Y-60908932D01*
X128910781Y-60892480D01*
X128913637Y-60870793D01*
X128917546Y-60841101D01*
X128926071Y-60809302D01*
X128926471Y-60808337D01*
X128971033Y-60753067D01*
X129038402Y-60730663D01*
X129056638Y-60732132D01*
X129056702Y-60731486D01*
X129062865Y-60732093D01*
X129068933Y-60733300D01*
X129243906Y-60733300D01*
X129312027Y-60753302D01*
X129358520Y-60806958D01*
X129368624Y-60877232D01*
X129350291Y-60926815D01*
X129293185Y-61016798D01*
X129287044Y-61029391D01*
X129263562Y-61095333D01*
X129262766Y-61109413D01*
X129268435Y-61112400D01*
X130912365Y-61112400D01*
X130925896Y-61108427D01*
X130926855Y-61101753D01*
X130905589Y-61039284D01*
X130899629Y-61026619D01*
X130815440Y-60889772D01*
X130806811Y-60878727D01*
X130689466Y-60758899D01*
X130690745Y-60757646D01*
X130655746Y-60706598D01*
X130653630Y-60635633D01*
X130670766Y-60597509D01*
X130676839Y-60588421D01*
X130676840Y-60588418D01*
X130683734Y-60578101D01*
X130698500Y-60503867D01*
X130698499Y-60246104D01*
X130710952Y-60203693D01*
X133271237Y-60203693D01*
X133275475Y-60218124D01*
X133276865Y-60219329D01*
X133284548Y-60221000D01*
X133727885Y-60221000D01*
X133743124Y-60216525D01*
X133744329Y-60215135D01*
X133746000Y-60207452D01*
X133746000Y-60202885D01*
X134254000Y-60202885D01*
X134258475Y-60218124D01*
X134259865Y-60219329D01*
X134267548Y-60221000D01*
X134710885Y-60221000D01*
X134726124Y-60216525D01*
X134727329Y-60215135D01*
X134728973Y-60207576D01*
X134728631Y-60201264D01*
X134726483Y-60181493D01*
X134731137Y-60155532D01*
X134724698Y-60148859D01*
X134718365Y-60134689D01*
X134677625Y-60026012D01*
X134669092Y-60010425D01*
X134597566Y-59914990D01*
X134585010Y-59902434D01*
X134489575Y-59830908D01*
X134473988Y-59822375D01*
X134361311Y-59780135D01*
X134346066Y-59776510D01*
X134298741Y-59771369D01*
X134291927Y-59771000D01*
X134272115Y-59771000D01*
X134256876Y-59775475D01*
X134255671Y-59776865D01*
X134254000Y-59784548D01*
X134254000Y-60202885D01*
X133746000Y-60202885D01*
X133746000Y-59789115D01*
X133741525Y-59773876D01*
X133740135Y-59772671D01*
X133732452Y-59771000D01*
X133708073Y-59771000D01*
X133701259Y-59771369D01*
X133653934Y-59776510D01*
X133638689Y-59780135D01*
X133526012Y-59822375D01*
X133510425Y-59830908D01*
X133414990Y-59902434D01*
X133402434Y-59914990D01*
X133330908Y-60010425D01*
X133322375Y-60026012D01*
X133280135Y-60138689D01*
X133276510Y-60153934D01*
X133271369Y-60201259D01*
X133271237Y-60203693D01*
X130710952Y-60203693D01*
X130718293Y-60178693D01*
X131521237Y-60178693D01*
X131525475Y-60193124D01*
X131526865Y-60194329D01*
X131534548Y-60196000D01*
X131977885Y-60196000D01*
X131993124Y-60191525D01*
X131994329Y-60190135D01*
X131996000Y-60182452D01*
X131996000Y-60177885D01*
X132504000Y-60177885D01*
X132508475Y-60193124D01*
X132509865Y-60194329D01*
X132517548Y-60196000D01*
X132960885Y-60196000D01*
X132976124Y-60191525D01*
X132977329Y-60190135D01*
X132978973Y-60182576D01*
X132978631Y-60176259D01*
X132973490Y-60128934D01*
X132969865Y-60113689D01*
X132927625Y-60001012D01*
X132919092Y-59985425D01*
X132847566Y-59889990D01*
X132835010Y-59877434D01*
X132739575Y-59805908D01*
X132723988Y-59797375D01*
X132611311Y-59755135D01*
X132596066Y-59751510D01*
X132548741Y-59746369D01*
X132541927Y-59746000D01*
X132522115Y-59746000D01*
X132506876Y-59750475D01*
X132505671Y-59751865D01*
X132504000Y-59759548D01*
X132504000Y-60177885D01*
X131996000Y-60177885D01*
X131996000Y-59764115D01*
X131991525Y-59748876D01*
X131990135Y-59747671D01*
X131982452Y-59746000D01*
X131958073Y-59746000D01*
X131951259Y-59746369D01*
X131903934Y-59751510D01*
X131888689Y-59755135D01*
X131776012Y-59797375D01*
X131760425Y-59805908D01*
X131664990Y-59877434D01*
X131652434Y-59889990D01*
X131580908Y-59985425D01*
X131572375Y-60001012D01*
X131530135Y-60113689D01*
X131526510Y-60128934D01*
X131521369Y-60176259D01*
X131521237Y-60178693D01*
X130718293Y-60178693D01*
X130718501Y-60177985D01*
X130772156Y-60131492D01*
X130791354Y-60124543D01*
X130880358Y-60100277D01*
X130891170Y-60093639D01*
X130975235Y-60042023D01*
X131004486Y-60024063D01*
X131014723Y-60012754D01*
X131096205Y-59922734D01*
X131096206Y-59922733D01*
X131102233Y-59916074D01*
X131109740Y-59900581D01*
X131161827Y-59793072D01*
X131161827Y-59793071D01*
X131165742Y-59784991D01*
X131184014Y-59676384D01*
X131189102Y-59646144D01*
X131189102Y-59646141D01*
X131189908Y-59641352D01*
X131189984Y-59635113D01*
X131190002Y-59633660D01*
X131190002Y-59633657D01*
X131190061Y-59628800D01*
X131179066Y-59552027D01*
X131189210Y-59481760D01*
X131235733Y-59428131D01*
X131303794Y-59408167D01*
X134511314Y-59408167D01*
X134559087Y-59417575D01*
G37*
%TD.AperFunction*%
%TA.AperFunction,Conductor*%
G36*
X160845303Y-49634521D02*
G01*
X160858200Y-49637086D01*
X160870372Y-49634665D01*
X160882780Y-49634665D01*
X160882780Y-49635130D01*
X160893606Y-49634421D01*
X161085284Y-49646984D01*
X161101624Y-49649135D01*
X161316724Y-49691921D01*
X161332645Y-49696187D01*
X161540321Y-49766684D01*
X161555547Y-49772991D01*
X161752242Y-49869990D01*
X161766515Y-49878231D01*
X161948866Y-50000073D01*
X161961939Y-50010103D01*
X162013352Y-50055191D01*
X162126834Y-50154712D01*
X162138488Y-50166366D01*
X162169902Y-50202187D01*
X162275632Y-50322748D01*
X162283094Y-50331257D01*
X162293127Y-50344334D01*
X162414969Y-50526685D01*
X162423210Y-50540958D01*
X162520209Y-50737653D01*
X162526516Y-50752879D01*
X162597013Y-50960555D01*
X162601279Y-50976476D01*
X162644065Y-51191576D01*
X162646216Y-51207916D01*
X162658779Y-51399594D01*
X162658070Y-51410420D01*
X162658535Y-51410420D01*
X162658535Y-51422828D01*
X162656114Y-51435000D01*
X162658535Y-51447172D01*
X162658535Y-51447173D01*
X162658743Y-51448219D01*
X162661164Y-51472583D01*
X162686436Y-66281817D01*
X162686436Y-66282032D01*
X162684014Y-66306831D01*
X162681514Y-66319400D01*
X162683935Y-66331572D01*
X162683935Y-66343980D01*
X162683470Y-66343980D01*
X162684179Y-66354806D01*
X162671616Y-66546484D01*
X162669465Y-66562824D01*
X162626679Y-66777924D01*
X162622413Y-66793845D01*
X162551916Y-67001521D01*
X162545609Y-67016747D01*
X162448610Y-67213442D01*
X162440369Y-67227715D01*
X162318527Y-67410066D01*
X162308497Y-67423139D01*
X162215864Y-67528767D01*
X162163888Y-67588034D01*
X162152234Y-67599688D01*
X162149510Y-67602077D01*
X161995762Y-67736911D01*
X161987343Y-67744294D01*
X161974266Y-67754327D01*
X161791915Y-67876169D01*
X161777642Y-67884410D01*
X161580947Y-67981409D01*
X161565721Y-67987716D01*
X161358045Y-68058213D01*
X161342124Y-68062479D01*
X161127024Y-68105265D01*
X161110684Y-68107416D01*
X160919006Y-68119979D01*
X160908180Y-68119270D01*
X160908180Y-68119735D01*
X160895772Y-68119735D01*
X160883600Y-68117314D01*
X160870703Y-68119879D01*
X160846124Y-68122300D01*
X157745112Y-68122300D01*
X157676991Y-68102298D01*
X157630498Y-68048642D01*
X157620394Y-67978368D01*
X157649888Y-67913788D01*
X157704612Y-67876986D01*
X157903088Y-67809616D01*
X157903091Y-67809615D01*
X157906985Y-67808293D01*
X157923249Y-67800273D01*
X158042391Y-67741520D01*
X158102365Y-67711945D01*
X158272700Y-67598132D01*
X158280059Y-67593215D01*
X158280061Y-67593214D01*
X158283498Y-67590917D01*
X158433294Y-67459550D01*
X158439318Y-67454737D01*
X158440103Y-67453952D01*
X158448124Y-67448124D01*
X158453950Y-67440105D01*
X158453952Y-67440103D01*
X158455729Y-67437657D01*
X158458348Y-67434052D01*
X158462886Y-67428177D01*
X158467018Y-67423143D01*
X158537584Y-67337156D01*
X158542752Y-67327488D01*
X158594459Y-67230745D01*
X158604713Y-67211560D01*
X158617069Y-67170824D01*
X158644251Y-67081202D01*
X158644251Y-67081201D01*
X158646047Y-67075280D01*
X158651440Y-67020490D01*
X158653520Y-67007184D01*
X158656016Y-67000077D01*
X158656500Y-66994488D01*
X158656500Y-66975278D01*
X158657105Y-66962941D01*
X158657553Y-66958389D01*
X158657569Y-66958226D01*
X158658509Y-66950896D01*
X158661255Y-66933555D01*
X158659704Y-66923766D01*
X158659704Y-66923763D01*
X158658052Y-66913340D01*
X158656500Y-66893622D01*
X158656500Y-62589940D01*
X158658051Y-62570229D01*
X158659704Y-62559795D01*
X158659704Y-62559792D01*
X158661255Y-62550000D01*
X158659703Y-62540203D01*
X158659703Y-62539697D01*
X158661254Y-62519981D01*
X158662396Y-62512775D01*
X158667743Y-62479014D01*
X158679925Y-62441523D01*
X158695347Y-62411255D01*
X158703495Y-62395263D01*
X158726667Y-62363372D01*
X158763372Y-62326667D01*
X158795264Y-62303495D01*
X158841523Y-62279925D01*
X158879013Y-62267744D01*
X158919979Y-62261255D01*
X158939696Y-62259703D01*
X158940203Y-62259703D01*
X158950000Y-62261255D01*
X158959793Y-62259704D01*
X158960565Y-62259704D01*
X158965875Y-62259052D01*
X158980766Y-62257749D01*
X159050371Y-62271736D01*
X159101364Y-62321135D01*
X159117555Y-62390261D01*
X159116877Y-62398072D01*
X159101148Y-62530964D01*
X159114424Y-62733522D01*
X159115845Y-62739118D01*
X159115846Y-62739123D01*
X159155782Y-62896369D01*
X159164392Y-62930269D01*
X159166809Y-62935512D01*
X159246293Y-63107926D01*
X159249377Y-63114616D01*
X159255390Y-63123124D01*
X159351859Y-63259625D01*
X159366533Y-63280389D01*
X159370675Y-63284424D01*
X159456961Y-63368479D01*
X159511938Y-63422035D01*
X159516742Y-63425245D01*
X159555471Y-63451123D01*
X159680720Y-63534812D01*
X159686023Y-63537090D01*
X159686026Y-63537092D01*
X159850742Y-63607859D01*
X159867228Y-63614942D01*
X159919969Y-63626876D01*
X160059579Y-63658467D01*
X160059584Y-63658468D01*
X160065216Y-63659742D01*
X160070987Y-63659969D01*
X160070989Y-63659969D01*
X160130756Y-63662317D01*
X160268053Y-63667712D01*
X160381272Y-63651296D01*
X160463231Y-63639413D01*
X160463236Y-63639412D01*
X160468945Y-63638584D01*
X160474409Y-63636729D01*
X160474414Y-63636728D01*
X160655693Y-63575192D01*
X160655698Y-63575190D01*
X160661165Y-63573334D01*
X160679472Y-63563082D01*
X160760149Y-63517900D01*
X160838276Y-63474147D01*
X160861095Y-63455169D01*
X160989913Y-63348031D01*
X160994345Y-63344345D01*
X161047592Y-63280323D01*
X161120453Y-63192718D01*
X161120455Y-63192715D01*
X161124147Y-63188276D01*
X161197896Y-63056588D01*
X161220510Y-63016208D01*
X161220511Y-63016206D01*
X161223334Y-63011165D01*
X161225190Y-63005698D01*
X161225192Y-63005693D01*
X161273187Y-62864303D01*
X161314024Y-62806226D01*
X161379777Y-62779448D01*
X161449569Y-62792469D01*
X161501242Y-62841156D01*
X161518500Y-62904804D01*
X161518500Y-63871155D01*
X161516949Y-63890865D01*
X161515971Y-63897043D01*
X161513745Y-63911095D01*
X161515297Y-63920891D01*
X161515297Y-63930805D01*
X161514654Y-63930805D01*
X161515092Y-63945695D01*
X161512431Y-63972714D01*
X161509389Y-64003610D01*
X161509007Y-64007486D01*
X161504188Y-64031714D01*
X161479671Y-64112535D01*
X161470219Y-64135355D01*
X161430413Y-64209827D01*
X161416690Y-64230365D01*
X161377307Y-64278353D01*
X161366504Y-64288539D01*
X161366969Y-64289005D01*
X161359976Y-64295991D01*
X161352076Y-64301731D01*
X161351876Y-64301876D01*
X161346030Y-64309922D01*
X161341734Y-64314214D01*
X161328657Y-64328549D01*
X161245913Y-64401114D01*
X161240087Y-64406223D01*
X161175683Y-64436100D01*
X161105350Y-64426414D01*
X161056051Y-64386880D01*
X161045715Y-64373039D01*
X161034320Y-64357779D01*
X160885258Y-64219987D01*
X160880375Y-64216906D01*
X160880371Y-64216903D01*
X160724262Y-64118406D01*
X160713581Y-64111667D01*
X160525039Y-64036446D01*
X160519379Y-64035320D01*
X160519375Y-64035319D01*
X160331613Y-63997971D01*
X160331610Y-63997971D01*
X160325946Y-63996844D01*
X160320171Y-63996768D01*
X160320167Y-63996768D01*
X160218793Y-63995441D01*
X160122971Y-63994187D01*
X160117274Y-63995166D01*
X160117273Y-63995166D01*
X159928607Y-64027585D01*
X159922910Y-64028564D01*
X159732463Y-64098824D01*
X159558010Y-64202612D01*
X159553670Y-64206418D01*
X159553666Y-64206421D01*
X159433982Y-64311382D01*
X159405392Y-64336455D01*
X159401817Y-64340990D01*
X159401816Y-64340991D01*
X159393788Y-64351175D01*
X159279720Y-64495869D01*
X159277031Y-64500980D01*
X159277029Y-64500983D01*
X159237484Y-64576146D01*
X159185203Y-64675515D01*
X159146059Y-64801581D01*
X159130442Y-64851876D01*
X159125007Y-64869378D01*
X159101148Y-65070964D01*
X159114424Y-65273522D01*
X159115845Y-65279118D01*
X159115846Y-65279123D01*
X159162189Y-65461595D01*
X159164392Y-65470269D01*
X159166808Y-65475509D01*
X159166808Y-65475510D01*
X159211865Y-65573246D01*
X159249377Y-65654616D01*
X159252710Y-65659332D01*
X159353758Y-65802312D01*
X159366533Y-65820389D01*
X159370675Y-65824424D01*
X159403595Y-65856493D01*
X159511938Y-65962035D01*
X159516742Y-65965245D01*
X159551583Y-65988525D01*
X159680720Y-66074812D01*
X159686023Y-66077090D01*
X159686026Y-66077092D01*
X159857187Y-66150628D01*
X159867228Y-66154942D01*
X159916067Y-66165993D01*
X160059579Y-66198467D01*
X160059584Y-66198468D01*
X160065216Y-66199742D01*
X160070987Y-66199969D01*
X160070989Y-66199969D01*
X160130756Y-66202317D01*
X160268053Y-66207712D01*
X160385183Y-66190729D01*
X160463231Y-66179413D01*
X160463236Y-66179412D01*
X160468945Y-66178584D01*
X160474409Y-66176729D01*
X160474414Y-66176728D01*
X160655693Y-66115192D01*
X160655698Y-66115190D01*
X160661165Y-66113334D01*
X160681954Y-66101692D01*
X160747161Y-66065174D01*
X160838276Y-66014147D01*
X160847268Y-66006669D01*
X160989913Y-65888031D01*
X160994345Y-65884345D01*
X161040914Y-65828352D01*
X161120453Y-65732718D01*
X161120455Y-65732715D01*
X161124147Y-65728276D01*
X161192349Y-65606492D01*
X161220510Y-65556208D01*
X161220511Y-65556206D01*
X161223334Y-65551165D01*
X161225190Y-65545698D01*
X161225192Y-65545693D01*
X161286728Y-65364414D01*
X161286729Y-65364409D01*
X161288584Y-65358945D01*
X161292543Y-65331641D01*
X161322114Y-65267095D01*
X161356290Y-65239444D01*
X161512890Y-65152893D01*
X161512893Y-65152891D01*
X161515980Y-65151185D01*
X161715117Y-65009888D01*
X161717759Y-65007527D01*
X161717764Y-65007523D01*
X161882717Y-64860111D01*
X161889055Y-64854998D01*
X161890099Y-64853955D01*
X161898124Y-64848124D01*
X161907033Y-64835862D01*
X161914235Y-64826849D01*
X162001965Y-64726811D01*
X162010892Y-64716632D01*
X162107055Y-64572713D01*
X162109180Y-64568405D01*
X162164517Y-64456191D01*
X162183610Y-64417474D01*
X162184936Y-64413568D01*
X162237921Y-64257478D01*
X162237922Y-64257475D01*
X162239247Y-64253571D01*
X162273014Y-64083807D01*
X162273620Y-64074568D01*
X162279359Y-63986990D01*
X162280444Y-63979220D01*
X162281016Y-63977590D01*
X162281500Y-63972001D01*
X162281500Y-63958432D01*
X162281770Y-63950195D01*
X162282598Y-63937556D01*
X162283878Y-63926094D01*
X162286255Y-63911089D01*
X162283189Y-63891729D01*
X162283051Y-63890861D01*
X162281500Y-63871149D01*
X162281500Y-57330621D01*
X162283051Y-57310911D01*
X162284704Y-57300474D01*
X162286255Y-57290681D01*
X162284704Y-57280889D01*
X162284704Y-57278911D01*
X162284171Y-57274141D01*
X162270543Y-57066253D01*
X162270542Y-57066248D01*
X162270273Y-57062139D01*
X162232395Y-56871723D01*
X162226393Y-56841548D01*
X162226392Y-56841546D01*
X162225589Y-56837507D01*
X162151968Y-56620630D01*
X162146757Y-56610062D01*
X162086643Y-56488166D01*
X162050668Y-56415217D01*
X162044844Y-56406500D01*
X161959334Y-56278527D01*
X161923424Y-56224784D01*
X161920106Y-56221000D01*
X161858390Y-56150628D01*
X161783393Y-56065110D01*
X161780326Y-56061272D01*
X161778952Y-56059898D01*
X161773124Y-56051876D01*
X161765102Y-56046048D01*
X161765100Y-56046046D01*
X161762266Y-56043987D01*
X161754496Y-56037863D01*
X161685517Y-55978950D01*
X161644704Y-55944093D01*
X161640481Y-55941505D01*
X161506076Y-55859145D01*
X161506069Y-55859141D01*
X161501853Y-55856558D01*
X161497279Y-55854664D01*
X161497276Y-55854662D01*
X161385341Y-55808301D01*
X161347066Y-55792448D01*
X161209999Y-55759548D01*
X161201188Y-55757433D01*
X161139617Y-55722084D01*
X161106931Y-55659059D01*
X161113508Y-55588368D01*
X161124212Y-55568312D01*
X161124147Y-55568276D01*
X161125938Y-55565078D01*
X161125939Y-55565077D01*
X161183289Y-55462670D01*
X161220510Y-55396208D01*
X161220511Y-55396206D01*
X161223334Y-55391165D01*
X161225190Y-55385698D01*
X161225192Y-55385693D01*
X161286728Y-55204414D01*
X161286729Y-55204409D01*
X161288584Y-55198945D01*
X161289412Y-55193236D01*
X161289413Y-55193231D01*
X161308524Y-55061419D01*
X161317712Y-54998053D01*
X161319232Y-54940000D01*
X161302424Y-54757078D01*
X161301187Y-54743613D01*
X161301186Y-54743610D01*
X161300658Y-54737859D01*
X161281092Y-54668484D01*
X161247125Y-54548046D01*
X161247124Y-54548044D01*
X161245557Y-54542487D01*
X161242409Y-54536102D01*
X161158331Y-54365609D01*
X161155776Y-54360428D01*
X161034320Y-54197779D01*
X160959654Y-54128758D01*
X160889503Y-54063911D01*
X160885258Y-54059987D01*
X160880375Y-54056906D01*
X160880371Y-54056903D01*
X160718464Y-53954748D01*
X160713581Y-53951667D01*
X160525039Y-53876446D01*
X160519379Y-53875320D01*
X160519375Y-53875319D01*
X160331613Y-53837971D01*
X160331610Y-53837971D01*
X160325946Y-53836844D01*
X160320171Y-53836768D01*
X160320167Y-53836768D01*
X160218793Y-53835441D01*
X160122971Y-53834187D01*
X160117274Y-53835166D01*
X160117273Y-53835166D01*
X159955028Y-53863045D01*
X159922910Y-53868564D01*
X159732463Y-53938824D01*
X159558010Y-54042612D01*
X159553670Y-54046418D01*
X159553666Y-54046421D01*
X159411167Y-54171390D01*
X159405392Y-54176455D01*
X159279720Y-54335869D01*
X159277031Y-54340980D01*
X159277029Y-54340983D01*
X159240154Y-54411071D01*
X159199106Y-54489091D01*
X159198013Y-54491168D01*
X159148594Y-54542140D01*
X159086505Y-54558500D01*
X159054940Y-54558500D01*
X159035229Y-54556949D01*
X159024793Y-54555296D01*
X159024792Y-54555296D01*
X159015000Y-54553745D01*
X159005208Y-54555296D01*
X158995288Y-54555296D01*
X158995288Y-54554653D01*
X158980396Y-54555092D01*
X158874495Y-54544661D01*
X158850273Y-54539843D01*
X158727042Y-54502461D01*
X158704222Y-54493009D01*
X158652075Y-54465136D01*
X158590651Y-54432303D01*
X158570116Y-54418582D01*
X158565591Y-54414868D01*
X158470574Y-54336890D01*
X158453109Y-54319425D01*
X158437522Y-54300432D01*
X158371416Y-54219881D01*
X158357695Y-54199347D01*
X158356712Y-54197507D01*
X158313323Y-54116333D01*
X158296991Y-54085778D01*
X158287539Y-54062958D01*
X158250157Y-53939727D01*
X158245338Y-53915501D01*
X158245062Y-53912690D01*
X158234908Y-53809604D01*
X158235347Y-53794712D01*
X158234704Y-53794712D01*
X158234704Y-53784792D01*
X158236255Y-53775000D01*
X158233051Y-53754771D01*
X158231500Y-53735060D01*
X158231500Y-53268828D01*
X159106001Y-53268828D01*
X159107209Y-53281088D01*
X159118315Y-53336931D01*
X159127633Y-53359427D01*
X159169983Y-53422808D01*
X159187192Y-53440017D01*
X159250575Y-53482368D01*
X159273066Y-53491684D01*
X159328915Y-53502793D01*
X159341170Y-53504000D01*
X159937885Y-53504000D01*
X159953124Y-53499525D01*
X159954329Y-53498135D01*
X159956000Y-53490452D01*
X159956000Y-53485884D01*
X160464000Y-53485884D01*
X160468475Y-53501123D01*
X160469865Y-53502328D01*
X160477548Y-53503999D01*
X161078828Y-53503999D01*
X161091088Y-53502791D01*
X161146931Y-53491685D01*
X161169427Y-53482367D01*
X161232808Y-53440017D01*
X161250017Y-53422808D01*
X161292368Y-53359425D01*
X161301684Y-53336934D01*
X161312793Y-53281085D01*
X161314000Y-53268830D01*
X161314000Y-52672115D01*
X161309525Y-52656876D01*
X161308135Y-52655671D01*
X161300452Y-52654000D01*
X160482115Y-52654000D01*
X160466876Y-52658475D01*
X160465671Y-52659865D01*
X160464000Y-52667548D01*
X160464000Y-53485884D01*
X159956000Y-53485884D01*
X159956000Y-52672115D01*
X159951525Y-52656876D01*
X159950135Y-52655671D01*
X159942452Y-52654000D01*
X159124116Y-52654000D01*
X159108877Y-52658475D01*
X159107672Y-52659865D01*
X159106001Y-52667548D01*
X159106001Y-53268828D01*
X158231500Y-53268828D01*
X158231500Y-53262503D01*
X158251502Y-53194382D01*
X158264080Y-53177953D01*
X158300901Y-53137274D01*
X158310385Y-53117700D01*
X158360495Y-53014272D01*
X158360495Y-53014271D01*
X158364410Y-53006191D01*
X158388576Y-52862552D01*
X158388729Y-52850000D01*
X158378443Y-52778173D01*
X158369354Y-52714706D01*
X158369353Y-52714703D01*
X158368080Y-52705813D01*
X158364362Y-52697635D01*
X158311508Y-52581390D01*
X158311507Y-52581388D01*
X158307792Y-52573218D01*
X158212713Y-52462873D01*
X158090485Y-52383648D01*
X157950934Y-52341914D01*
X157941958Y-52341859D01*
X157941957Y-52341859D01*
X157879401Y-52341477D01*
X157805279Y-52341024D01*
X157796646Y-52343491D01*
X157788598Y-52344594D01*
X157718392Y-52334023D01*
X157665047Y-52287175D01*
X157645498Y-52218923D01*
X157657300Y-52166511D01*
X157675311Y-52127885D01*
X159106000Y-52127885D01*
X159110475Y-52143124D01*
X159111865Y-52144329D01*
X159119548Y-52146000D01*
X159937885Y-52146000D01*
X159953124Y-52141525D01*
X159954329Y-52140135D01*
X159956000Y-52132452D01*
X159956000Y-52127885D01*
X160464000Y-52127885D01*
X160468475Y-52143124D01*
X160469865Y-52144329D01*
X160477548Y-52146000D01*
X161295884Y-52146000D01*
X161311123Y-52141525D01*
X161312328Y-52140135D01*
X161313999Y-52132452D01*
X161313999Y-51531172D01*
X161312791Y-51518912D01*
X161301685Y-51463069D01*
X161292367Y-51440573D01*
X161250017Y-51377192D01*
X161232808Y-51359983D01*
X161169425Y-51317632D01*
X161146934Y-51308316D01*
X161091085Y-51297207D01*
X161078830Y-51296000D01*
X160482115Y-51296000D01*
X160466876Y-51300475D01*
X160465671Y-51301865D01*
X160464000Y-51309548D01*
X160464000Y-52127885D01*
X159956000Y-52127885D01*
X159956000Y-51314116D01*
X159951525Y-51298877D01*
X159950135Y-51297672D01*
X159942452Y-51296001D01*
X159341172Y-51296001D01*
X159328912Y-51297209D01*
X159273069Y-51308315D01*
X159250573Y-51317633D01*
X159187192Y-51359983D01*
X159169983Y-51377192D01*
X159127632Y-51440575D01*
X159118316Y-51463066D01*
X159107207Y-51518915D01*
X159106000Y-51531170D01*
X159106000Y-52127885D01*
X157675311Y-52127885D01*
X157689250Y-52097993D01*
X157689252Y-52097988D01*
X157691575Y-52093006D01*
X157701524Y-52055878D01*
X157716122Y-52001396D01*
X157743416Y-51899534D01*
X157750174Y-51822293D01*
X157754408Y-51773905D01*
X157755155Y-51768951D01*
X157756016Y-51766498D01*
X157756500Y-51760909D01*
X157756500Y-51755494D01*
X157756980Y-51744511D01*
X157759705Y-51713369D01*
X157759705Y-51713355D01*
X157760402Y-51705388D01*
X157761255Y-51700000D01*
X157758051Y-51679771D01*
X157756500Y-51660060D01*
X157756500Y-50414940D01*
X157758051Y-50395229D01*
X157759704Y-50384793D01*
X157759704Y-50384792D01*
X157761255Y-50375000D01*
X157759704Y-50365207D01*
X157759704Y-50365202D01*
X157759268Y-50362449D01*
X157758197Y-50353724D01*
X157748537Y-50243319D01*
X157745852Y-50212629D01*
X157703667Y-50055191D01*
X157695494Y-50037663D01*
X157637110Y-49912458D01*
X157637107Y-49912453D01*
X157634784Y-49907471D01*
X157628940Y-49899124D01*
X157580798Y-49830371D01*
X157558110Y-49763097D01*
X157575395Y-49694236D01*
X157627165Y-49645652D01*
X157684011Y-49632100D01*
X160820724Y-49632100D01*
X160845303Y-49634521D01*
G37*
%TD.AperFunction*%
%TA.AperFunction,Conductor*%
G36*
X148815722Y-61763641D02*
G01*
X148860785Y-61792602D01*
X148968170Y-61899987D01*
X149002196Y-61962299D01*
X148997131Y-62033114D01*
X148954584Y-62089950D01*
X148888064Y-62114761D01*
X148818688Y-62099669D01*
X148809095Y-62094431D01*
X148807262Y-62094562D01*
X148800647Y-62098813D01*
X148643434Y-62256026D01*
X148635820Y-62269970D01*
X148635951Y-62271803D01*
X148640202Y-62278418D01*
X149026185Y-62664401D01*
X149032395Y-62669847D01*
X149059801Y-62690877D01*
X149076516Y-62700048D01*
X149166117Y-62732659D01*
X149187507Y-62736431D01*
X149281475Y-62736431D01*
X149302865Y-62732659D01*
X149392467Y-62700047D01*
X149399754Y-62696049D01*
X149404795Y-62689145D01*
X149398163Y-62677169D01*
X149249504Y-62528510D01*
X149215478Y-62466198D01*
X149220543Y-62395383D01*
X149263090Y-62338547D01*
X149329610Y-62313736D01*
X149398984Y-62328827D01*
X149410625Y-62336406D01*
X149413106Y-62337767D01*
X149420754Y-62343635D01*
X149501639Y-62373075D01*
X149547639Y-62402381D01*
X149610023Y-62464765D01*
X149622624Y-62471646D01*
X149629015Y-62466921D01*
X149633174Y-62459342D01*
X149642967Y-62432433D01*
X149685060Y-62375260D01*
X149718270Y-62357126D01*
X149755337Y-62343635D01*
X149793737Y-62314170D01*
X149882597Y-62225310D01*
X149944909Y-62191284D01*
X150015724Y-62196349D01*
X150060788Y-62225310D01*
X150760263Y-62924786D01*
X150794288Y-62987098D01*
X150789223Y-63057914D01*
X150746676Y-63114749D01*
X150680156Y-63139560D01*
X150635067Y-63134598D01*
X150575934Y-63116914D01*
X150566958Y-63116859D01*
X150566957Y-63116859D01*
X150505644Y-63116485D01*
X150430279Y-63116024D01*
X150290229Y-63156051D01*
X150282642Y-63160838D01*
X150282640Y-63160839D01*
X150242192Y-63186360D01*
X150167042Y-63233776D01*
X150161100Y-63240504D01*
X150131961Y-63273498D01*
X150070622Y-63342951D01*
X150066807Y-63351077D01*
X150061879Y-63358579D01*
X150059475Y-63357000D01*
X150022113Y-63399210D01*
X149955113Y-63418500D01*
X147397212Y-63418500D01*
X147329091Y-63398498D01*
X147282598Y-63344842D01*
X147272494Y-63274568D01*
X147278283Y-63250885D01*
X147284270Y-63233776D01*
X147320507Y-63130215D01*
X147324516Y-63094636D01*
X147327439Y-63081884D01*
X147326720Y-63081729D01*
X147328388Y-63073981D01*
X147331016Y-63066498D01*
X147331500Y-63060909D01*
X147331500Y-63039940D01*
X147333051Y-63020230D01*
X147334704Y-63009793D01*
X147336255Y-63000000D01*
X147334212Y-62987098D01*
X147333051Y-62979771D01*
X147331500Y-62960060D01*
X147331500Y-62384601D01*
X147351502Y-62316480D01*
X147405158Y-62269987D01*
X147457500Y-62258601D01*
X147602759Y-62258601D01*
X147613630Y-62259071D01*
X147655346Y-62262684D01*
X147697638Y-62252178D01*
X147707321Y-62250174D01*
X147750283Y-62243023D01*
X147759449Y-62238077D01*
X147764049Y-62236502D01*
X147768498Y-62234577D01*
X147778607Y-62232066D01*
X147815214Y-62208430D01*
X147823729Y-62203394D01*
X147852892Y-62187659D01*
X147852895Y-62187656D01*
X147862057Y-62182713D01*
X147869122Y-62175071D01*
X147872965Y-62172090D01*
X147876560Y-62168818D01*
X147885304Y-62163172D01*
X147912281Y-62128952D01*
X147918699Y-62121437D01*
X147948269Y-62089449D01*
X147952480Y-62079924D01*
X147955150Y-62075860D01*
X147957486Y-62071610D01*
X147963934Y-62063431D01*
X147978369Y-62022328D01*
X147982008Y-62013135D01*
X147991303Y-61992109D01*
X147999624Y-61973288D01*
X148000523Y-61962916D01*
X148002493Y-61955243D01*
X148003390Y-61951078D01*
X148006016Y-61943599D01*
X148006500Y-61938010D01*
X148006500Y-61936631D01*
X148008369Y-61927950D01*
X148011125Y-61928543D01*
X148029013Y-61875929D01*
X148084579Y-61831738D01*
X148155217Y-61824602D01*
X148221143Y-61859359D01*
X148405678Y-62043894D01*
X148419622Y-62051508D01*
X148421457Y-62051377D01*
X148428070Y-62047127D01*
X148682595Y-61792602D01*
X148744907Y-61758576D01*
X148815722Y-61763641D01*
G37*
%TD.AperFunction*%
%TA.AperFunction,Conductor*%
G36*
X148832708Y-59613932D02*
G01*
X148851286Y-59629255D01*
X149348356Y-60126324D01*
X149382381Y-60188637D01*
X149377317Y-60259452D01*
X149334770Y-60316288D01*
X149268250Y-60341099D01*
X149216166Y-60333821D01*
X149179474Y-60320466D01*
X149133474Y-60291160D01*
X149071091Y-60228777D01*
X149058490Y-60221896D01*
X149052099Y-60226621D01*
X149047940Y-60234200D01*
X149038147Y-60261109D01*
X148996054Y-60318282D01*
X148962842Y-60336417D01*
X148925778Y-60349907D01*
X148887378Y-60379372D01*
X148726712Y-60540038D01*
X148697247Y-60578438D01*
X148684325Y-60613942D01*
X148683980Y-60614889D01*
X148641885Y-60672061D01*
X148608675Y-60690195D01*
X148572225Y-60703461D01*
X148533825Y-60732926D01*
X148373159Y-60893592D01*
X148343694Y-60931992D01*
X148340396Y-60941053D01*
X148330204Y-60969055D01*
X148288109Y-61026226D01*
X148254898Y-61044360D01*
X148227987Y-61054155D01*
X148211280Y-61063321D01*
X148209208Y-61064911D01*
X148206409Y-61065993D01*
X148202826Y-61067959D01*
X148202563Y-61067480D01*
X148142988Y-61090514D01*
X148073439Y-61076252D01*
X148022641Y-61026652D01*
X148006500Y-60964951D01*
X148006500Y-60235212D01*
X148026502Y-60167091D01*
X148043405Y-60146117D01*
X148170801Y-60018721D01*
X148233113Y-59984695D01*
X148233133Y-59984692D01*
X148238498Y-59984790D01*
X148364637Y-59950400D01*
X148370363Y-59948839D01*
X148370364Y-59948839D01*
X148379026Y-59946477D01*
X148387960Y-59940992D01*
X148466066Y-59893035D01*
X148503154Y-59870263D01*
X148516827Y-59855158D01*
X148594873Y-59768934D01*
X148594874Y-59768933D01*
X148600901Y-59762274D01*
X148606848Y-59750000D01*
X148648799Y-59663413D01*
X148696501Y-59610830D01*
X148765060Y-59592384D01*
X148832708Y-59613932D01*
G37*
%TD.AperFunction*%
%TA.AperFunction,Conductor*%
G36*
X146909715Y-56322101D02*
G01*
X146954778Y-56351062D01*
X147756595Y-57152879D01*
X147790621Y-57215191D01*
X147793500Y-57241974D01*
X147793500Y-58359311D01*
X147790914Y-58383610D01*
X147790846Y-58385048D01*
X147788655Y-58395226D01*
X147790511Y-58410908D01*
X147792627Y-58428788D01*
X147792979Y-58434766D01*
X147793072Y-58434758D01*
X147793500Y-58439936D01*
X147793500Y-58445138D01*
X147795831Y-58459139D01*
X147796686Y-58464278D01*
X147797522Y-58470150D01*
X147799488Y-58486764D01*
X147801564Y-58504299D01*
X147803582Y-58521353D01*
X147807567Y-58529652D01*
X147809078Y-58538729D01*
X147833558Y-58584097D01*
X147836239Y-58589360D01*
X147855127Y-58628696D01*
X147855130Y-58628700D01*
X147858560Y-58635844D01*
X147862170Y-58640138D01*
X147864102Y-58642070D01*
X147865889Y-58644019D01*
X147865918Y-58644072D01*
X147865788Y-58644191D01*
X147866289Y-58644759D01*
X147869388Y-58650503D01*
X147877033Y-58657570D01*
X147909208Y-58687312D01*
X147912774Y-58690742D01*
X148018414Y-58796382D01*
X148052440Y-58858694D01*
X148047375Y-58929509D01*
X148004828Y-58986345D01*
X147980768Y-59000495D01*
X147973865Y-59003583D01*
X147965229Y-59006051D01*
X147842042Y-59083776D01*
X147745622Y-59192951D01*
X147741808Y-59201074D01*
X147741807Y-59201076D01*
X147687533Y-59316676D01*
X147683719Y-59324800D01*
X147682339Y-59333665D01*
X147682338Y-59333667D01*
X147680741Y-59343925D01*
X147671487Y-59403359D01*
X147671242Y-59404931D01*
X147640997Y-59469163D01*
X147635837Y-59474640D01*
X147489557Y-59620920D01*
X147474516Y-59633766D01*
X147465979Y-59639967D01*
X147465977Y-59639969D01*
X147457960Y-59645793D01*
X147452133Y-59653812D01*
X147452132Y-59653813D01*
X147448540Y-59658755D01*
X147444014Y-59664613D01*
X147365847Y-59759850D01*
X147296788Y-59889038D01*
X147294991Y-59894960D01*
X147294991Y-59894961D01*
X147256058Y-60023292D01*
X147256057Y-60023297D01*
X147254261Y-60029217D01*
X147253655Y-60035374D01*
X147253654Y-60035377D01*
X147248380Y-60088927D01*
X147246391Y-60101647D01*
X147243984Y-60108502D01*
X147243500Y-60114091D01*
X147243500Y-60132285D01*
X147242894Y-60144621D01*
X147242167Y-60152010D01*
X147241227Y-60159332D01*
X147238745Y-60175000D01*
X147240296Y-60184792D01*
X147240296Y-60184794D01*
X147241949Y-60195229D01*
X147243500Y-60214940D01*
X147243500Y-60609500D01*
X147223498Y-60677621D01*
X147169842Y-60724114D01*
X147099568Y-60734218D01*
X147049528Y-60713141D01*
X147049075Y-60713966D01*
X147041101Y-60709592D01*
X147040798Y-60709464D01*
X147032975Y-60703461D01*
X146996526Y-60690195D01*
X146939355Y-60648101D01*
X146921220Y-60614889D01*
X146920875Y-60613942D01*
X146907953Y-60578438D01*
X146878488Y-60540038D01*
X146717822Y-60379372D01*
X146679422Y-60349907D01*
X146652412Y-60340076D01*
X146642972Y-60336640D01*
X146585801Y-60294544D01*
X146567667Y-60261335D01*
X146557698Y-60233946D01*
X146554400Y-60224885D01*
X146524935Y-60186485D01*
X146364269Y-60025819D01*
X146325869Y-59996354D01*
X146316808Y-59993056D01*
X146316806Y-59993055D01*
X146289419Y-59983087D01*
X146232247Y-59940992D01*
X146214113Y-59907781D01*
X146204145Y-59880394D01*
X146204144Y-59880392D01*
X146200846Y-59871331D01*
X146171381Y-59832931D01*
X146133640Y-59795190D01*
X146099614Y-59732878D01*
X146104679Y-59662063D01*
X146147226Y-59605227D01*
X146156807Y-59598720D01*
X146195502Y-59574962D01*
X146195505Y-59574959D01*
X146203154Y-59570263D01*
X146214106Y-59558164D01*
X146294873Y-59468934D01*
X146294874Y-59468933D01*
X146300901Y-59462274D01*
X146311486Y-59440428D01*
X146360495Y-59339272D01*
X146360495Y-59339271D01*
X146364410Y-59331191D01*
X146382095Y-59226076D01*
X146387770Y-59192344D01*
X146387770Y-59192341D01*
X146388576Y-59187552D01*
X146388729Y-59175000D01*
X146380803Y-59119657D01*
X146369354Y-59039706D01*
X146369353Y-59039703D01*
X146368080Y-59030813D01*
X146363913Y-59021648D01*
X146311508Y-58906390D01*
X146311507Y-58906388D01*
X146307792Y-58898218D01*
X146212713Y-58787873D01*
X146169294Y-58759730D01*
X146123011Y-58705894D01*
X146113180Y-58635581D01*
X146140830Y-58577026D01*
X146139857Y-58576370D01*
X146144135Y-58570028D01*
X146144410Y-58569445D01*
X146150901Y-58562274D01*
X146156159Y-58551423D01*
X146210495Y-58439272D01*
X146210495Y-58439271D01*
X146214410Y-58431191D01*
X146235151Y-58307908D01*
X146237770Y-58292344D01*
X146237770Y-58292341D01*
X146238576Y-58287552D01*
X146238729Y-58275000D01*
X146233056Y-58235385D01*
X146219354Y-58139706D01*
X146219353Y-58139703D01*
X146218080Y-58130813D01*
X146214362Y-58122635D01*
X146161508Y-58006390D01*
X146161507Y-58006388D01*
X146157792Y-57998218D01*
X146062713Y-57887873D01*
X145940485Y-57808648D01*
X145800934Y-57766914D01*
X145791958Y-57766859D01*
X145791957Y-57766859D01*
X145730644Y-57766485D01*
X145655279Y-57766024D01*
X145646647Y-57768491D01*
X145637756Y-57769709D01*
X145637241Y-57765947D01*
X145583996Y-57765472D01*
X145524615Y-57726557D01*
X145495700Y-57661715D01*
X145502172Y-57601804D01*
X145507007Y-57588520D01*
X145549103Y-57531352D01*
X145582311Y-57513220D01*
X145591243Y-57509969D01*
X145618762Y-57499953D01*
X145657162Y-57470488D01*
X145817828Y-57309822D01*
X145847293Y-57271422D01*
X145855272Y-57249499D01*
X145860560Y-57234972D01*
X145902656Y-57177801D01*
X145935865Y-57159667D01*
X145963254Y-57149698D01*
X145972315Y-57146400D01*
X146010715Y-57116935D01*
X146171381Y-56956269D01*
X146200846Y-56917869D01*
X146214219Y-56881127D01*
X146214336Y-56880806D01*
X146256431Y-56823635D01*
X146289642Y-56805500D01*
X146316555Y-56795704D01*
X146323840Y-56791707D01*
X146328881Y-56784803D01*
X146322249Y-56772827D01*
X146259592Y-56710170D01*
X146230286Y-56664171D01*
X146225285Y-56650432D01*
X146210862Y-56610804D01*
X146206359Y-56539952D01*
X146240876Y-56477912D01*
X146303456Y-56444381D01*
X146372357Y-56449309D01*
X146420224Y-56466731D01*
X146425727Y-56468734D01*
X146471726Y-56498040D01*
X146534109Y-56560423D01*
X146546710Y-56567304D01*
X146553101Y-56562579D01*
X146557260Y-56555000D01*
X146567053Y-56528091D01*
X146609146Y-56470918D01*
X146642358Y-56452783D01*
X146679422Y-56439293D01*
X146717822Y-56409828D01*
X146776588Y-56351062D01*
X146838900Y-56317036D01*
X146909715Y-56322101D01*
G37*
%TD.AperFunction*%
%TA.AperFunction,Conductor*%
G36*
X150723876Y-54309978D02*
G01*
X150773607Y-54340576D01*
X151966829Y-55533798D01*
X151982193Y-55552821D01*
X151983157Y-55553880D01*
X151988804Y-55562626D01*
X151996983Y-55569074D01*
X151996985Y-55569076D01*
X152015352Y-55583556D01*
X152019825Y-55587531D01*
X152019886Y-55587459D01*
X152023843Y-55590812D01*
X152027524Y-55594493D01*
X152031756Y-55597517D01*
X152043314Y-55605777D01*
X152048060Y-55609340D01*
X152088545Y-55641256D01*
X152097230Y-55644306D01*
X152104718Y-55649657D01*
X152154141Y-55664437D01*
X152159715Y-55666249D01*
X152208377Y-55683338D01*
X152213966Y-55683822D01*
X152216677Y-55683822D01*
X152219344Y-55683937D01*
X152219407Y-55683956D01*
X152219400Y-55684130D01*
X152220146Y-55684177D01*
X152226399Y-55686047D01*
X152280563Y-55683919D01*
X152285509Y-55683822D01*
X153369206Y-55683822D01*
X153388865Y-55685365D01*
X153399406Y-55687030D01*
X153409200Y-55688577D01*
X153418992Y-55687022D01*
X153418996Y-55687022D01*
X153438396Y-55683941D01*
X153439383Y-55683822D01*
X153440731Y-55683822D01*
X153444273Y-55683232D01*
X153444277Y-55683232D01*
X153448729Y-55682491D01*
X153457011Y-55681393D01*
X153496080Y-55677530D01*
X153496081Y-55677530D01*
X153502228Y-55676922D01*
X153508142Y-55675126D01*
X153508144Y-55675126D01*
X153518900Y-55671860D01*
X153523768Y-55670382D01*
X153528552Y-55669622D01*
X153529768Y-55669002D01*
X153534322Y-55668244D01*
X153538025Y-55666246D01*
X153538964Y-55666205D01*
X153538843Y-55665805D01*
X153544929Y-55663957D01*
X153591678Y-55649762D01*
X153597652Y-55646568D01*
X153645066Y-55621215D01*
X153646691Y-55620346D01*
X153650356Y-55619155D01*
X153654364Y-55616243D01*
X153658600Y-55613978D01*
X153668659Y-55608600D01*
X153668664Y-55608597D01*
X153674115Y-55605682D01*
X153678898Y-55601757D01*
X153679098Y-55601623D01*
X153685095Y-55598201D01*
X153690248Y-55594874D01*
X153697398Y-55591440D01*
X153701692Y-55587830D01*
X153716513Y-55573009D01*
X153731548Y-55560167D01*
X153740100Y-55553954D01*
X153740101Y-55553953D01*
X153748124Y-55548124D01*
X153760166Y-55531550D01*
X153773003Y-55516519D01*
X153874405Y-55415118D01*
X153936717Y-55381093D01*
X154007533Y-55386159D01*
X154064369Y-55428706D01*
X154089179Y-55495226D01*
X154089500Y-55504214D01*
X154089501Y-56895109D01*
X154069499Y-56963230D01*
X154015843Y-57009723D01*
X153998386Y-57016183D01*
X153946373Y-57031169D01*
X153787470Y-57076951D01*
X153787463Y-57076953D01*
X153784070Y-57077931D01*
X153770119Y-57083710D01*
X153579462Y-57162686D01*
X153579457Y-57162689D01*
X153576199Y-57164038D01*
X153573106Y-57165748D01*
X153573105Y-57165748D01*
X153496443Y-57208119D01*
X153379275Y-57272877D01*
X153376383Y-57274929D01*
X153198663Y-57401029D01*
X153198654Y-57401036D01*
X153195775Y-57403079D01*
X153193144Y-57405430D01*
X153193138Y-57405435D01*
X153137932Y-57454771D01*
X153052239Y-57531352D01*
X153044435Y-57538326D01*
X153035051Y-57545895D01*
X153034899Y-57546047D01*
X153026876Y-57551876D01*
X153021047Y-57559899D01*
X153021046Y-57559900D01*
X153020347Y-57560863D01*
X153013143Y-57569879D01*
X152931150Y-57663375D01*
X152899090Y-57699932D01*
X152790495Y-57862458D01*
X152783264Y-57877121D01*
X152705867Y-58034068D01*
X152705864Y-58034076D01*
X152704043Y-58037768D01*
X152702719Y-58041669D01*
X152702718Y-58041671D01*
X152692547Y-58071636D01*
X152641214Y-58222863D01*
X152640410Y-58226905D01*
X152640409Y-58226909D01*
X152606598Y-58396901D01*
X152603082Y-58414576D01*
X152602813Y-58418688D01*
X152602812Y-58418692D01*
X152600517Y-58453719D01*
X152595171Y-58535304D01*
X152595114Y-58536168D01*
X152594248Y-58542368D01*
X152593984Y-58543121D01*
X152593500Y-58548710D01*
X152593500Y-58556684D01*
X152593232Y-58564895D01*
X152591775Y-58587128D01*
X152590498Y-58598553D01*
X152588745Y-58609626D01*
X152591948Y-58629845D01*
X152593500Y-58649559D01*
X152593500Y-60494711D01*
X152573498Y-60562832D01*
X152519842Y-60609325D01*
X152504074Y-60615286D01*
X152452295Y-60630992D01*
X152428074Y-60635810D01*
X152414103Y-60637186D01*
X152384604Y-60640092D01*
X152369712Y-60639653D01*
X152369712Y-60640296D01*
X152359792Y-60640296D01*
X152350000Y-60638745D01*
X152340207Y-60640296D01*
X152334123Y-60640296D01*
X152314737Y-60641184D01*
X152138191Y-60629613D01*
X152121850Y-60627462D01*
X151991871Y-60601608D01*
X151921755Y-60587661D01*
X151905841Y-60583397D01*
X151806297Y-60549606D01*
X151748222Y-60508770D01*
X151721443Y-60443017D01*
X151734464Y-60373225D01*
X151744479Y-60357333D01*
X151745769Y-60354982D01*
X151751635Y-60347337D01*
X151765125Y-60310273D01*
X151807217Y-60253104D01*
X151840433Y-60234967D01*
X151867342Y-60225174D01*
X151874628Y-60221176D01*
X151879669Y-60214271D01*
X151873037Y-60202295D01*
X151810381Y-60139639D01*
X151781075Y-60093639D01*
X151760300Y-60036560D01*
X151751635Y-60012754D01*
X151745768Y-60005108D01*
X151741131Y-59996655D01*
X151742949Y-59995657D01*
X151721852Y-59941079D01*
X151736118Y-59871531D01*
X151785721Y-59820736D01*
X151854911Y-59804822D01*
X151921721Y-59828841D01*
X151936510Y-59841504D01*
X152084897Y-59989891D01*
X152097498Y-59996772D01*
X152103888Y-59992048D01*
X152108047Y-59984467D01*
X152140659Y-59894865D01*
X152144431Y-59873475D01*
X152144431Y-59779507D01*
X152140659Y-59758117D01*
X152108048Y-59668516D01*
X152098877Y-59651801D01*
X152077847Y-59624395D01*
X152072401Y-59618185D01*
X151689650Y-59235434D01*
X151675706Y-59227820D01*
X151673873Y-59227951D01*
X151667258Y-59232202D01*
X151510045Y-59389415D01*
X151502431Y-59403359D01*
X151503429Y-59417314D01*
X151517607Y-59465599D01*
X151497606Y-59533720D01*
X151443951Y-59580213D01*
X151373677Y-59590318D01*
X151309096Y-59560825D01*
X151302512Y-59554695D01*
X151127158Y-59379341D01*
X151093132Y-59317029D01*
X151098197Y-59246214D01*
X151140744Y-59189378D01*
X151207264Y-59164567D01*
X151276640Y-59179659D01*
X151286233Y-59184897D01*
X151288066Y-59184766D01*
X151294681Y-59180515D01*
X151451894Y-59023302D01*
X151459508Y-59009358D01*
X151459377Y-59007525D01*
X151455126Y-59000910D01*
X151069143Y-58614927D01*
X151062933Y-58609481D01*
X151035527Y-58588451D01*
X151018812Y-58579280D01*
X150929211Y-58546669D01*
X150907821Y-58542897D01*
X150813853Y-58542897D01*
X150792463Y-58546669D01*
X150702861Y-58579281D01*
X150695574Y-58583279D01*
X150690533Y-58590183D01*
X150697165Y-58602159D01*
X150845825Y-58750819D01*
X150879851Y-58813131D01*
X150874786Y-58883946D01*
X150832239Y-58940782D01*
X150765719Y-58965593D01*
X150696345Y-58950502D01*
X150684704Y-58942923D01*
X150682221Y-58941561D01*
X150674575Y-58935694D01*
X150593690Y-58906254D01*
X150547690Y-58876948D01*
X150485305Y-58814563D01*
X150472704Y-58807682D01*
X150466314Y-58812406D01*
X150462156Y-58819985D01*
X150452360Y-58846898D01*
X150410265Y-58904069D01*
X150377055Y-58922204D01*
X150356985Y-58929509D01*
X150339992Y-58935694D01*
X150301592Y-58965159D01*
X150226562Y-59040189D01*
X150164250Y-59074215D01*
X150093435Y-59069150D01*
X150048372Y-59040189D01*
X149047405Y-58039222D01*
X149013379Y-57976910D01*
X149010500Y-57950127D01*
X149010500Y-56892590D01*
X149017618Y-56850840D01*
X149023802Y-56833231D01*
X149030414Y-56817784D01*
X149041170Y-56796675D01*
X149089917Y-56745061D01*
X149158832Y-56727995D01*
X149226034Y-56750896D01*
X149236517Y-56759150D01*
X149238005Y-56760455D01*
X149240931Y-56763381D01*
X149279331Y-56792846D01*
X149288392Y-56796144D01*
X149288394Y-56796145D01*
X149315781Y-56806113D01*
X149372953Y-56848208D01*
X149391087Y-56881419D01*
X149397643Y-56899430D01*
X149404354Y-56917869D01*
X149433819Y-56956269D01*
X149594485Y-57116935D01*
X149632885Y-57146400D01*
X149641946Y-57149698D01*
X149669335Y-57159667D01*
X149726506Y-57201763D01*
X149744640Y-57234972D01*
X149749928Y-57249499D01*
X149757907Y-57271422D01*
X149787372Y-57309822D01*
X149948038Y-57470488D01*
X149986438Y-57499953D01*
X150023502Y-57513443D01*
X150080671Y-57555535D01*
X150098808Y-57588751D01*
X150108601Y-57615660D01*
X150112599Y-57622946D01*
X150119504Y-57627987D01*
X150131480Y-57621355D01*
X150194136Y-57558699D01*
X150240136Y-57529393D01*
X150257181Y-57523189D01*
X150293503Y-57509969D01*
X150364355Y-57505466D01*
X150426396Y-57539984D01*
X150459926Y-57602564D01*
X150454998Y-57671465D01*
X150435574Y-57724831D01*
X150406268Y-57770831D01*
X150343884Y-57833215D01*
X150337003Y-57845816D01*
X150341728Y-57852207D01*
X150349307Y-57856366D01*
X150376216Y-57866159D01*
X150433389Y-57908252D01*
X150451523Y-57941462D01*
X150465014Y-57978529D01*
X150494479Y-58016929D01*
X150655145Y-58177595D01*
X150693545Y-58207060D01*
X150748080Y-58226909D01*
X150784910Y-58240314D01*
X150802738Y-58246803D01*
X150918936Y-58246803D01*
X150936765Y-58240314D01*
X150984710Y-58222863D01*
X151028128Y-58207060D01*
X151066529Y-58177595D01*
X152075723Y-57168401D01*
X152105188Y-57130000D01*
X152144931Y-57020808D01*
X152144931Y-56904610D01*
X152136332Y-56880983D01*
X152122826Y-56843876D01*
X152105188Y-56795417D01*
X152075723Y-56757017D01*
X151915057Y-56596351D01*
X151876657Y-56566886D01*
X151858900Y-56560423D01*
X151839594Y-56553396D01*
X151782423Y-56511301D01*
X151764289Y-56478090D01*
X151754493Y-56451177D01*
X151750496Y-56443892D01*
X151743592Y-56438851D01*
X151731616Y-56445483D01*
X151668959Y-56508140D01*
X151622959Y-56537446D01*
X151569592Y-56556870D01*
X151498740Y-56561373D01*
X151436699Y-56526855D01*
X151403169Y-56464275D01*
X151408097Y-56395374D01*
X151427521Y-56342008D01*
X151456827Y-56296008D01*
X151519212Y-56233623D01*
X151526093Y-56221022D01*
X151521369Y-56214632D01*
X151513790Y-56210474D01*
X151486877Y-56200678D01*
X151429706Y-56158583D01*
X151411571Y-56125373D01*
X151401379Y-56097371D01*
X151398081Y-56088310D01*
X151368616Y-56049910D01*
X151207950Y-55889244D01*
X151169550Y-55859779D01*
X151133100Y-55846512D01*
X151075929Y-55804416D01*
X151057795Y-55771207D01*
X151047826Y-55743818D01*
X151044528Y-55734757D01*
X151015063Y-55696357D01*
X150854397Y-55535691D01*
X150815997Y-55506226D01*
X150806936Y-55502928D01*
X150806934Y-55502927D01*
X150779547Y-55492959D01*
X150722375Y-55450864D01*
X150704241Y-55417653D01*
X150694273Y-55390266D01*
X150694272Y-55390264D01*
X150690974Y-55381203D01*
X150661509Y-55342803D01*
X150500843Y-55182137D01*
X150462443Y-55152672D01*
X150425993Y-55139405D01*
X150368822Y-55097309D01*
X150350688Y-55064100D01*
X150340719Y-55036711D01*
X150337421Y-55027650D01*
X150307956Y-54989250D01*
X150217161Y-54898455D01*
X150183135Y-54836143D01*
X150188200Y-54765328D01*
X150217161Y-54720265D01*
X150491108Y-54446318D01*
X150491135Y-54446289D01*
X150492712Y-54444712D01*
X150503417Y-54435274D01*
X150512057Y-54430612D01*
X150519126Y-54422965D01*
X150522968Y-54419985D01*
X150526556Y-54416720D01*
X150535304Y-54411071D01*
X150562281Y-54376851D01*
X150568697Y-54369338D01*
X150591989Y-54344141D01*
X150652917Y-54307697D01*
X150723876Y-54309978D01*
G37*
%TD.AperFunction*%
%TA.AperFunction,Conductor*%
G36*
X149536846Y-49652102D02*
G01*
X149583339Y-49705758D01*
X149593443Y-49776032D01*
X149563949Y-49840612D01*
X149544237Y-49858966D01*
X149539263Y-49862689D01*
X149364289Y-50037663D01*
X149361591Y-50041266D01*
X149361591Y-50041267D01*
X149271430Y-50161707D01*
X149214594Y-50204254D01*
X149191901Y-50210378D01*
X149045205Y-50235585D01*
X149045201Y-50235586D01*
X149039510Y-50236564D01*
X148849063Y-50306824D01*
X148674610Y-50410612D01*
X148670270Y-50414418D01*
X148670266Y-50414421D01*
X148560838Y-50510388D01*
X148521992Y-50544455D01*
X148518417Y-50548990D01*
X148518416Y-50548991D01*
X148493846Y-50580158D01*
X148396320Y-50703869D01*
X148393631Y-50708980D01*
X148393629Y-50708983D01*
X148382593Y-50729959D01*
X148301803Y-50883515D01*
X148275590Y-50967934D01*
X148244670Y-51067515D01*
X148241607Y-51077378D01*
X148217748Y-51278964D01*
X148231024Y-51481522D01*
X148232445Y-51487118D01*
X148232446Y-51487123D01*
X148272213Y-51643702D01*
X148280992Y-51678269D01*
X148283409Y-51683512D01*
X148341647Y-51809841D01*
X148365977Y-51862616D01*
X148369310Y-51867332D01*
X148441014Y-51968791D01*
X148483133Y-52028389D01*
X148487275Y-52032424D01*
X148512516Y-52057012D01*
X148628538Y-52170035D01*
X148797320Y-52282812D01*
X148802623Y-52285090D01*
X148802626Y-52285092D01*
X148949089Y-52348017D01*
X148983828Y-52362942D01*
X149123768Y-52394607D01*
X149185794Y-52429150D01*
X149219299Y-52491743D01*
X149213645Y-52562514D01*
X149170626Y-52618994D01*
X149103902Y-52643249D01*
X149095960Y-52643500D01*
X147439940Y-52643500D01*
X147420235Y-52641950D01*
X147420158Y-52641938D01*
X147413811Y-52640933D01*
X147349658Y-52610523D01*
X147312128Y-52550257D01*
X147309067Y-52536188D01*
X147308050Y-52529765D01*
X147306500Y-52510060D01*
X147306500Y-52356690D01*
X147326502Y-52288569D01*
X147370932Y-52246757D01*
X147414876Y-52222147D01*
X147570945Y-52092345D01*
X147601274Y-52055878D01*
X147697053Y-51940718D01*
X147697055Y-51940715D01*
X147700747Y-51936276D01*
X147766824Y-51818288D01*
X147797110Y-51764208D01*
X147797111Y-51764206D01*
X147799934Y-51759165D01*
X147801790Y-51753698D01*
X147801792Y-51753693D01*
X147863328Y-51572414D01*
X147863329Y-51572409D01*
X147865184Y-51566945D01*
X147866012Y-51561236D01*
X147866013Y-51561231D01*
X147885386Y-51427617D01*
X147894312Y-51366053D01*
X147895832Y-51308000D01*
X147880390Y-51139940D01*
X147877787Y-51111613D01*
X147877786Y-51111610D01*
X147877258Y-51105859D01*
X147872053Y-51087405D01*
X147823725Y-50916046D01*
X147823724Y-50916044D01*
X147822157Y-50910487D01*
X147811578Y-50889033D01*
X147734931Y-50733609D01*
X147732376Y-50728428D01*
X147728917Y-50723795D01*
X147692441Y-50674949D01*
X147610920Y-50565779D01*
X147491101Y-50455019D01*
X147466103Y-50431911D01*
X147461858Y-50427987D01*
X147456975Y-50424906D01*
X147456971Y-50424903D01*
X147295064Y-50322748D01*
X147290181Y-50319667D01*
X147101639Y-50244446D01*
X147095979Y-50243320D01*
X147095975Y-50243319D01*
X146908213Y-50205971D01*
X146908210Y-50205971D01*
X146902546Y-50204844D01*
X146896771Y-50204768D01*
X146896767Y-50204768D01*
X146795393Y-50203441D01*
X146699571Y-50202187D01*
X146693874Y-50203166D01*
X146693873Y-50203166D01*
X146572383Y-50224042D01*
X146499510Y-50236564D01*
X146309063Y-50306824D01*
X146134610Y-50410612D01*
X146130270Y-50414418D01*
X146130266Y-50414421D01*
X146020838Y-50510388D01*
X145981992Y-50544455D01*
X145978417Y-50548990D01*
X145978416Y-50548991D01*
X145953846Y-50580158D01*
X145856320Y-50703869D01*
X145853631Y-50708980D01*
X145853629Y-50708983D01*
X145842593Y-50729959D01*
X145761803Y-50883515D01*
X145735590Y-50967934D01*
X145704670Y-51067515D01*
X145701607Y-51077378D01*
X145677748Y-51278964D01*
X145691024Y-51481522D01*
X145692445Y-51487118D01*
X145692446Y-51487123D01*
X145732213Y-51643702D01*
X145740992Y-51678269D01*
X145743409Y-51683512D01*
X145801647Y-51809841D01*
X145825977Y-51862616D01*
X145829310Y-51867332D01*
X145901014Y-51968791D01*
X145943133Y-52028389D01*
X145947275Y-52032424D01*
X145972516Y-52057012D01*
X146088538Y-52170035D01*
X146257320Y-52282812D01*
X146262623Y-52285090D01*
X146262626Y-52285092D01*
X146335807Y-52316532D01*
X146443828Y-52362942D01*
X146449461Y-52364217D01*
X146454953Y-52366001D01*
X146454226Y-52368238D01*
X146507354Y-52397839D01*
X146540845Y-52460440D01*
X146543500Y-52486170D01*
X146543500Y-52510060D01*
X146541949Y-52529771D01*
X146540933Y-52536188D01*
X146538745Y-52550000D01*
X146540297Y-52559797D01*
X146540297Y-52560564D01*
X146540725Y-52563901D01*
X146548271Y-52640511D01*
X146555893Y-52717903D01*
X146604869Y-52879354D01*
X146607785Y-52884809D01*
X146607786Y-52884812D01*
X146671217Y-53003482D01*
X146684401Y-53028148D01*
X146791433Y-53158567D01*
X146921852Y-53265599D01*
X146927310Y-53268516D01*
X146927311Y-53268517D01*
X147065188Y-53342214D01*
X147065191Y-53342215D01*
X147070646Y-53345131D01*
X147232097Y-53394107D01*
X147259789Y-53396834D01*
X147318602Y-53402627D01*
X147328065Y-53404107D01*
X147333502Y-53406016D01*
X147339091Y-53406500D01*
X147351741Y-53406500D01*
X147364089Y-53407107D01*
X147373676Y-53408051D01*
X147386101Y-53409275D01*
X147389437Y-53409703D01*
X147390203Y-53409703D01*
X147400000Y-53411255D01*
X147409792Y-53409704D01*
X147409794Y-53409704D01*
X147420229Y-53408051D01*
X147439940Y-53406500D01*
X147716302Y-53406500D01*
X147784423Y-53426502D01*
X147830916Y-53480158D01*
X147841020Y-53550432D01*
X147810743Y-53615908D01*
X147767758Y-53664580D01*
X147720622Y-53717951D01*
X147716808Y-53726074D01*
X147716807Y-53726076D01*
X147662533Y-53841676D01*
X147658719Y-53849800D01*
X147657339Y-53858665D01*
X147657338Y-53858667D01*
X147637798Y-53984164D01*
X147636309Y-53993724D01*
X147637473Y-54002626D01*
X147637473Y-54002629D01*
X147646915Y-54074832D01*
X147655195Y-54138152D01*
X147658809Y-54146365D01*
X147658810Y-54146369D01*
X147691732Y-54221187D01*
X147713859Y-54271474D01*
X147719634Y-54278344D01*
X147719635Y-54278346D01*
X147785133Y-54356265D01*
X147807583Y-54382973D01*
X147821024Y-54391920D01*
X147921361Y-54458710D01*
X147921363Y-54458711D01*
X147928834Y-54463684D01*
X148067864Y-54507121D01*
X148213498Y-54509790D01*
X148261378Y-54496736D01*
X148332361Y-54498115D01*
X148391330Y-54537652D01*
X148418970Y-54598591D01*
X148422659Y-54621886D01*
X148423973Y-54630186D01*
X148425524Y-54649899D01*
X148425524Y-54650414D01*
X148423972Y-54660211D01*
X148425523Y-54670007D01*
X148425523Y-54672569D01*
X148405518Y-54740688D01*
X148388618Y-54761658D01*
X148019605Y-55130671D01*
X147990140Y-55169072D01*
X147988325Y-55174058D01*
X147939680Y-55222510D01*
X147870276Y-55237463D01*
X147803805Y-55212520D01*
X147790419Y-55200897D01*
X147656723Y-55067200D01*
X147378258Y-54788735D01*
X147365428Y-54773715D01*
X147353375Y-54757128D01*
X147345352Y-54751300D01*
X147345350Y-54751298D01*
X147343635Y-54750052D01*
X147337767Y-54745519D01*
X147237967Y-54663630D01*
X147233179Y-54659701D01*
X147141113Y-54610500D01*
X147102263Y-54589738D01*
X147102260Y-54589737D01*
X147096804Y-54586821D01*
X147090884Y-54585026D01*
X147090880Y-54585024D01*
X147047986Y-54572016D01*
X146995458Y-54540534D01*
X146576401Y-54121477D01*
X146538000Y-54092012D01*
X146528945Y-54088716D01*
X146528943Y-54088715D01*
X146527152Y-54088063D01*
X146523415Y-54085682D01*
X146520491Y-54084078D01*
X146520596Y-54083886D01*
X146481155Y-54058758D01*
X146017408Y-53595011D01*
X145995615Y-53565749D01*
X145980612Y-53537943D01*
X145972969Y-53530878D01*
X145969989Y-53527035D01*
X145966717Y-53523440D01*
X145961071Y-53514696D01*
X145926851Y-53487719D01*
X145919336Y-53481301D01*
X145887348Y-53451731D01*
X145877823Y-53447520D01*
X145873759Y-53444850D01*
X145869509Y-53442514D01*
X145861330Y-53436066D01*
X145820227Y-53421631D01*
X145811034Y-53417992D01*
X145795795Y-53411255D01*
X145771187Y-53400376D01*
X145760815Y-53399477D01*
X145753142Y-53397507D01*
X145748977Y-53396610D01*
X145741498Y-53393984D01*
X145735909Y-53393500D01*
X145697241Y-53393500D01*
X145686369Y-53393030D01*
X145644654Y-53389417D01*
X145634545Y-53391928D01*
X145624163Y-53392745D01*
X145624113Y-53392116D01*
X145612801Y-53393500D01*
X137439940Y-53393500D01*
X137420229Y-53391949D01*
X137409794Y-53390296D01*
X137409792Y-53390296D01*
X137400000Y-53388745D01*
X137395247Y-53389498D01*
X137386114Y-53390297D01*
X137386113Y-53390297D01*
X137363128Y-53392308D01*
X137198409Y-53406719D01*
X137193096Y-53408143D01*
X137193094Y-53408143D01*
X137008253Y-53457671D01*
X137008251Y-53457672D01*
X137002943Y-53459094D01*
X136997962Y-53461416D01*
X136997961Y-53461417D01*
X136824522Y-53542293D01*
X136824519Y-53542295D01*
X136819541Y-53544616D01*
X136653776Y-53660685D01*
X136510685Y-53803776D01*
X136394616Y-53969541D01*
X136392295Y-53974519D01*
X136392293Y-53974522D01*
X136312150Y-54146390D01*
X136309094Y-54152943D01*
X136307672Y-54158251D01*
X136307671Y-54158253D01*
X136294015Y-54209219D01*
X136256719Y-54348409D01*
X136247810Y-54450237D01*
X136245517Y-54476450D01*
X136244806Y-54481160D01*
X136243984Y-54483502D01*
X136243500Y-54489091D01*
X136243500Y-54493997D01*
X136243020Y-54504979D01*
X136240297Y-54536102D01*
X136240297Y-54536114D01*
X136239498Y-54545247D01*
X136238745Y-54550000D01*
X136240296Y-54559792D01*
X136240296Y-54559794D01*
X136241949Y-54570229D01*
X136243500Y-54589940D01*
X136243500Y-54821575D01*
X136223498Y-54889696D01*
X136218327Y-54897139D01*
X136154755Y-54981964D01*
X136154754Y-54981965D01*
X136149372Y-54989147D01*
X136146222Y-54997548D01*
X136146221Y-54997551D01*
X136121324Y-55063964D01*
X136101786Y-55116081D01*
X136100933Y-55123934D01*
X136100932Y-55123938D01*
X136096020Y-55169159D01*
X136095500Y-55173947D01*
X136095501Y-55776052D01*
X136101786Y-55833919D01*
X136110244Y-55856481D01*
X136145385Y-55950217D01*
X136149372Y-55960853D01*
X136230670Y-56069330D01*
X136237850Y-56074711D01*
X136280564Y-56106723D01*
X136323080Y-56163582D01*
X136331000Y-56207550D01*
X136331000Y-56742450D01*
X136310998Y-56810571D01*
X136280564Y-56843277D01*
X136270473Y-56850840D01*
X136230670Y-56880670D01*
X136149372Y-56989147D01*
X136146222Y-56997548D01*
X136146221Y-56997551D01*
X136135682Y-57025665D01*
X136101786Y-57116081D01*
X136100933Y-57123934D01*
X136100932Y-57123938D01*
X136096102Y-57168401D01*
X136095500Y-57173947D01*
X136095501Y-57776052D01*
X136101786Y-57833919D01*
X136116008Y-57871856D01*
X136145912Y-57951623D01*
X136149372Y-57960853D01*
X136230670Y-58069330D01*
X136339147Y-58150628D01*
X136347548Y-58153778D01*
X136347551Y-58153779D01*
X136417792Y-58180111D01*
X136466081Y-58198214D01*
X136473934Y-58199067D01*
X136473938Y-58199068D01*
X136520548Y-58204131D01*
X136520552Y-58204131D01*
X136523947Y-58204500D01*
X136787461Y-58204500D01*
X137051052Y-58204499D01*
X137108919Y-58198214D01*
X137163919Y-58177595D01*
X137227449Y-58153779D01*
X137227452Y-58153778D01*
X137235853Y-58150628D01*
X137344330Y-58069330D01*
X137425628Y-57960853D01*
X137429089Y-57951623D01*
X137457018Y-57877121D01*
X137499660Y-57820357D01*
X137566221Y-57795657D01*
X137635570Y-57810865D01*
X137685688Y-57861151D01*
X137692982Y-57877121D01*
X137720912Y-57951623D01*
X137724372Y-57960853D01*
X137805670Y-58069330D01*
X137914147Y-58150628D01*
X137922548Y-58153778D01*
X137922551Y-58153779D01*
X137992792Y-58180111D01*
X138041081Y-58198214D01*
X138048934Y-58199067D01*
X138048938Y-58199068D01*
X138095548Y-58204131D01*
X138095552Y-58204131D01*
X138098947Y-58204500D01*
X138362461Y-58204500D01*
X138626052Y-58204499D01*
X138683919Y-58198214D01*
X138738919Y-58177595D01*
X138802449Y-58153779D01*
X138802452Y-58153778D01*
X138810853Y-58150628D01*
X138919330Y-58069330D01*
X138921109Y-58066956D01*
X138980768Y-58034379D01*
X139007551Y-58031500D01*
X139164787Y-58031500D01*
X139232908Y-58051502D01*
X139253882Y-58068404D01*
X139353676Y-58168199D01*
X139451998Y-58266521D01*
X139464838Y-58281555D01*
X139476876Y-58298124D01*
X139480001Y-58300394D01*
X139512417Y-58359758D01*
X139514705Y-58381048D01*
X139513745Y-58387108D01*
X139515295Y-58396898D01*
X139515295Y-58396901D01*
X139516950Y-58407351D01*
X139518500Y-58427055D01*
X139518500Y-59135060D01*
X139516949Y-59154771D01*
X139513745Y-59175000D01*
X139514712Y-59181107D01*
X139531434Y-59372233D01*
X139556451Y-59465599D01*
X139576466Y-59540296D01*
X139582676Y-59563474D01*
X139584998Y-59568455D01*
X139584999Y-59568456D01*
X139664023Y-59737924D01*
X139664026Y-59737929D01*
X139666349Y-59742911D01*
X139718856Y-59817898D01*
X139776541Y-59900280D01*
X139779910Y-59905092D01*
X139919908Y-60045090D01*
X139924417Y-60048247D01*
X139924419Y-60048249D01*
X139980884Y-60087786D01*
X140082089Y-60158651D01*
X140087071Y-60160974D01*
X140087076Y-60160977D01*
X140227173Y-60226305D01*
X140280458Y-60273222D01*
X140299919Y-60341500D01*
X140279377Y-60409460D01*
X140225354Y-60455525D01*
X140173923Y-60466500D01*
X136037467Y-60466500D01*
X135969346Y-60446498D01*
X135941659Y-60422333D01*
X135884598Y-60355523D01*
X135872983Y-60339536D01*
X135872216Y-60338283D01*
X135809651Y-60236186D01*
X135800676Y-60218571D01*
X135754293Y-60106588D01*
X135748184Y-60087786D01*
X135745915Y-60078335D01*
X135719890Y-59969925D01*
X135716798Y-59950400D01*
X135716490Y-59946477D01*
X135713885Y-59913371D01*
X135728483Y-59843891D01*
X135778327Y-59793333D01*
X135847592Y-59777749D01*
X135860295Y-59779516D01*
X135864568Y-59781016D01*
X135870157Y-59781500D01*
X135891095Y-59781500D01*
X135910821Y-59783054D01*
X135931015Y-59786255D01*
X135940810Y-59784705D01*
X135940811Y-59784705D01*
X135951274Y-59783049D01*
X135970969Y-59781500D01*
X136022924Y-59781500D01*
X136091045Y-59801502D01*
X136137538Y-59855158D01*
X136140906Y-59863270D01*
X136146216Y-59877434D01*
X136149372Y-59885853D01*
X136230670Y-59994330D01*
X136339147Y-60075628D01*
X136347548Y-60078778D01*
X136347551Y-60078779D01*
X136400784Y-60098735D01*
X136466081Y-60123214D01*
X136473934Y-60124067D01*
X136473938Y-60124068D01*
X136520548Y-60129131D01*
X136520552Y-60129131D01*
X136523947Y-60129500D01*
X136787461Y-60129500D01*
X137051052Y-60129499D01*
X137108919Y-60123214D01*
X137174216Y-60098735D01*
X137227449Y-60078779D01*
X137227452Y-60078778D01*
X137235853Y-60075628D01*
X137344330Y-59994330D01*
X137425628Y-59885853D01*
X137428785Y-59877434D01*
X137457286Y-59801407D01*
X137499928Y-59744642D01*
X137566490Y-59719943D01*
X137635839Y-59735151D01*
X137685957Y-59785437D01*
X137693250Y-59801409D01*
X137721664Y-59877205D01*
X137730197Y-59892792D01*
X137800647Y-59986792D01*
X137813208Y-59999353D01*
X137907208Y-60069803D01*
X137922793Y-60078335D01*
X138033794Y-60119946D01*
X138049041Y-60123572D01*
X138092713Y-60128316D01*
X138105624Y-60124525D01*
X138106829Y-60123135D01*
X138108500Y-60115452D01*
X138108500Y-60110884D01*
X138616500Y-60110884D01*
X138620975Y-60126123D01*
X138622365Y-60127328D01*
X138628558Y-60128675D01*
X138629394Y-60128630D01*
X138675952Y-60123573D01*
X138691211Y-60119944D01*
X138802207Y-60078335D01*
X138817792Y-60069803D01*
X138911792Y-59999353D01*
X138924353Y-59986792D01*
X138994803Y-59892792D01*
X139003335Y-59877207D01*
X139044946Y-59766206D01*
X139048572Y-59750959D01*
X139053632Y-59704381D01*
X139054000Y-59697579D01*
X139054000Y-59672115D01*
X139049525Y-59656876D01*
X139048135Y-59655671D01*
X139040452Y-59654000D01*
X138634615Y-59654000D01*
X138619376Y-59658475D01*
X138618171Y-59659865D01*
X138616500Y-59667548D01*
X138616500Y-60110884D01*
X138108500Y-60110884D01*
X138108500Y-59127885D01*
X138616500Y-59127885D01*
X138620975Y-59143124D01*
X138622365Y-59144329D01*
X138630048Y-59146000D01*
X139035884Y-59146000D01*
X139051123Y-59141525D01*
X139052328Y-59140135D01*
X139053999Y-59132452D01*
X139053999Y-59102424D01*
X139053630Y-59095606D01*
X139048573Y-59049048D01*
X139044944Y-59033789D01*
X139003335Y-58922793D01*
X138994803Y-58907208D01*
X138924353Y-58813208D01*
X138911792Y-58800647D01*
X138817792Y-58730197D01*
X138802207Y-58721665D01*
X138691206Y-58680054D01*
X138675959Y-58676428D01*
X138632287Y-58671684D01*
X138619376Y-58675475D01*
X138618171Y-58676865D01*
X138616500Y-58684548D01*
X138616500Y-59127885D01*
X138108500Y-59127885D01*
X138108500Y-58689116D01*
X138104025Y-58673877D01*
X138102635Y-58672672D01*
X138096442Y-58671325D01*
X138095606Y-58671370D01*
X138049048Y-58676427D01*
X138033789Y-58680056D01*
X137922793Y-58721665D01*
X137907208Y-58730197D01*
X137813208Y-58800647D01*
X137800647Y-58813208D01*
X137730197Y-58907208D01*
X137721664Y-58922795D01*
X137693250Y-58998591D01*
X137650609Y-59055356D01*
X137584048Y-59080057D01*
X137514699Y-59064850D01*
X137464580Y-59014565D01*
X137457286Y-58998593D01*
X137428779Y-58922551D01*
X137428778Y-58922548D01*
X137425628Y-58914147D01*
X137344330Y-58805670D01*
X137235853Y-58724372D01*
X137227452Y-58721222D01*
X137227449Y-58721221D01*
X137119074Y-58680593D01*
X137108919Y-58676786D01*
X137101066Y-58675933D01*
X137101062Y-58675932D01*
X137054452Y-58670869D01*
X137054448Y-58670869D01*
X137051053Y-58670500D01*
X136787539Y-58670500D01*
X136523948Y-58670501D01*
X136466081Y-58676786D01*
X136428854Y-58690742D01*
X136347551Y-58721221D01*
X136347548Y-58721222D01*
X136339147Y-58724372D01*
X136230670Y-58805670D01*
X136149372Y-58914147D01*
X136144258Y-58927789D01*
X136101617Y-58984555D01*
X136035056Y-59009256D01*
X135965707Y-58994050D01*
X135937180Y-58972657D01*
X135848006Y-58883483D01*
X135835164Y-58868448D01*
X135828950Y-58859895D01*
X135823124Y-58851876D01*
X135819999Y-58849606D01*
X135787583Y-58790242D01*
X135785295Y-58768952D01*
X135786255Y-58762892D01*
X135783050Y-58742649D01*
X135781500Y-58722945D01*
X135781500Y-56032394D01*
X135783051Y-56012686D01*
X135784704Y-56002250D01*
X135784704Y-56002248D01*
X135786255Y-55992454D01*
X135784703Y-55982657D01*
X135784703Y-55981106D01*
X135783862Y-55973251D01*
X135783433Y-55965610D01*
X135771245Y-55748665D01*
X135735056Y-55535691D01*
X135730934Y-55511431D01*
X135730933Y-55511429D01*
X135730341Y-55507942D01*
X135728897Y-55502928D01*
X135663723Y-55276716D01*
X135663721Y-55276712D01*
X135662742Y-55273312D01*
X135569298Y-55047726D01*
X135558202Y-55027650D01*
X135452893Y-54837110D01*
X135452891Y-54837107D01*
X135451185Y-54834020D01*
X135309888Y-54634883D01*
X135307527Y-54632241D01*
X135307523Y-54632236D01*
X135160111Y-54467283D01*
X135155000Y-54460947D01*
X135153955Y-54459902D01*
X135148124Y-54451876D01*
X135147466Y-54451398D01*
X135140093Y-54446041D01*
X135140091Y-54446039D01*
X135139772Y-54445807D01*
X135132006Y-54439685D01*
X135077277Y-54392942D01*
X135009667Y-54335197D01*
X134855368Y-54240643D01*
X134850798Y-54238750D01*
X134850794Y-54238748D01*
X134692750Y-54173284D01*
X134692748Y-54173283D01*
X134688177Y-54171390D01*
X134512211Y-54129144D01*
X134407983Y-54120940D01*
X134400933Y-54119908D01*
X134398300Y-54118984D01*
X134392711Y-54118500D01*
X134381931Y-54118500D01*
X134372045Y-54118112D01*
X134357281Y-54116950D01*
X134351791Y-54116518D01*
X134341969Y-54115355D01*
X134331803Y-54113745D01*
X134322011Y-54115296D01*
X134322010Y-54115296D01*
X134311574Y-54116949D01*
X134291863Y-54118500D01*
X132272765Y-54118500D01*
X132253062Y-54116950D01*
X132237795Y-54114533D01*
X132173641Y-54084123D01*
X132136111Y-54023857D01*
X132131500Y-53990083D01*
X132131500Y-53389940D01*
X132133051Y-53370229D01*
X132134704Y-53359793D01*
X132134704Y-53359792D01*
X132136255Y-53350000D01*
X132134861Y-53341199D01*
X132134704Y-53339404D01*
X132134704Y-53338661D01*
X132134477Y-53336814D01*
X132134318Y-53334989D01*
X132119138Y-53161482D01*
X132070159Y-52978692D01*
X132007903Y-52845183D01*
X131992507Y-52812166D01*
X131992505Y-52812163D01*
X131990184Y-52807185D01*
X131881642Y-52652170D01*
X131747830Y-52518358D01*
X131743322Y-52515201D01*
X131743319Y-52515199D01*
X131597325Y-52412973D01*
X131597323Y-52412972D01*
X131592816Y-52409816D01*
X131587834Y-52407493D01*
X131587829Y-52407490D01*
X131492294Y-52362942D01*
X131421308Y-52329841D01*
X131238518Y-52280862D01*
X131166221Y-52274537D01*
X131125793Y-52271000D01*
X131119562Y-52270060D01*
X131116498Y-52268984D01*
X131110909Y-52268500D01*
X131102724Y-52268500D01*
X131091744Y-52268021D01*
X131084553Y-52267392D01*
X131063179Y-52265522D01*
X131061339Y-52265296D01*
X131060596Y-52265296D01*
X131058801Y-52265139D01*
X131050000Y-52263745D01*
X131040208Y-52265296D01*
X131040207Y-52265296D01*
X131029771Y-52266949D01*
X131010060Y-52268500D01*
X129908634Y-52268500D01*
X129840513Y-52248498D01*
X129794020Y-52194842D01*
X129789751Y-52184249D01*
X129787231Y-52177073D01*
X129781209Y-52159924D01*
X129775617Y-52152354D01*
X129775616Y-52152351D01*
X129705602Y-52057561D01*
X129700010Y-52049990D01*
X129590076Y-51968791D01*
X129461127Y-51923507D01*
X129453485Y-51922785D01*
X129453482Y-51922784D01*
X129438579Y-51921376D01*
X129429315Y-51920500D01*
X129175172Y-51920500D01*
X128920686Y-51920501D01*
X128917738Y-51920780D01*
X128917729Y-51920780D01*
X128896522Y-51922784D01*
X128896520Y-51922784D01*
X128888873Y-51923507D01*
X128759924Y-51968791D01*
X128649990Y-52049990D01*
X128568791Y-52159924D01*
X128523507Y-52288873D01*
X128520500Y-52320685D01*
X128520501Y-52979314D01*
X128520780Y-52982262D01*
X128520780Y-52982271D01*
X128522204Y-52997339D01*
X128523507Y-53011127D01*
X128568791Y-53140076D01*
X128649990Y-53250010D01*
X128759924Y-53331209D01*
X128888873Y-53376493D01*
X128896515Y-53377215D01*
X128896518Y-53377216D01*
X128911421Y-53378624D01*
X128920685Y-53379500D01*
X129174828Y-53379500D01*
X129429314Y-53379499D01*
X129432262Y-53379220D01*
X129432271Y-53379220D01*
X129453478Y-53377216D01*
X129453480Y-53377216D01*
X129461127Y-53376493D01*
X129590076Y-53331209D01*
X129700010Y-53250010D01*
X129741098Y-53194382D01*
X129775616Y-53147649D01*
X129775617Y-53147646D01*
X129781209Y-53140076D01*
X129789752Y-53115750D01*
X129831195Y-53058106D01*
X129897224Y-53032018D01*
X129908634Y-53031500D01*
X131010060Y-53031500D01*
X131029771Y-53033051D01*
X131040205Y-53034704D01*
X131040208Y-53034704D01*
X131050000Y-53036255D01*
X131059797Y-53034703D01*
X131060305Y-53034703D01*
X131080018Y-53036254D01*
X131128712Y-53043966D01*
X131166203Y-53056148D01*
X131198355Y-53072530D01*
X131219431Y-53083269D01*
X131251323Y-53106441D01*
X131293559Y-53148677D01*
X131316731Y-53180569D01*
X131343852Y-53233797D01*
X131356034Y-53271288D01*
X131357586Y-53281085D01*
X131363746Y-53319980D01*
X131365297Y-53339695D01*
X131365297Y-53340203D01*
X131363745Y-53350000D01*
X131365296Y-53359792D01*
X131365296Y-53359795D01*
X131366949Y-53370229D01*
X131368500Y-53389940D01*
X131368500Y-54014866D01*
X131348498Y-54082987D01*
X131294842Y-54129480D01*
X131224568Y-54139584D01*
X131194292Y-54131278D01*
X131126481Y-54103194D01*
X130934589Y-54057133D01*
X130929654Y-54056745D01*
X130929649Y-54056744D01*
X130872755Y-54052269D01*
X130826587Y-54048637D01*
X130811210Y-54046387D01*
X130804366Y-54043984D01*
X130798777Y-54043500D01*
X130766226Y-54043500D01*
X130756350Y-54043112D01*
X130753946Y-54042923D01*
X130748851Y-54042320D01*
X130747646Y-54042320D01*
X130737854Y-54040769D01*
X130728058Y-54042321D01*
X130725677Y-54042321D01*
X130710697Y-54043500D01*
X129989940Y-54043500D01*
X129970229Y-54041949D01*
X129959793Y-54040296D01*
X129959792Y-54040296D01*
X129950000Y-54038745D01*
X129940208Y-54040296D01*
X129940207Y-54040296D01*
X129929771Y-54041949D01*
X129910060Y-54043500D01*
X129339940Y-54043500D01*
X129320229Y-54041949D01*
X129309794Y-54040296D01*
X129309792Y-54040296D01*
X129300000Y-54038745D01*
X129290205Y-54040297D01*
X129280290Y-54040297D01*
X129280290Y-54040154D01*
X129265079Y-54040752D01*
X129091894Y-54027122D01*
X129072366Y-54024029D01*
X129034200Y-54014866D01*
X128879022Y-53977611D01*
X128860226Y-53971503D01*
X128739190Y-53921369D01*
X128676527Y-53895413D01*
X128658910Y-53886437D01*
X128489376Y-53782546D01*
X128473381Y-53770924D01*
X128322188Y-53641793D01*
X128308207Y-53627812D01*
X128179076Y-53476619D01*
X128167454Y-53460624D01*
X128088023Y-53331005D01*
X128069485Y-53262472D01*
X128094105Y-53190310D01*
X128097033Y-53186347D01*
X128131209Y-53140076D01*
X128176493Y-53011127D01*
X128177797Y-52997339D01*
X128179057Y-52984003D01*
X128179500Y-52979315D01*
X128179499Y-52320686D01*
X128176493Y-52288873D01*
X128131209Y-52159924D01*
X128050010Y-52049990D01*
X127957640Y-51981764D01*
X127914730Y-51925203D01*
X127906500Y-51880413D01*
X127906500Y-51574962D01*
X133015271Y-51574962D01*
X133040043Y-51672502D01*
X133043884Y-51683348D01*
X133123994Y-51857120D01*
X133129745Y-51867081D01*
X133240179Y-52023343D01*
X133247657Y-52032098D01*
X133384714Y-52165612D01*
X133393658Y-52172855D01*
X133552756Y-52279161D01*
X133562866Y-52284651D01*
X133738677Y-52360185D01*
X133749620Y-52363740D01*
X133814932Y-52378519D01*
X133829005Y-52377630D01*
X133832428Y-52368681D01*
X134340600Y-52368681D01*
X134344566Y-52382187D01*
X134353272Y-52383433D01*
X134532097Y-52322730D01*
X134542594Y-52318056D01*
X134709558Y-52224552D01*
X134719030Y-52218042D01*
X134866153Y-52095682D01*
X134874282Y-52087553D01*
X134996642Y-51940430D01*
X135003152Y-51930958D01*
X135096656Y-51763994D01*
X135101330Y-51753497D01*
X135162043Y-51574644D01*
X135160810Y-51565993D01*
X135147242Y-51562000D01*
X134358715Y-51562000D01*
X134343476Y-51566475D01*
X134342271Y-51567865D01*
X134340600Y-51575548D01*
X134340600Y-52368681D01*
X133832428Y-52368681D01*
X133832600Y-52368232D01*
X133832600Y-51580115D01*
X133828125Y-51564876D01*
X133826735Y-51563671D01*
X133819052Y-51562000D01*
X133030094Y-51562000D01*
X133016563Y-51565973D01*
X133015271Y-51574962D01*
X127906500Y-51574962D01*
X127906500Y-51139940D01*
X127908051Y-51120229D01*
X127909704Y-51109793D01*
X127909704Y-51109792D01*
X127911255Y-51100000D01*
X127909704Y-51090206D01*
X127909704Y-51080292D01*
X127910715Y-51080292D01*
X127910388Y-51065501D01*
X127919791Y-50982040D01*
X127926070Y-50954530D01*
X127941482Y-50910487D01*
X127960586Y-50855889D01*
X127972828Y-50830470D01*
X128028431Y-50741978D01*
X128046023Y-50719919D01*
X128119919Y-50646023D01*
X128141978Y-50628431D01*
X128230470Y-50572828D01*
X128255890Y-50560586D01*
X128354532Y-50526069D01*
X128382040Y-50519791D01*
X128465501Y-50510388D01*
X128480292Y-50510715D01*
X128480292Y-50509704D01*
X128490206Y-50509704D01*
X128500000Y-50511255D01*
X128509792Y-50509704D01*
X128509793Y-50509704D01*
X128520229Y-50508051D01*
X128539940Y-50506500D01*
X133053658Y-50506500D01*
X133121779Y-50526502D01*
X133168272Y-50580158D01*
X133178376Y-50650432D01*
X133159332Y-50701122D01*
X133154052Y-50709253D01*
X133064958Y-50878592D01*
X133060553Y-50889227D01*
X133014762Y-51036698D01*
X133014543Y-51050799D01*
X133021275Y-51054000D01*
X135143998Y-51054000D01*
X135157529Y-51050027D01*
X135158698Y-51041892D01*
X135123258Y-50916231D01*
X135119133Y-50905484D01*
X135034503Y-50733871D01*
X135028493Y-50724063D01*
X135016415Y-50707889D01*
X134991683Y-50641340D01*
X135006857Y-50571984D01*
X135057119Y-50521841D01*
X135117373Y-50506500D01*
X135593060Y-50506500D01*
X135661181Y-50526502D01*
X135707674Y-50580158D01*
X135717778Y-50650432D01*
X135698960Y-50700521D01*
X135696320Y-50703869D01*
X135693631Y-50708980D01*
X135693629Y-50708983D01*
X135682593Y-50729959D01*
X135601803Y-50883515D01*
X135575590Y-50967934D01*
X135544670Y-51067515D01*
X135541607Y-51077378D01*
X135517748Y-51278964D01*
X135531024Y-51481522D01*
X135532445Y-51487118D01*
X135532446Y-51487123D01*
X135572213Y-51643702D01*
X135580992Y-51678269D01*
X135583409Y-51683512D01*
X135641647Y-51809841D01*
X135665977Y-51862616D01*
X135669310Y-51867332D01*
X135741014Y-51968791D01*
X135783133Y-52028389D01*
X135787275Y-52032424D01*
X135812516Y-52057012D01*
X135928538Y-52170035D01*
X136097320Y-52282812D01*
X136102623Y-52285090D01*
X136102626Y-52285092D01*
X136249089Y-52348017D01*
X136283828Y-52362942D01*
X136348740Y-52377630D01*
X136476179Y-52406467D01*
X136476184Y-52406468D01*
X136481816Y-52407742D01*
X136487587Y-52407969D01*
X136487589Y-52407969D01*
X136534599Y-52409816D01*
X136684653Y-52415712D01*
X136795196Y-52399684D01*
X136879831Y-52387413D01*
X136879836Y-52387412D01*
X136885545Y-52386584D01*
X136891009Y-52384729D01*
X136891014Y-52384728D01*
X137072293Y-52323192D01*
X137072298Y-52323190D01*
X137077765Y-52321334D01*
X137083619Y-52318056D01*
X137168382Y-52270586D01*
X137254876Y-52222147D01*
X137287707Y-52194842D01*
X137406513Y-52096031D01*
X137410945Y-52092345D01*
X137441274Y-52055878D01*
X137537053Y-51940718D01*
X137537055Y-51940715D01*
X137540747Y-51936276D01*
X137606824Y-51818288D01*
X137637110Y-51764208D01*
X137637111Y-51764206D01*
X137639934Y-51759165D01*
X137641790Y-51753698D01*
X137641792Y-51753693D01*
X137703328Y-51572414D01*
X137703329Y-51572409D01*
X137705184Y-51566945D01*
X137706012Y-51561236D01*
X137706013Y-51561231D01*
X137725386Y-51427617D01*
X137734312Y-51366053D01*
X137735832Y-51308000D01*
X137720390Y-51139940D01*
X137717787Y-51111613D01*
X137717786Y-51111610D01*
X137717258Y-51105859D01*
X137712053Y-51087405D01*
X137663725Y-50916046D01*
X137663724Y-50916044D01*
X137662157Y-50910487D01*
X137651578Y-50889033D01*
X137574931Y-50733609D01*
X137572376Y-50728428D01*
X137568920Y-50723800D01*
X137568917Y-50723795D01*
X137557039Y-50707888D01*
X137532307Y-50641338D01*
X137547482Y-50571982D01*
X137597744Y-50521840D01*
X137657997Y-50506500D01*
X138133060Y-50506500D01*
X138201181Y-50526502D01*
X138247674Y-50580158D01*
X138257778Y-50650432D01*
X138238960Y-50700521D01*
X138236320Y-50703869D01*
X138233631Y-50708980D01*
X138233629Y-50708983D01*
X138222593Y-50729959D01*
X138141803Y-50883515D01*
X138115590Y-50967934D01*
X138084670Y-51067515D01*
X138081607Y-51077378D01*
X138057748Y-51278964D01*
X138071024Y-51481522D01*
X138072445Y-51487118D01*
X138072446Y-51487123D01*
X138112213Y-51643702D01*
X138120992Y-51678269D01*
X138123409Y-51683512D01*
X138181647Y-51809841D01*
X138205977Y-51862616D01*
X138209310Y-51867332D01*
X138281014Y-51968791D01*
X138323133Y-52028389D01*
X138327275Y-52032424D01*
X138352516Y-52057012D01*
X138468538Y-52170035D01*
X138637320Y-52282812D01*
X138642623Y-52285090D01*
X138642626Y-52285092D01*
X138789089Y-52348017D01*
X138823828Y-52362942D01*
X138888740Y-52377630D01*
X139016179Y-52406467D01*
X139016184Y-52406468D01*
X139021816Y-52407742D01*
X139027587Y-52407969D01*
X139027589Y-52407969D01*
X139074599Y-52409816D01*
X139224653Y-52415712D01*
X139335196Y-52399684D01*
X139419831Y-52387413D01*
X139419836Y-52387412D01*
X139425545Y-52386584D01*
X139431009Y-52384729D01*
X139431014Y-52384728D01*
X139612293Y-52323192D01*
X139612298Y-52323190D01*
X139617765Y-52321334D01*
X139623619Y-52318056D01*
X139708382Y-52270586D01*
X139794876Y-52222147D01*
X139827707Y-52194842D01*
X139946513Y-52096031D01*
X139950945Y-52092345D01*
X139981274Y-52055878D01*
X140077053Y-51940718D01*
X140077055Y-51940715D01*
X140080747Y-51936276D01*
X140146824Y-51818288D01*
X140177110Y-51764208D01*
X140177111Y-51764206D01*
X140179934Y-51759165D01*
X140181790Y-51753698D01*
X140181792Y-51753693D01*
X140243328Y-51572414D01*
X140243329Y-51572409D01*
X140245184Y-51566945D01*
X140246012Y-51561236D01*
X140246013Y-51561231D01*
X140265386Y-51427617D01*
X140274312Y-51366053D01*
X140275832Y-51308000D01*
X140260390Y-51139940D01*
X140257787Y-51111613D01*
X140257786Y-51111610D01*
X140257258Y-51105859D01*
X140252053Y-51087405D01*
X140203725Y-50916046D01*
X140203724Y-50916044D01*
X140202157Y-50910487D01*
X140191578Y-50889033D01*
X140114931Y-50733609D01*
X140112376Y-50728428D01*
X140108920Y-50723800D01*
X140108917Y-50723795D01*
X140097039Y-50707888D01*
X140072307Y-50641338D01*
X140087482Y-50571982D01*
X140137744Y-50521840D01*
X140197997Y-50506500D01*
X140673060Y-50506500D01*
X140741181Y-50526502D01*
X140787674Y-50580158D01*
X140797778Y-50650432D01*
X140778960Y-50700521D01*
X140776320Y-50703869D01*
X140773631Y-50708980D01*
X140773629Y-50708983D01*
X140762593Y-50729959D01*
X140681803Y-50883515D01*
X140655590Y-50967934D01*
X140624670Y-51067515D01*
X140621607Y-51077378D01*
X140597748Y-51278964D01*
X140611024Y-51481522D01*
X140612445Y-51487118D01*
X140612446Y-51487123D01*
X140652213Y-51643702D01*
X140660992Y-51678269D01*
X140663409Y-51683512D01*
X140721647Y-51809841D01*
X140745977Y-51862616D01*
X140749310Y-51867332D01*
X140821014Y-51968791D01*
X140863133Y-52028389D01*
X140867275Y-52032424D01*
X140892516Y-52057012D01*
X141008538Y-52170035D01*
X141177320Y-52282812D01*
X141182623Y-52285090D01*
X141182626Y-52285092D01*
X141329089Y-52348017D01*
X141363828Y-52362942D01*
X141428740Y-52377630D01*
X141556179Y-52406467D01*
X141556184Y-52406468D01*
X141561816Y-52407742D01*
X141567587Y-52407969D01*
X141567589Y-52407969D01*
X141614599Y-52409816D01*
X141764653Y-52415712D01*
X141875196Y-52399684D01*
X141959831Y-52387413D01*
X141959836Y-52387412D01*
X141965545Y-52386584D01*
X141971009Y-52384729D01*
X141971014Y-52384728D01*
X142152293Y-52323192D01*
X142152298Y-52323190D01*
X142157765Y-52321334D01*
X142163619Y-52318056D01*
X142248382Y-52270586D01*
X142334876Y-52222147D01*
X142367707Y-52194842D01*
X142486513Y-52096031D01*
X142490945Y-52092345D01*
X142521274Y-52055878D01*
X142617053Y-51940718D01*
X142617055Y-51940715D01*
X142620747Y-51936276D01*
X142686824Y-51818288D01*
X142717110Y-51764208D01*
X142717111Y-51764206D01*
X142719934Y-51759165D01*
X142721790Y-51753698D01*
X142721792Y-51753693D01*
X142783328Y-51572414D01*
X142783329Y-51572409D01*
X142785184Y-51566945D01*
X142786012Y-51561236D01*
X142786013Y-51561231D01*
X142805386Y-51427617D01*
X142814312Y-51366053D01*
X142815832Y-51308000D01*
X142800390Y-51139940D01*
X142797787Y-51111613D01*
X142797786Y-51111610D01*
X142797258Y-51105859D01*
X142792053Y-51087405D01*
X142743725Y-50916046D01*
X142743724Y-50916044D01*
X142742157Y-50910487D01*
X142731578Y-50889033D01*
X142654931Y-50733609D01*
X142652376Y-50728428D01*
X142648920Y-50723800D01*
X142648917Y-50723795D01*
X142637039Y-50707888D01*
X142612307Y-50641338D01*
X142627482Y-50571982D01*
X142677744Y-50521840D01*
X142737997Y-50506500D01*
X143023660Y-50506500D01*
X143043371Y-50508051D01*
X143053806Y-50509704D01*
X143053808Y-50509704D01*
X143063600Y-50511255D01*
X143073396Y-50509703D01*
X143083310Y-50509703D01*
X143083310Y-50510346D01*
X143098202Y-50509908D01*
X143207617Y-50520685D01*
X143231836Y-50525502D01*
X143239671Y-50527879D01*
X143299053Y-50566790D01*
X143327972Y-50631630D01*
X143314608Y-50707122D01*
X143294648Y-50745060D01*
X143221803Y-50883515D01*
X143195590Y-50967934D01*
X143164670Y-51067515D01*
X143161607Y-51077378D01*
X143137748Y-51278964D01*
X143151024Y-51481522D01*
X143152445Y-51487118D01*
X143152446Y-51487123D01*
X143192213Y-51643702D01*
X143200992Y-51678269D01*
X143203409Y-51683512D01*
X143261647Y-51809841D01*
X143285977Y-51862616D01*
X143289310Y-51867332D01*
X143361014Y-51968791D01*
X143403133Y-52028389D01*
X143407275Y-52032424D01*
X143432516Y-52057012D01*
X143548538Y-52170035D01*
X143717320Y-52282812D01*
X143722623Y-52285090D01*
X143722626Y-52285092D01*
X143869089Y-52348017D01*
X143903828Y-52362942D01*
X143968740Y-52377630D01*
X144096179Y-52406467D01*
X144096184Y-52406468D01*
X144101816Y-52407742D01*
X144107587Y-52407969D01*
X144107589Y-52407969D01*
X144154599Y-52409816D01*
X144304653Y-52415712D01*
X144415196Y-52399684D01*
X144499831Y-52387413D01*
X144499836Y-52387412D01*
X144505545Y-52386584D01*
X144511009Y-52384729D01*
X144511014Y-52384728D01*
X144692293Y-52323192D01*
X144692298Y-52323190D01*
X144697765Y-52321334D01*
X144703619Y-52318056D01*
X144788382Y-52270586D01*
X144874876Y-52222147D01*
X144907707Y-52194842D01*
X145026513Y-52096031D01*
X145030945Y-52092345D01*
X145061274Y-52055878D01*
X145157053Y-51940718D01*
X145157055Y-51940715D01*
X145160747Y-51936276D01*
X145226824Y-51818288D01*
X145257110Y-51764208D01*
X145257111Y-51764206D01*
X145259934Y-51759165D01*
X145261790Y-51753698D01*
X145261792Y-51753693D01*
X145323328Y-51572414D01*
X145323329Y-51572409D01*
X145325184Y-51566945D01*
X145326012Y-51561236D01*
X145326013Y-51561231D01*
X145345386Y-51427617D01*
X145354312Y-51366053D01*
X145355832Y-51308000D01*
X145340390Y-51139940D01*
X145337787Y-51111613D01*
X145337786Y-51111610D01*
X145337258Y-51105859D01*
X145332053Y-51087405D01*
X145283725Y-50916046D01*
X145283724Y-50916044D01*
X145282157Y-50910487D01*
X145271578Y-50889033D01*
X145194931Y-50733609D01*
X145192376Y-50728428D01*
X145188917Y-50723795D01*
X145152441Y-50674949D01*
X145070920Y-50565779D01*
X144951101Y-50455019D01*
X144926103Y-50431911D01*
X144921858Y-50427987D01*
X144916975Y-50424906D01*
X144916971Y-50424903D01*
X144755064Y-50322748D01*
X144750181Y-50319667D01*
X144561639Y-50244446D01*
X144555979Y-50243320D01*
X144555975Y-50243319D01*
X144368213Y-50205971D01*
X144368210Y-50205971D01*
X144362546Y-50204844D01*
X144356771Y-50204768D01*
X144356767Y-50204768D01*
X144221688Y-50203000D01*
X144153835Y-50182108D01*
X144134242Y-50166106D01*
X144090746Y-50122610D01*
X143911593Y-49988497D01*
X143754947Y-49902962D01*
X143719124Y-49883401D01*
X143719122Y-49883400D01*
X143715177Y-49881246D01*
X143710967Y-49879676D01*
X143710961Y-49879673D01*
X143701531Y-49876156D01*
X143644695Y-49833609D01*
X143619884Y-49767089D01*
X143634975Y-49697715D01*
X143685177Y-49647513D01*
X143745563Y-49632100D01*
X149468725Y-49632100D01*
X149536846Y-49652102D01*
G37*
%TD.AperFunction*%
%TA.AperFunction,Conductor*%
G36*
X130725713Y-54807680D02*
G01*
X130728087Y-54807680D01*
X130737882Y-54809231D01*
X130747676Y-54807679D01*
X130757596Y-54807679D01*
X130757596Y-54808352D01*
X130772256Y-54807918D01*
X130822062Y-54812822D01*
X130846277Y-54817638D01*
X130915344Y-54838586D01*
X130938162Y-54848036D01*
X131001814Y-54882056D01*
X131022350Y-54895776D01*
X131060932Y-54927436D01*
X131071086Y-54938206D01*
X131071549Y-54937742D01*
X131078560Y-54944753D01*
X131084389Y-54952774D01*
X131092410Y-54958601D01*
X131092413Y-54958604D01*
X131100827Y-54964716D01*
X131115868Y-54977562D01*
X131453519Y-55315213D01*
X131466359Y-55330246D01*
X131478308Y-55346692D01*
X131486327Y-55352518D01*
X131502141Y-55364008D01*
X131502946Y-55364640D01*
X131503944Y-55365638D01*
X131511104Y-55370755D01*
X131517756Y-55375851D01*
X131550815Y-55402986D01*
X131565046Y-55410596D01*
X131567524Y-55412136D01*
X131570163Y-55413429D01*
X131575563Y-55417352D01*
X131576934Y-55417797D01*
X131580734Y-55420513D01*
X131585719Y-55422004D01*
X131586884Y-55423070D01*
X131587215Y-55422451D01*
X131616927Y-55438340D01*
X131631516Y-55446142D01*
X131686468Y-55462832D01*
X131691428Y-55465362D01*
X131698502Y-55466486D01*
X131702038Y-55467560D01*
X131713165Y-55470940D01*
X131713169Y-55470941D01*
X131719083Y-55472737D01*
X131724297Y-55473253D01*
X131732204Y-55475418D01*
X131736730Y-55476392D01*
X131744206Y-55479018D01*
X131749771Y-55479500D01*
X131770436Y-55479500D01*
X131790212Y-55481062D01*
X131810153Y-55484231D01*
X131819947Y-55482685D01*
X131819949Y-55482685D01*
X131830362Y-55481041D01*
X131850008Y-55479500D01*
X133366319Y-55479500D01*
X133434440Y-55499502D01*
X133480933Y-55553158D01*
X133488400Y-55587483D01*
X133490769Y-55587108D01*
X133492855Y-55600280D01*
X133493950Y-55607199D01*
X133495500Y-55626903D01*
X133495500Y-55684092D01*
X133475498Y-55752213D01*
X133430006Y-55794614D01*
X133425776Y-55796930D01*
X133417365Y-55800083D01*
X133307456Y-55882456D01*
X133302077Y-55889633D01*
X133230465Y-55985183D01*
X133230463Y-55985186D01*
X133225083Y-55992365D01*
X133221292Y-56002479D01*
X133217715Y-56012020D01*
X133175073Y-56068784D01*
X133108512Y-56093484D01*
X133039163Y-56078276D01*
X132989045Y-56027990D01*
X132981751Y-56012018D01*
X132977626Y-56001014D01*
X132969092Y-55985425D01*
X132897566Y-55889990D01*
X132885010Y-55877434D01*
X132789575Y-55805908D01*
X132773988Y-55797375D01*
X132661311Y-55755135D01*
X132646066Y-55751510D01*
X132598741Y-55746369D01*
X132596307Y-55746237D01*
X132581876Y-55750475D01*
X132580671Y-55751865D01*
X132579000Y-55759548D01*
X132579000Y-57185885D01*
X132583475Y-57201124D01*
X132584865Y-57202329D01*
X132592424Y-57203973D01*
X132598741Y-57203631D01*
X132646066Y-57198490D01*
X132661311Y-57194865D01*
X132773988Y-57152625D01*
X132789575Y-57144092D01*
X132885010Y-57072566D01*
X132897566Y-57060010D01*
X132969092Y-56964575D01*
X132977626Y-56948986D01*
X132981751Y-56937982D01*
X133024391Y-56881217D01*
X133090953Y-56856516D01*
X133160302Y-56871723D01*
X133210421Y-56922008D01*
X133217714Y-56937978D01*
X133225083Y-56957635D01*
X133230463Y-56964814D01*
X133230465Y-56964817D01*
X133302077Y-57060367D01*
X133307456Y-57067544D01*
X133314633Y-57072923D01*
X133410183Y-57144535D01*
X133410186Y-57144537D01*
X133417365Y-57149917D01*
X133425769Y-57153067D01*
X133425770Y-57153068D01*
X133538581Y-57195358D01*
X133538582Y-57195358D01*
X133545976Y-57198130D01*
X133553826Y-57198983D01*
X133553827Y-57198983D01*
X133579417Y-57201763D01*
X133604611Y-57204500D01*
X133874920Y-57204500D01*
X134145388Y-57204499D01*
X134148782Y-57204130D01*
X134148788Y-57204130D01*
X134196166Y-57198984D01*
X134196170Y-57198983D01*
X134204024Y-57198130D01*
X134316128Y-57156105D01*
X134324230Y-57153068D01*
X134324231Y-57153067D01*
X134332635Y-57149917D01*
X134339814Y-57144537D01*
X134339817Y-57144535D01*
X134435367Y-57072923D01*
X134442544Y-57067544D01*
X134447923Y-57060367D01*
X134519535Y-56964817D01*
X134519537Y-56964814D01*
X134524917Y-56957635D01*
X134528342Y-56948498D01*
X134570358Y-56836419D01*
X134570358Y-56836418D01*
X134573130Y-56829024D01*
X134576892Y-56794400D01*
X134579131Y-56773786D01*
X134579131Y-56773785D01*
X134579500Y-56770389D01*
X134579499Y-56179612D01*
X134579130Y-56176212D01*
X134573984Y-56128834D01*
X134573983Y-56128830D01*
X134573130Y-56120976D01*
X134532285Y-56012020D01*
X134528068Y-56000770D01*
X134528067Y-56000769D01*
X134524917Y-55992365D01*
X134519537Y-55985186D01*
X134519535Y-55985183D01*
X134447923Y-55889633D01*
X134442544Y-55882456D01*
X134332635Y-55800083D01*
X134324224Y-55796930D01*
X134319994Y-55794614D01*
X134269847Y-55744357D01*
X134254500Y-55684092D01*
X134254500Y-55626932D01*
X134256051Y-55607225D01*
X134259231Y-55587156D01*
X134257338Y-55575200D01*
X134256083Y-55567268D01*
X134254921Y-55557446D01*
X134249221Y-55484977D01*
X134246253Y-55447236D01*
X134245099Y-55442428D01*
X134245098Y-55442422D01*
X134215259Y-55318112D01*
X134213494Y-55310760D01*
X134166648Y-55197652D01*
X134161683Y-55185665D01*
X134161682Y-55185663D01*
X134159788Y-55181090D01*
X134157205Y-55176874D01*
X134157200Y-55176865D01*
X134093758Y-55073332D01*
X134075221Y-55004798D01*
X134096679Y-54937122D01*
X134151319Y-54891790D01*
X134201192Y-54881500D01*
X134291861Y-54881500D01*
X134311572Y-54883051D01*
X134322007Y-54884704D01*
X134322009Y-54884704D01*
X134331801Y-54886255D01*
X134341597Y-54884703D01*
X134347868Y-54884703D01*
X134364320Y-54885781D01*
X134415441Y-54892512D01*
X134447211Y-54901025D01*
X134509826Y-54926961D01*
X134538309Y-54943405D01*
X134579224Y-54974800D01*
X134591605Y-54985660D01*
X134596050Y-54990105D01*
X134601876Y-54998124D01*
X134609895Y-55003950D01*
X134614172Y-55008227D01*
X134628549Y-55021343D01*
X134718523Y-55123938D01*
X134721485Y-55127316D01*
X134731516Y-55140389D01*
X134824883Y-55280119D01*
X134833123Y-55294393D01*
X134907449Y-55445108D01*
X134913755Y-55460329D01*
X134934284Y-55520802D01*
X134967776Y-55619463D01*
X134972042Y-55635383D01*
X135004829Y-55800205D01*
X135006980Y-55816544D01*
X135014453Y-55930520D01*
X135016130Y-55956090D01*
X135016197Y-55957119D01*
X135015295Y-55976796D01*
X135015295Y-55982680D01*
X135013745Y-55992470D01*
X135015296Y-56002261D01*
X135015296Y-56002264D01*
X135016948Y-56012690D01*
X135018500Y-56032404D01*
X135018500Y-58590298D01*
X134998498Y-58658419D01*
X134944842Y-58704912D01*
X134874568Y-58715016D01*
X134847017Y-58707802D01*
X134756261Y-58672672D01*
X134750544Y-58670459D01*
X134739220Y-58665422D01*
X134726315Y-58658903D01*
X134716517Y-58657386D01*
X134716510Y-58657384D01*
X134713046Y-58656848D01*
X134690579Y-58651215D01*
X134682214Y-58648278D01*
X134682215Y-58648278D01*
X134674734Y-58645651D01*
X134669145Y-58645167D01*
X134647283Y-58645167D01*
X134628009Y-58643684D01*
X134623631Y-58643006D01*
X134616686Y-58641931D01*
X134616684Y-58641931D01*
X134606891Y-58640415D01*
X134588365Y-58643415D01*
X134587551Y-58643547D01*
X134567408Y-58645167D01*
X130821172Y-58645167D01*
X130753051Y-58625165D01*
X130706558Y-58571509D01*
X130700276Y-58554666D01*
X130693525Y-58531676D01*
X130692135Y-58530471D01*
X130684452Y-58528800D01*
X130504100Y-58528800D01*
X130479519Y-58526379D01*
X130475135Y-58525507D01*
X130469067Y-58524300D01*
X130455366Y-58524300D01*
X129694998Y-58524301D01*
X129626879Y-58504299D01*
X129580386Y-58450643D01*
X129569000Y-58398301D01*
X129569000Y-58110685D01*
X129969000Y-58110685D01*
X129973475Y-58125924D01*
X129974865Y-58127129D01*
X129982548Y-58128800D01*
X130679884Y-58128800D01*
X130695123Y-58124325D01*
X130696328Y-58122935D01*
X130697999Y-58115252D01*
X130697999Y-58109972D01*
X130696791Y-58097712D01*
X130683263Y-58029694D01*
X130687399Y-58028871D01*
X130682304Y-57981407D01*
X130683328Y-57977919D01*
X130683263Y-57977906D01*
X130696793Y-57909885D01*
X130698000Y-57897630D01*
X130698000Y-57896915D01*
X130693525Y-57881676D01*
X130692135Y-57880471D01*
X130684452Y-57878800D01*
X129987115Y-57878800D01*
X129971876Y-57883275D01*
X129970671Y-57884665D01*
X129969000Y-57892348D01*
X129969000Y-58110685D01*
X129569000Y-58110685D01*
X129569000Y-57604800D01*
X129589002Y-57536679D01*
X129642658Y-57490186D01*
X129695000Y-57478800D01*
X130679884Y-57478800D01*
X130695123Y-57474325D01*
X130696328Y-57472935D01*
X130697999Y-57465252D01*
X130697999Y-57459972D01*
X130696791Y-57447712D01*
X130685685Y-57391869D01*
X130676367Y-57369373D01*
X130648300Y-57327368D01*
X130627085Y-57259615D01*
X130645868Y-57191148D01*
X130674803Y-57158619D01*
X130685933Y-57149798D01*
X130799949Y-57036575D01*
X130808721Y-57025665D01*
X130894812Y-56890006D01*
X130900956Y-56877409D01*
X130924438Y-56811467D01*
X130925234Y-56797387D01*
X130919565Y-56794400D01*
X129275635Y-56794400D01*
X129262104Y-56798373D01*
X129261145Y-56805047D01*
X129282411Y-56867516D01*
X129288371Y-56880181D01*
X129372561Y-57017029D01*
X129375841Y-57021227D01*
X129402019Y-57087221D01*
X129388362Y-57156892D01*
X129339206Y-57208119D01*
X129276552Y-57224801D01*
X129075172Y-57224801D01*
X129062917Y-57226008D01*
X129057081Y-57227169D01*
X128986367Y-57220841D01*
X128930300Y-57177286D01*
X128906500Y-57103590D01*
X128906500Y-56766927D01*
X131621000Y-56766927D01*
X131621369Y-56773741D01*
X131626510Y-56821066D01*
X131630135Y-56836311D01*
X131672375Y-56948988D01*
X131680908Y-56964575D01*
X131752434Y-57060010D01*
X131764990Y-57072566D01*
X131860425Y-57144092D01*
X131876012Y-57152625D01*
X131988689Y-57194865D01*
X132003934Y-57198490D01*
X132051259Y-57203631D01*
X132053693Y-57203763D01*
X132068124Y-57199525D01*
X132069329Y-57198135D01*
X132071000Y-57190452D01*
X132071000Y-56747115D01*
X132066525Y-56731876D01*
X132065135Y-56730671D01*
X132057452Y-56729000D01*
X131639115Y-56729000D01*
X131623876Y-56733475D01*
X131622671Y-56734865D01*
X131621000Y-56742548D01*
X131621000Y-56766927D01*
X128906500Y-56766927D01*
X128906500Y-56528111D01*
X128908052Y-56508397D01*
X128908093Y-56508140D01*
X128911255Y-56488178D01*
X128909704Y-56478383D01*
X128909704Y-56472332D01*
X128908813Y-56452895D01*
X128911040Y-56418920D01*
X128919494Y-56289966D01*
X128920357Y-56283413D01*
X129262766Y-56283413D01*
X129268435Y-56286400D01*
X129821885Y-56286400D01*
X129837124Y-56281925D01*
X129838329Y-56280535D01*
X129840000Y-56272852D01*
X129840000Y-56268285D01*
X130348000Y-56268285D01*
X130352475Y-56283524D01*
X130353865Y-56284729D01*
X130361548Y-56286400D01*
X130912365Y-56286400D01*
X130925896Y-56282427D01*
X130926855Y-56275753D01*
X130905589Y-56213284D01*
X130900695Y-56202885D01*
X131621000Y-56202885D01*
X131625475Y-56218124D01*
X131626865Y-56219329D01*
X131634548Y-56221000D01*
X132052885Y-56221000D01*
X132068124Y-56216525D01*
X132069329Y-56215135D01*
X132071000Y-56207452D01*
X132071000Y-55764115D01*
X132066525Y-55748876D01*
X132065135Y-55747671D01*
X132057576Y-55746027D01*
X132051259Y-55746369D01*
X132003934Y-55751510D01*
X131988689Y-55755135D01*
X131876012Y-55797375D01*
X131860425Y-55805908D01*
X131764990Y-55877434D01*
X131752434Y-55889990D01*
X131680908Y-55985425D01*
X131672375Y-56001012D01*
X131630135Y-56113689D01*
X131626510Y-56128934D01*
X131621369Y-56176259D01*
X131621000Y-56183073D01*
X131621000Y-56202885D01*
X130900695Y-56202885D01*
X130899629Y-56200619D01*
X130815440Y-56063772D01*
X130806811Y-56052727D01*
X130694394Y-55937931D01*
X130683544Y-55929083D01*
X130548488Y-55842045D01*
X130535939Y-55835815D01*
X130384958Y-55780863D01*
X130371344Y-55777569D01*
X130365972Y-55776890D01*
X130351694Y-55779194D01*
X130348000Y-55792186D01*
X130348000Y-56268285D01*
X129840000Y-56268285D01*
X129840000Y-55791860D01*
X129835844Y-55777706D01*
X129824276Y-55775859D01*
X129813675Y-55778267D01*
X129661922Y-55831112D01*
X129649304Y-55837158D01*
X129513038Y-55922307D01*
X129502065Y-55931004D01*
X129388051Y-56044225D01*
X129379279Y-56055135D01*
X129293188Y-56190794D01*
X129287044Y-56203391D01*
X129263562Y-56269333D01*
X129262766Y-56283413D01*
X128920357Y-56283413D01*
X128921644Y-56273632D01*
X128921800Y-56272852D01*
X128958789Y-56086903D01*
X128963052Y-56070997D01*
X129024249Y-55890719D01*
X129030556Y-55875494D01*
X129114760Y-55704747D01*
X129123001Y-55690474D01*
X129228765Y-55532189D01*
X129238798Y-55519113D01*
X129346488Y-55396316D01*
X129360752Y-55383303D01*
X129365105Y-55378950D01*
X129373124Y-55373124D01*
X129385167Y-55356548D01*
X129398009Y-55341513D01*
X129892770Y-54846752D01*
X129907797Y-54833916D01*
X129911439Y-54831270D01*
X129965804Y-54808752D01*
X129970242Y-54808049D01*
X129989940Y-54806500D01*
X130710723Y-54806500D01*
X130725713Y-54807680D01*
G37*
%TD.AperFunction*%
%TA.AperFunction,Conductor*%
G36*
X145074623Y-55084502D02*
G01*
X145095601Y-55101408D01*
X145108388Y-55114196D01*
X145129513Y-55142242D01*
X145146376Y-55172690D01*
X145183490Y-55209804D01*
X145200395Y-55233656D01*
X145201419Y-55232995D01*
X145205722Y-55239658D01*
X145209153Y-55246804D01*
X145212763Y-55251098D01*
X145214693Y-55253028D01*
X145216482Y-55254979D01*
X145216511Y-55255032D01*
X145216381Y-55255151D01*
X145216882Y-55255719D01*
X145219981Y-55261463D01*
X145227214Y-55268149D01*
X145245767Y-55301756D01*
X145256137Y-55330247D01*
X145257763Y-55334714D01*
X145262266Y-55405568D01*
X145227748Y-55467608D01*
X145165168Y-55501138D01*
X145096268Y-55496210D01*
X145042901Y-55476786D01*
X144996902Y-55447480D01*
X144934517Y-55385095D01*
X144921916Y-55378214D01*
X144915526Y-55382938D01*
X144911368Y-55390517D01*
X144901572Y-55417430D01*
X144859477Y-55474601D01*
X144826266Y-55492736D01*
X144821101Y-55494616D01*
X144789203Y-55506226D01*
X144750803Y-55535691D01*
X144692036Y-55594458D01*
X144629724Y-55628484D01*
X144558909Y-55623419D01*
X144513846Y-55594458D01*
X144287908Y-55368520D01*
X144272555Y-55349511D01*
X144271588Y-55348448D01*
X144265937Y-55339696D01*
X144239394Y-55318771D01*
X144234919Y-55314794D01*
X144234858Y-55314865D01*
X144230901Y-55311512D01*
X144227218Y-55307829D01*
X144211427Y-55296545D01*
X144206678Y-55292979D01*
X144202198Y-55289447D01*
X144161087Y-55231565D01*
X144157795Y-55160644D01*
X144193369Y-55099203D01*
X144256513Y-55066748D01*
X144280207Y-55064500D01*
X145006502Y-55064500D01*
X145074623Y-55084502D01*
G37*
%TD.AperFunction*%
%TA.AperFunction,Conductor*%
G36*
X155082553Y-50226502D02*
G01*
X155129046Y-50280158D01*
X155139150Y-50350432D01*
X155109656Y-50415012D01*
X155043850Y-50455017D01*
X154864417Y-50498096D01*
X154795397Y-50526685D01*
X154659103Y-50583139D01*
X154659099Y-50583141D01*
X154654529Y-50585034D01*
X154460826Y-50703735D01*
X154288077Y-50851277D01*
X154140535Y-51024026D01*
X154021834Y-51217729D01*
X154019941Y-51222299D01*
X154019939Y-51222303D01*
X153982908Y-51311704D01*
X153934896Y-51427617D01*
X153881861Y-51648520D01*
X153873876Y-51749987D01*
X153869510Y-51805455D01*
X153869121Y-51808112D01*
X153868984Y-51808502D01*
X153868500Y-51814091D01*
X153868500Y-51816828D01*
X153868456Y-51817847D01*
X153868186Y-51822282D01*
X153864325Y-51871336D01*
X153863745Y-51875000D01*
X153866615Y-51893121D01*
X153866949Y-51895229D01*
X153868500Y-51914940D01*
X153868500Y-53422758D01*
X153848474Y-53489722D01*
X153845622Y-53492951D01*
X153828050Y-53530378D01*
X153806370Y-53576556D01*
X153783719Y-53624800D01*
X153782339Y-53633665D01*
X153782338Y-53633667D01*
X153763482Y-53754771D01*
X153761309Y-53768724D01*
X153762473Y-53777626D01*
X153762473Y-53777629D01*
X153771911Y-53849800D01*
X153780195Y-53913152D01*
X153783809Y-53921365D01*
X153783810Y-53921369D01*
X153811744Y-53984852D01*
X153838749Y-54046224D01*
X153838859Y-54046474D01*
X153838823Y-54046490D01*
X153856595Y-54110404D01*
X153835615Y-54178230D01*
X153796444Y-54216023D01*
X153695273Y-54278022D01*
X153691506Y-54281239D01*
X153691505Y-54281240D01*
X153639175Y-54325934D01*
X153631355Y-54331758D01*
X153627602Y-54333560D01*
X153623308Y-54337169D01*
X153610935Y-54349542D01*
X153603662Y-54356265D01*
X153598404Y-54360755D01*
X153590646Y-54366871D01*
X153588301Y-54368575D01*
X153576876Y-54376876D01*
X153571048Y-54384897D01*
X153565974Y-54389971D01*
X153557960Y-54395793D01*
X153552135Y-54403809D01*
X153552130Y-54403814D01*
X153548540Y-54408755D01*
X153544014Y-54414613D01*
X153465847Y-54509850D01*
X153396788Y-54639038D01*
X153394991Y-54644960D01*
X153394991Y-54644961D01*
X153394545Y-54646431D01*
X153354261Y-54779217D01*
X153353654Y-54785375D01*
X153353654Y-54785377D01*
X153351507Y-54807175D01*
X153324923Y-54873006D01*
X153266968Y-54914015D01*
X153226114Y-54920822D01*
X152485088Y-54920822D01*
X152416967Y-54900820D01*
X152395993Y-54883917D01*
X151090745Y-53578669D01*
X151086650Y-53574378D01*
X151085628Y-53573255D01*
X151054027Y-53538529D01*
X151039736Y-53530378D01*
X151030172Y-53524339D01*
X150915197Y-53444276D01*
X150808425Y-53389498D01*
X150769795Y-53369679D01*
X150769793Y-53369678D01*
X150766027Y-53367746D01*
X150651726Y-53327342D01*
X150594170Y-53285783D01*
X150579530Y-53261802D01*
X150544345Y-53186347D01*
X150527307Y-53149809D01*
X150527305Y-53149806D01*
X150524984Y-53144828D01*
X150423969Y-53000563D01*
X150299437Y-52876031D01*
X150294929Y-52872874D01*
X150294926Y-52872872D01*
X150232169Y-52828929D01*
X150155173Y-52775016D01*
X150150191Y-52772693D01*
X150150186Y-52772690D01*
X150000540Y-52702909D01*
X150000538Y-52702908D01*
X149995558Y-52700586D01*
X149990250Y-52699164D01*
X149990248Y-52699163D01*
X149936219Y-52684686D01*
X149825445Y-52655004D01*
X149748527Y-52648275D01*
X149728033Y-52646482D01*
X149720283Y-52645313D01*
X149716498Y-52643984D01*
X149710909Y-52643500D01*
X149699455Y-52643500D01*
X149688476Y-52643021D01*
X149678072Y-52642111D01*
X149667216Y-52641161D01*
X149660169Y-52640296D01*
X149659792Y-52640296D01*
X149650000Y-52638745D01*
X149640208Y-52640296D01*
X149640207Y-52640296D01*
X149629771Y-52641949D01*
X149610060Y-52643500D01*
X149560726Y-52643500D01*
X149492605Y-52623498D01*
X149446112Y-52569842D01*
X149436008Y-52499568D01*
X149465502Y-52434988D01*
X149525228Y-52396604D01*
X149542646Y-52392804D01*
X149579831Y-52387413D01*
X149579836Y-52387412D01*
X149585545Y-52386584D01*
X149591009Y-52384729D01*
X149591014Y-52384728D01*
X149772293Y-52323192D01*
X149772298Y-52323190D01*
X149777765Y-52321334D01*
X149783619Y-52318056D01*
X149868382Y-52270586D01*
X149954876Y-52222147D01*
X149987707Y-52194842D01*
X150009366Y-52176828D01*
X150762601Y-52176828D01*
X150763809Y-52189088D01*
X150774915Y-52244931D01*
X150784233Y-52267427D01*
X150826583Y-52330808D01*
X150843792Y-52348017D01*
X150907175Y-52390368D01*
X150929666Y-52399684D01*
X150985515Y-52410793D01*
X150997770Y-52412000D01*
X151594485Y-52412000D01*
X151609724Y-52407525D01*
X151610929Y-52406135D01*
X151612600Y-52398452D01*
X151612600Y-52393884D01*
X152120600Y-52393884D01*
X152125075Y-52409123D01*
X152126465Y-52410328D01*
X152134148Y-52411999D01*
X152735428Y-52411999D01*
X152747688Y-52410791D01*
X152803531Y-52399685D01*
X152826027Y-52390367D01*
X152889408Y-52348017D01*
X152906617Y-52330808D01*
X152948968Y-52267425D01*
X152958284Y-52244934D01*
X152969393Y-52189085D01*
X152970600Y-52176830D01*
X152970600Y-51580115D01*
X152966125Y-51564876D01*
X152964735Y-51563671D01*
X152957052Y-51562000D01*
X152138715Y-51562000D01*
X152123476Y-51566475D01*
X152122271Y-51567865D01*
X152120600Y-51575548D01*
X152120600Y-52393884D01*
X151612600Y-52393884D01*
X151612600Y-51580115D01*
X151608125Y-51564876D01*
X151606735Y-51563671D01*
X151599052Y-51562000D01*
X150780716Y-51562000D01*
X150765477Y-51566475D01*
X150764272Y-51567865D01*
X150762601Y-51575548D01*
X150762601Y-52176828D01*
X150009366Y-52176828D01*
X150106513Y-52096031D01*
X150110945Y-52092345D01*
X150141274Y-52055878D01*
X150237053Y-51940718D01*
X150237055Y-51940715D01*
X150240747Y-51936276D01*
X150306824Y-51818288D01*
X150337110Y-51764208D01*
X150337111Y-51764206D01*
X150339934Y-51759165D01*
X150341790Y-51753698D01*
X150341792Y-51753693D01*
X150403328Y-51572414D01*
X150403329Y-51572409D01*
X150405184Y-51566945D01*
X150406012Y-51561236D01*
X150406013Y-51561231D01*
X150425386Y-51427617D01*
X150434312Y-51366053D01*
X150435832Y-51308000D01*
X150420390Y-51139940D01*
X150417787Y-51111613D01*
X150417786Y-51111610D01*
X150417258Y-51105859D01*
X150412053Y-51087405D01*
X150363725Y-50916046D01*
X150363724Y-50916044D01*
X150362157Y-50910487D01*
X150351578Y-50889033D01*
X150274931Y-50733609D01*
X150272376Y-50728428D01*
X150268917Y-50723795D01*
X150154373Y-50570403D01*
X150154372Y-50570402D01*
X150150920Y-50565779D01*
X150146682Y-50561861D01*
X150141787Y-50557336D01*
X150105343Y-50496406D01*
X150107626Y-50425447D01*
X150147909Y-50366985D01*
X150155048Y-50361600D01*
X150182520Y-50342364D01*
X150201540Y-50331382D01*
X150334310Y-50269470D01*
X150354947Y-50261959D01*
X150496457Y-50224041D01*
X150518077Y-50220229D01*
X150640252Y-50209540D01*
X150670927Y-50210610D01*
X150673236Y-50210976D01*
X150737391Y-50241381D01*
X150774924Y-50301646D01*
X150777116Y-50360008D01*
X150763807Y-50426917D01*
X150762600Y-50439170D01*
X150762600Y-51035885D01*
X150767075Y-51051124D01*
X150768465Y-51052329D01*
X150776148Y-51054000D01*
X152952484Y-51054000D01*
X152967723Y-51049525D01*
X152968928Y-51048135D01*
X152970599Y-51040452D01*
X152970599Y-50439172D01*
X152969391Y-50426912D01*
X152955863Y-50358894D01*
X152959851Y-50358101D01*
X152954690Y-50310140D01*
X152986463Y-50246650D01*
X153047518Y-50210417D01*
X153078690Y-50206500D01*
X155014432Y-50206500D01*
X155082553Y-50226502D01*
G37*
%TD.AperFunction*%
%TD*%
M02*
