%TF.GenerationSoftware,KiCad,Pcbnew,(6.0.6)*%
%TF.CreationDate,2022-08-11T21:01:34+01:00*%
%TF.ProjectId,FTDI MCU programmer,46544449-204d-4435-9520-70726f677261,REV1.0*%
%TF.SameCoordinates,Original*%
%TF.FileFunction,Soldermask,Top*%
%TF.FilePolarity,Negative*%
%FSLAX46Y46*%
G04 Gerber Fmt 4.6, Leading zero omitted, Abs format (unit mm)*
G04 Created by KiCad (PCBNEW (6.0.6)) date 2022-08-11 21:01:34*
%MOMM*%
%LPD*%
G01*
G04 APERTURE LIST*
G04 Aperture macros list*
%AMRoundRect*
0 Rectangle with rounded corners*
0 $1 Rounding radius*
0 $2 $3 $4 $5 $6 $7 $8 $9 X,Y pos of 4 corners*
0 Add a 4 corners polygon primitive as box body*
4,1,4,$2,$3,$4,$5,$6,$7,$8,$9,$2,$3,0*
0 Add four circle primitives for the rounded corners*
1,1,$1+$1,$2,$3*
1,1,$1+$1,$4,$5*
1,1,$1+$1,$6,$7*
1,1,$1+$1,$8,$9*
0 Add four rect primitives between the rounded corners*
20,1,$1+$1,$2,$3,$4,$5,0*
20,1,$1+$1,$4,$5,$6,$7,0*
20,1,$1+$1,$6,$7,$8,$9,0*
20,1,$1+$1,$8,$9,$2,$3,0*%
G04 Aperture macros list end*
%ADD10R,1.700000X1.700000*%
%ADD11O,1.700000X1.700000*%
%ADD12RoundRect,0.075000X-0.530330X0.424264X0.424264X-0.530330X0.530330X-0.424264X-0.424264X0.530330X0*%
%ADD13RoundRect,0.075000X-0.530330X-0.424264X-0.424264X-0.530330X0.530330X0.424264X0.424264X0.530330X0*%
%ADD14RoundRect,0.225000X-0.225000X-0.250000X0.225000X-0.250000X0.225000X0.250000X-0.225000X0.250000X0*%
%ADD15R,1.350000X0.400000*%
%ADD16O,1.250000X1.050000*%
%ADD17O,1.900000X1.000000*%
%ADD18R,1.900000X2.900000*%
%ADD19RoundRect,0.218750X0.218750X0.256250X-0.218750X0.256250X-0.218750X-0.256250X0.218750X-0.256250X0*%
%ADD20RoundRect,0.200000X0.275000X-0.200000X0.275000X0.200000X-0.275000X0.200000X-0.275000X-0.200000X0*%
%ADD21RoundRect,0.225000X-0.250000X0.225000X-0.250000X-0.225000X0.250000X-0.225000X0.250000X0.225000X0*%
%ADD22RoundRect,0.218750X-0.218750X-0.381250X0.218750X-0.381250X0.218750X0.381250X-0.218750X0.381250X0*%
%ADD23RoundRect,0.250000X-0.450000X-0.425000X0.450000X-0.425000X0.450000X0.425000X-0.450000X0.425000X0*%
%ADD24RoundRect,0.225000X0.250000X-0.225000X0.250000X0.225000X-0.250000X0.225000X-0.250000X-0.225000X0*%
%ADD25RoundRect,0.200000X0.200000X0.275000X-0.200000X0.275000X-0.200000X-0.275000X0.200000X-0.275000X0*%
%ADD26RoundRect,0.200000X-0.275000X0.200000X-0.275000X-0.200000X0.275000X-0.200000X0.275000X0.200000X0*%
G04 APERTURE END LIST*
D10*
%TO.C,J5*%
X152029400Y-66446400D03*
D11*
X149489400Y-66446400D03*
X146949400Y-66446400D03*
X144409400Y-66446400D03*
X141869400Y-66446400D03*
X139329400Y-66446400D03*
X136789400Y-66446400D03*
X134249400Y-66446400D03*
%TD*%
D12*
%TO.C,U1*%
X146794973Y-54912099D03*
X146441419Y-55265652D03*
X146087866Y-55619206D03*
X145734313Y-55972759D03*
X145380759Y-56326313D03*
X145027206Y-56679866D03*
X144673652Y-57033419D03*
X144320099Y-57386973D03*
D13*
X144320099Y-59402227D03*
X144673652Y-59755781D03*
X145027206Y-60109334D03*
X145380759Y-60462887D03*
X145734313Y-60816441D03*
X146087866Y-61169994D03*
X146441419Y-61523548D03*
X146794973Y-61877101D03*
D12*
X148810227Y-61877101D03*
X149163781Y-61523548D03*
X149517334Y-61169994D03*
X149870887Y-60816441D03*
X150224441Y-60462887D03*
X150577994Y-60109334D03*
X150931548Y-59755781D03*
X151285101Y-59402227D03*
D13*
X151285101Y-57386973D03*
X150931548Y-57033419D03*
X150577994Y-56679866D03*
X150224441Y-56326313D03*
X149870887Y-55972759D03*
X149517334Y-55619206D03*
X149163781Y-55265652D03*
X148810227Y-54912099D03*
%TD*%
D14*
%TO.C,C2*%
X132325000Y-56475000D03*
X133875000Y-56475000D03*
%TD*%
D15*
%TO.C,J3*%
X129769000Y-60278800D03*
X129769000Y-59628800D03*
X129769000Y-58978800D03*
X129769000Y-58328800D03*
X129769000Y-57678800D03*
D16*
X130094000Y-61366400D03*
X130094000Y-56540400D03*
D17*
X127094000Y-55321200D03*
X127094000Y-62687200D03*
D18*
X127094000Y-58978800D03*
%TD*%
D19*
%TO.C,TX*%
X138362500Y-57475000D03*
X136787500Y-57475000D03*
%TD*%
%TO.C,ON*%
X138362500Y-59400000D03*
X136787500Y-59400000D03*
%TD*%
D20*
%TO.C,R3*%
X141980000Y-58245000D03*
X141980000Y-56595000D03*
%TD*%
D21*
%TO.C,C3*%
X134000000Y-60475000D03*
X134000000Y-62025000D03*
%TD*%
D20*
%TO.C,R1*%
X156057600Y-52463200D03*
X156057600Y-50813200D03*
%TD*%
D22*
%TO.C,FB1*%
X127512500Y-65350000D03*
X129637500Y-65350000D03*
%TD*%
D23*
%TO.C,C4*%
X136400000Y-62525000D03*
X139100000Y-62525000D03*
%TD*%
D19*
%TO.C,RX*%
X138362500Y-55475000D03*
X136787500Y-55475000D03*
%TD*%
D10*
%TO.C,J2*%
X160210000Y-52400000D03*
D11*
X160210000Y-54940000D03*
X160210000Y-57480000D03*
X160210000Y-60020000D03*
X160210000Y-62560000D03*
X160210000Y-65100000D03*
%TD*%
D10*
%TO.C,J1*%
X155194000Y-56057800D03*
D11*
X155194000Y-58597800D03*
X155194000Y-61137800D03*
%TD*%
D24*
%TO.C,C5*%
X132250000Y-62000000D03*
X132250000Y-60450000D03*
%TD*%
D21*
%TO.C,C1*%
X156133800Y-65138000D03*
X156133800Y-66688000D03*
%TD*%
D25*
%TO.C,R4*%
X129175000Y-52650000D03*
X127525000Y-52650000D03*
%TD*%
D26*
%TO.C,R2*%
X141950000Y-59925000D03*
X141950000Y-61575000D03*
%TD*%
D10*
%TO.C,J6*%
X151866600Y-51308000D03*
D11*
X149326600Y-51308000D03*
X146786600Y-51308000D03*
X144246600Y-51308000D03*
X141706600Y-51308000D03*
X139166600Y-51308000D03*
X136626600Y-51308000D03*
X134086600Y-51308000D03*
%TD*%
M02*
