M48
; DRILL file {KiCad (6.0.6)} date Sun Aug 14 20:34:30 2022
; FORMAT={-:-/ absolute / inch / decimal}
; #@! TF.CreationDate,2022-08-14T20:34:30+01:00
; #@! TF.GenerationSoftware,Kicad,Pcbnew,(6.0.6)
; #@! TF.FileFunction,Plated,1,2,PTH
FMAT,2
INCH
; #@! TA.AperFunction,Plated,PTH,ViaDrill
T1C0.0100
; #@! TA.AperFunction,Plated,PTH,ComponentDrill
T2C0.0236
; #@! TA.AperFunction,Plated,PTH,ComponentDrill
T3C0.0256
; #@! TA.AperFunction,Plated,PTH,ComponentDrill
T4C0.0394
%
G90
G05
T1
X5.1447Y-2.3476
X5.6152Y-2.189
X5.6329Y-2.1604
X5.6437Y-2.2293
X5.688Y-2.4705
X5.6938Y-2.1757
X5.7372Y-2.2943
X5.7382Y-2.4882
X5.7431Y-2.3297
X5.8317Y-2.2077
X5.8327Y-2.126
X5.8337Y-2.3415
X5.8415Y-2.4744
X5.8799Y-2.2648
X5.9252Y-2.5049
X5.9557Y-2.1752
X5.9764Y-2.4321
X6.0079Y-2.1417
X6.0453Y-2.5315
X6.0738Y-2.1171
X6.2156Y-2.0807
X6.2364Y-2.415
T4
X5.279Y-2.02
X5.2854Y-2.616
X5.379Y-2.02
X5.3854Y-2.616
X5.479Y-2.02
X5.4854Y-2.616
X5.579Y-2.02
X5.5854Y-2.616
X5.679Y-2.02
X5.6854Y-2.616
X5.779Y-2.02
X5.7854Y-2.616
X5.879Y-2.02
X5.8854Y-2.616
X5.979Y-2.02
X5.9854Y-2.616
X6.11Y-2.207
X6.11Y-2.307
X6.11Y-2.407
X6.3075Y-2.063
X6.3075Y-2.163
X6.3075Y-2.263
X6.3075Y-2.363
X6.3075Y-2.463
X6.3075Y-2.563
T2
G00X5.0175Y-2.178
M15
G01X4.9899Y-2.178
M16
G05
G00X5.0175Y-2.468
M15
G01X4.9899Y-2.468
M16
G05
T3
G00X5.1257Y-2.226
M15
G01X5.1179Y-2.226
M16
G05
G00X5.1257Y-2.416
M15
G01X5.1179Y-2.416
M16
G05
T0
M30
